#N canvas 295 22 1114 1002 10;
#N canvas 644 193 820 427 windows 0;
#X obj 259 43 table square64 64;
#X obj 259 69 table square128 128;
#X obj 259 95 table square256 256;
#X obj 259 121 table square512 512;
#X obj 259 147 table square1024 1024;
#X obj 259 173 table square2048 2048;
#X obj 259 199 table square4096 4096;
#X obj 259 225 table square8192 8192;
#X obj 259 251 table square16384 16384;
#X obj 25 64 r size;
#X msg 105 250 set square\$1;
#X obj 25 156 until;
#X obj 25 181 f;
#X obj 53 181 + 1;
#X msg 42 110 0;
#X msg 70 249 0;
#X msg 25 248 1;
#X obj 25 202 t f f;
#X obj 25 89 t f b f f;
#X obj 59 131 * 0.5;
#X obj 25 224 moses 32;
#X obj 25 289 tabwrite square128;
#X msg 139 45 \; size 64 \; size 128 \; size 256 \; size 512 \; size
1024 \; size 2048 \; size 4096 \; size 8192 \; size 16384 \; size 32768
;
#X obj 259 277 table square32768 32768;
#X obj 139 19 loadbang;
#X connect 9 0 18 0;
#X connect 10 0 21 0;
#X connect 11 0 12 0;
#X connect 12 0 13 0;
#X connect 12 0 17 0;
#X connect 13 0 12 1;
#X connect 14 0 12 1;
#X connect 15 0 21 0;
#X connect 16 0 21 0;
#X connect 17 0 20 0;
#X connect 17 1 21 1;
#X connect 18 0 11 0;
#X connect 18 1 14 0;
#X connect 18 2 19 0;
#X connect 18 3 10 0;
#X connect 19 0 20 1;
#X connect 20 0 16 0;
#X connect 20 1 15 0;
#X connect 24 0 22 0;
#X restore 16 53 pd windows;
#X obj 592 190 clone convopart 14 256 0 0;
#X obj 609 239 clone convopart 6 2048 14 0;
#X obj 622 291 clone convopart 8 8192 20 0;
#N canvas 938 493 450 300 filter 0;
#X obj 38 159 lop~;
#X obj 38 182 hip~ 30;
#X obj 246 47 mtof;
#X obj 177 47 mtof;
#X obj 177 26 r rev_lpf;
#X obj 246 26 r rev_hpf;
#X obj 105 160 lop~;
#X obj 105 183 hip~ 30;
#X obj 38 26 inlet~ L;
#X obj 105 26 inlet~ R;
#X obj 38 212 outlet~ L;
#X obj 105 212 outlet~ R;
#X obj 246 89 line;
#X obj 177 87 line;
#X msg 177 68 \$1 100;
#X msg 246 70 \$1 150;
#X connect 0 0 1 0;
#X connect 1 0 10 0;
#X connect 2 0 15 0;
#X connect 3 0 14 0;
#X connect 4 0 3 0;
#X connect 5 0 2 0;
#X connect 6 0 7 0;
#X connect 7 0 11 0;
#X connect 8 0 0 0;
#X connect 9 0 6 0;
#X connect 12 0 1 1;
#X connect 12 0 7 1;
#X connect 13 0 0 1;
#X connect 13 0 6 1;
#X connect 14 0 13 0;
#X connect 15 0 12 0;
#X restore 592 372 pd filter;
#X obj 592 324 *~ 0.2;
#X msg 179 265 symbol ir2_L.wav;
#X msg 294 265 symbol ir3_L.wav;
#X msg 420 265 symbol ir4_L.wav;
#N canvas 229 104 994 673 impulse_L 0;
#X obj 712 179 table imp1 128;
#X obj 712 205 table imp2 128;
#X obj 693 631 soundfiler;
#X obj 118 61 inlet;
#X obj 712 231 table imp3 128;
#X obj 712 257 table imp4 128;
#X obj 712 283 table imp5 128;
#X obj 712 309 table imp6 128;
#X obj 712 335 table imp7 128;
#X obj 712 361 table imp8 128;
#X obj 712 387 table imp9 128;
#X obj 712 413 table imp10 128;
#X obj 712 439 table imp11 128;
#X obj 712 465 table imp12 128;
#X obj 712 491 table imp13 128;
#X obj 820 179 table imp15 1024;
#X obj 820 205 table imp16 1024;
#X obj 820 231 table imp17 1024;
#X msg 75 510 read \$1 imp0;
#X msg 90 487 read -skip 128 \$1 imp1;
#X msg 105 465 read -skip 256 \$1 imp2;
#X msg 119 440 read -skip 384 \$1 imp3;
#X msg 134 416 read -skip 512 \$1 imp4;
#X msg 148 391 read -skip 640 \$1 imp5;
#X msg 163 365 read -skip 768 \$1 imp6;
#X msg 176 340 read -skip 896 \$1 imp7;
#X msg 188 312 read -skip 1024 \$1 imp8;
#X msg 203 285 read -skip 1152 \$1 imp9;
#X msg 220 261 read -skip 1280 \$1 imp10;
#X msg 238 237 read -skip 1408 \$1 imp11;
#X msg 257 215 read -skip 1536 \$1 imp12;
#X msg 272 193 read -skip 1664 \$1 imp13;
#X msg 268 522 read -skip 1792 \$1 imp14;
#X msg 287 500 read -skip 2816 \$1 imp15;
#X msg 302 478 read -skip 3840 \$1 imp16;
#X obj 712 153 table imp0 128;
#X obj 820 153 table imp14 1024;
#X obj 820 257 table imp18 1024;
#X obj 820 283 table imp19 1024;
#X obj 118 86 t s s s s s s s s s s s s s s s s s s s s s s s s s s
s s;
#X msg 316 452 read -skip 4864 \$1 imp17;
#X msg 335 430 read -skip 5888 \$1 imp18;
#X msg 350 408 read -skip 6912 \$1 imp19;
#X msg 371 385 read -skip 7936 \$1 imp20;
#X obj 820 309 table imp20 4096;
#X obj 820 335 table imp21 4096;
#X obj 820 361 table imp22 4096;
#X obj 820 387 table imp23 4096;
#X obj 820 413 table imp24 4096;
#X obj 820 439 table imp25 4096;
#X obj 820 465 table imp26 4096;
#X obj 820 491 table imp27 4096;
#X msg 390 363 read -skip 12032 \$1 imp21;
#X msg 406 341 read -skip 16128 \$1 imp22;
#X msg 424 314 read -skip 20224 \$1 imp23;
#X msg 444 292 read -skip 24320 \$1 imp24;
#X msg 458 272 read -skip 28416 \$1 imp25;
#X msg 473 246 read -skip 32512 \$1 imp26;
#X msg 492 224 read -skip 36608 \$1 imp27;
#X connect 3 0 39 0;
#X connect 18 0 2 0;
#X connect 19 0 2 0;
#X connect 20 0 2 0;
#X connect 21 0 2 0;
#X connect 22 0 2 0;
#X connect 23 0 2 0;
#X connect 24 0 2 0;
#X connect 25 0 2 0;
#X connect 26 0 2 0;
#X connect 27 0 2 0;
#X connect 28 0 2 0;
#X connect 29 0 2 0;
#X connect 30 0 2 0;
#X connect 31 0 2 0;
#X connect 32 0 2 0;
#X connect 33 0 2 0;
#X connect 34 0 2 0;
#X connect 39 0 18 0;
#X connect 39 1 19 0;
#X connect 39 2 20 0;
#X connect 39 3 21 0;
#X connect 39 4 22 0;
#X connect 39 5 23 0;
#X connect 39 6 24 0;
#X connect 39 7 25 0;
#X connect 39 8 26 0;
#X connect 39 9 27 0;
#X connect 39 10 28 0;
#X connect 39 11 29 0;
#X connect 39 12 30 0;
#X connect 39 13 31 0;
#X connect 39 14 32 0;
#X connect 39 15 33 0;
#X connect 39 16 34 0;
#X connect 39 17 40 0;
#X connect 39 18 41 0;
#X connect 39 19 42 0;
#X connect 39 20 43 0;
#X connect 39 21 52 0;
#X connect 39 22 53 0;
#X connect 39 23 54 0;
#X connect 39 24 55 0;
#X connect 39 25 56 0;
#X connect 39 26 57 0;
#X connect 39 27 58 0;
#X connect 40 0 2 0;
#X connect 41 0 2 0;
#X connect 42 0 2 0;
#X connect 43 0 2 0;
#X connect 52 0 2 0;
#X connect 53 0 2 0;
#X connect 54 0 2 0;
#X connect 55 0 2 0;
#X connect 56 0 2 0;
#X connect 57 0 2 0;
#X connect 58 0 2 0;
#X restore 63 313 pd impulse_L;
#X msg 179 385 symbol ir2_R.wav;
#X msg 294 385 symbol ir3_R.wav;
#X msg 420 385 symbol ir4_R.wav;
#N canvas 229 104 994 673 impulse_R 0;
#X obj 72 597 soundfiler;
#X obj 118 61 inlet;
#X obj 118 86 t s s s s s s s s s s s s s s s s s s s s s s s s s s
s s;
#X obj 712 153 table imp28 128;
#X obj 712 179 table imp29 128;
#X obj 712 205 table imp30 128;
#X obj 712 231 table imp31 128;
#X obj 712 257 table imp32 128;
#X obj 712 283 table imp33 128;
#X obj 712 309 table imp34 128;
#X obj 712 335 table imp35 128;
#X obj 712 361 table imp36 128;
#X obj 712 387 table imp37 128;
#X obj 712 413 table imp38 128;
#X obj 712 439 table imp39 128;
#X obj 712 465 table imp40 128;
#X obj 712 491 table imp41 128;
#X obj 820 153 table imp42 1024;
#X obj 820 179 table imp43 1024;
#X obj 820 205 table imp44 1024;
#X obj 820 231 table imp45 1024;
#X obj 820 257 table imp46 1024;
#X obj 820 283 table imp47 1024;
#X obj 820 309 table imp48 4096;
#X obj 820 335 table imp49 4096;
#X obj 820 361 table imp50 4096;
#X obj 820 387 table imp51 4096;
#X obj 820 413 table imp52 4096;
#X obj 820 439 table imp53 4096;
#X obj 820 465 table imp54 4096;
#X obj 820 491 table imp55 4096;
#X msg 75 510 read \$1 imp28;
#X msg 90 487 read -skip 128 \$1 imp29;
#X msg 105 465 read -skip 256 \$1 imp30;
#X msg 119 440 read -skip 384 \$1 imp31;
#X msg 134 416 read -skip 512 \$1 imp32;
#X msg 148 391 read -skip 640 \$1 imp33;
#X msg 163 365 read -skip 768 \$1 imp34;
#X msg 176 340 read -skip 896 \$1 imp35;
#X msg 188 312 read -skip 1024 \$1 imp36;
#X msg 203 285 read -skip 1152 \$1 imp37;
#X msg 220 261 read -skip 1280 \$1 imp38;
#X msg 238 237 read -skip 1408 \$1 imp39;
#X msg 257 215 read -skip 1536 \$1 imp40;
#X msg 272 193 read -skip 1664 \$1 imp41;
#X msg 268 522 read -skip 1792 \$1 imp42;
#X msg 287 500 read -skip 2816 \$1 imp43;
#X msg 302 478 read -skip 3840 \$1 imp44;
#X msg 316 452 read -skip 4864 \$1 imp45;
#X msg 335 430 read -skip 5888 \$1 imp46;
#X msg 350 408 read -skip 6912 \$1 imp47;
#X msg 371 385 read -skip 7936 \$1 imp48;
#X msg 390 364 read -skip 12032 \$1 imp49;
#X msg 406 341 read -skip 16128 \$1 imp50;
#X msg 424 314 read -skip 20224 \$1 imp51;
#X msg 444 292 read -skip 24320 \$1 imp52;
#X msg 458 272 read -skip 28416 \$1 imp53;
#X msg 473 246 read -skip 32512 \$1 imp54;
#X msg 492 224 read -skip 36608 \$1 imp55;
#X connect 1 0 2 0;
#X connect 2 0 31 0;
#X connect 2 1 32 0;
#X connect 2 2 33 0;
#X connect 2 3 34 0;
#X connect 2 4 35 0;
#X connect 2 5 36 0;
#X connect 2 6 37 0;
#X connect 2 7 38 0;
#X connect 2 8 39 0;
#X connect 2 9 40 0;
#X connect 2 10 41 0;
#X connect 2 11 42 0;
#X connect 2 12 43 0;
#X connect 2 13 44 0;
#X connect 2 14 45 0;
#X connect 2 15 46 0;
#X connect 2 16 47 0;
#X connect 2 17 48 0;
#X connect 2 18 49 0;
#X connect 2 19 50 0;
#X connect 2 20 51 0;
#X connect 2 21 52 0;
#X connect 2 22 53 0;
#X connect 2 23 54 0;
#X connect 2 24 55 0;
#X connect 2 25 56 0;
#X connect 2 26 57 0;
#X connect 2 27 58 0;
#X connect 31 0 0 0;
#X connect 32 0 0 0;
#X connect 33 0 0 0;
#X connect 34 0 0 0;
#X connect 35 0 0 0;
#X connect 36 0 0 0;
#X connect 37 0 0 0;
#X connect 38 0 0 0;
#X connect 39 0 0 0;
#X connect 40 0 0 0;
#X connect 41 0 0 0;
#X connect 42 0 0 0;
#X connect 43 0 0 0;
#X connect 44 0 0 0;
#X connect 45 0 0 0;
#X connect 46 0 0 0;
#X connect 47 0 0 0;
#X connect 48 0 0 0;
#X connect 49 0 0 0;
#X connect 50 0 0 0;
#X connect 51 0 0 0;
#X connect 52 0 0 0;
#X connect 53 0 0 0;
#X connect 54 0 0 0;
#X connect 55 0 0 0;
#X connect 56 0 0 0;
#X connect 57 0 0 0;
#X connect 58 0 0 0;
#X restore 63 433 pd impulse_R;
#X obj 842 358 *~ 0.2;
#X obj 842 225 clone convopart 14 256 28 0;
#X obj 859 273 clone convopart 6 2048 42 0;
#X obj 872 325 clone convopart 8 8192 48 0;
#X obj 179 236 r ir_wave_2;
#X obj 294 236 r ir_wave_3;
#X obj 420 236 r ir_wave_4;
#X obj 179 356 r ir_wave_2;
#X obj 294 356 r ir_wave_3;
#X obj 420 356 r ir_wave_4;
#N canvas 653 437 661 493 balance_ir 0;
#X obj 86 222 *~;
#X obj 174 222 *~;
#X obj 441 91 sig~;
#X obj 441 114 lop~ 1;
#X obj 101 122 sig~ 1;
#X obj 101 157 -~;
#X obj 101 180 sqrt~;
#X obj 189 180 sqrt~;
#X obj 86 22 inlet~ dryL;
#X obj 86 265 outlet~ L;
#X obj 174 22 inlet~ wetL;
#X obj 266 222 *~;
#X obj 354 222 *~;
#X obj 281 122 sig~ 1;
#X obj 281 157 -~;
#X obj 281 180 sqrt~;
#X obj 369 180 sqrt~;
#X obj 266 22 inlet~ dryR;
#X obj 354 22 inlet~ wetR;
#X obj 266 265 outlet~ R;
#X obj 441 22 r rev_balance;
#X obj 441 43 / 127;
#X connect 0 0 9 0;
#X connect 1 0 9 0;
#X connect 2 0 3 0;
#X connect 3 0 7 0;
#X connect 3 0 5 1;
#X connect 3 0 14 1;
#X connect 3 0 16 0;
#X connect 4 0 5 0;
#X connect 5 0 6 0;
#X connect 6 0 0 1;
#X connect 7 0 1 1;
#X connect 8 0 0 0;
#X connect 10 0 1 0;
#X connect 11 0 19 0;
#X connect 12 0 19 0;
#X connect 13 0 14 0;
#X connect 14 0 15 0;
#X connect 15 0 11 1;
#X connect 16 0 12 1;
#X connect 17 0 11 0;
#X connect 18 0 12 0;
#X connect 20 0 21 0;
#X connect 21 0 2 0;
#X restore 568 496 pd balance_ir;
#N canvas 879 213 654 717 Midi_settings 1;
#X text 9 9 REVERB;
#X obj 12 33 ctlin 1;
#X obj 108 33 ctlin 2;
#X obj 212 33 ctlin 3;
#X obj 12 94 s rev_lpf;
#X obj 108 94 s rev_hpf;
#X obj 212 94 s rev_balance;
#X obj 22 53 r loadbang;
#X msg 22 73 120;
#X msg 116 73 10;
#X msg 219 73 40;
#X obj 116 53 r loadbang;
#X obj 219 53 r loadbang;
#X obj 16 149 ctlin 4;
#X obj 16 174 / 35;
#X obj 16 215 i;
#X obj 16 265 spigot;
#X obj 107 265 spigot;
#X obj 197 265 spigot;
#X obj 287 265 spigot;
#X obj 107 244 == 2;
#X obj 197 244 == 3;
#X obj 287 243 == 4;
#X obj 16 288 s ir_wave_1;
#X obj 107 288 s ir_wave_2;
#X obj 197 288 s ir_wave_3;
#X obj 287 288 s ir_wave_4;
#X obj 16 195 + 1;
#X obj 16 245 == 1;
#X connect 1 0 4 0;
#X connect 2 0 5 0;
#X connect 3 0 6 0;
#X connect 7 0 8 0;
#X connect 8 0 4 0;
#X connect 9 0 5 0;
#X connect 10 0 6 0;
#X connect 11 0 9 0;
#X connect 12 0 10 0;
#X connect 13 0 14 0;
#X connect 14 0 27 0;
#X connect 15 0 28 0;
#X connect 15 0 20 0;
#X connect 15 0 21 0;
#X connect 15 0 22 0;
#X connect 16 0 23 0;
#X connect 17 0 24 0;
#X connect 18 0 25 0;
#X connect 19 0 26 0;
#X connect 20 0 17 0;
#X connect 20 0 17 1;
#X connect 21 0 18 0;
#X connect 21 0 18 1;
#X connect 22 0 19 0;
#X connect 22 0 19 1;
#X connect 27 0 15 0;
#X connect 28 0 16 0;
#X connect 28 0 16 1;
#X restore 16 78 pd Midi_settings;
#N canvas 398 86 756 529 Init 0;
#X msg 76 103 \; pd dsp 1;
#X msg 11 103 \; pd dsp 0;
#X obj 11 31 r audio_onoff;
#X obj 76 64 sel 1;
#X obj 11 64 sel 0;
#X obj 180 31 loadbang;
#X obj 180 54 s loadbang;
#X obj 227 126 print -n;
#X msg 227 90 *** Convolution Reverb based on the IR Reverb patch by
Tom Erbe - Modified by Alessandro Ielo - jqrsound.com;
#X connect 2 0 3 0;
#X connect 2 0 4 0;
#X connect 3 0 0 0;
#X connect 4 0 1 0;
#X connect 5 0 6 0;
#X connect 5 0 8 0;
#X connect 8 0 7 0;
#X coords 0 0 1 1 85 60 0;
#X restore 16 103 pd Init;
#X obj 16 16 tgl 25 0 audio_onoff empty Audio_On/Off 30 13 0 15 -262144
-1 -1 0 1;
#X obj 63 236 r ir_wave_1;
#X obj 63 356 r ir_wave_1;
#X msg 63 265 symbol ir1_L.wav;
#X msg 63 385 symbol ir1_R.wav;
#X obj 781 168 adc~ 1;
#X obj 1031 187 adc~ 2;
#X obj 568 516 dac~ 1;
#X obj 643 516 dac~ 2;
#X obj 8 204 r loadbang;
#X connect 1 0 5 0;
#X connect 2 0 5 0;
#X connect 3 0 5 0;
#X connect 4 0 24 1;
#X connect 4 1 24 3;
#X connect 5 0 4 0;
#X connect 6 0 9 0;
#X connect 7 0 9 0;
#X connect 8 0 9 0;
#X connect 10 0 13 0;
#X connect 11 0 13 0;
#X connect 12 0 13 0;
#X connect 14 0 4 1;
#X connect 15 0 14 0;
#X connect 16 0 14 0;
#X connect 17 0 14 0;
#X connect 18 0 6 0;
#X connect 19 0 7 0;
#X connect 20 0 8 0;
#X connect 21 0 10 0;
#X connect 22 0 11 0;
#X connect 23 0 12 0;
#X connect 24 0 34 0;
#X connect 24 1 35 0;
#X connect 28 0 30 0;
#X connect 29 0 31 0;
#X connect 30 0 9 0;
#X connect 31 0 13 0;
#X connect 32 0 24 0;
#X connect 32 0 1 1;
#X connect 32 0 2 1;
#X connect 32 0 3 1;
#X connect 33 0 24 2;
#X connect 33 0 15 1;
#X connect 33 0 17 1;
#X connect 33 0 16 1;
#X connect 36 0 30 0;
#X connect 36 0 31 0;
