#N canvas 34 22 1646 973 10;
#X obj 634 186 r notesIn-\$1;
#X obj 634 641 s notesOut-\$1;
#X obj 25 186 inlet~ inL-\$1;
#X obj 285 186 inlet~ inR-\$1;
#X obj 25 641 outlet~ outL-\$1;
#X obj 285 641 outlet~ outR-\$1;
#X obj 120 34 r auxIn-\$1;
#X obj 119 59 r expIn-\$1;
#X obj 119 84 r fsIn-\$1;
#X obj 548 186 r ctrlIn-\$1;
#X obj 548 641 s ctrlOut-\$1;
#X obj 25 615 +~;
#X obj 285 614 +~;
#X obj 26 34 r loadbang-\$1;
#X obj 26 89 int 0;
#X obj 26 114 s aux-led-\$1;
#X obj 38 62 s loadbang;
#X text 778 21 Filter Midi CC In;
#X text 375 24 IR Reverb Midi CC In;
#X obj 376 65 s ir_wave;
#N canvas 644 193 820 427 windows 0;
#X obj 259 43 table square64 64;
#X obj 259 69 table square128 128;
#X obj 259 95 table square256 256;
#X obj 259 121 table square512 512;
#X obj 259 147 table square1024 1024;
#X obj 259 173 table square2048 2048;
#X obj 259 199 table square4096 4096;
#X obj 259 225 table square8192 8192;
#X obj 259 251 table square16384 16384;
#X obj 25 64 r size;
#X msg 105 250 set square\$1;
#X obj 25 156 until;
#X obj 25 181 f;
#X obj 53 181 + 1;
#X msg 42 110 0;
#X msg 70 249 0;
#X msg 25 248 1;
#X obj 25 202 t f f;
#X obj 25 89 t f b f f;
#X obj 59 131 * 0.5;
#X obj 25 224 moses 32;
#X obj 25 289 tabwrite square128;
#X msg 139 45 \; size 64 \; size 128 \; size 256 \; size 512 \; size
1024 \; size 2048 \; size 4096 \; size 8192 \; size 16384 \; size 32768
;
#X obj 259 277 table square32768 32768;
#X obj 139 19 loadbang;
#X connect 9 0 18 0;
#X connect 10 0 21 0;
#X connect 11 0 12 0;
#X connect 12 0 13 0;
#X connect 12 0 17 0;
#X connect 13 0 12 1;
#X connect 14 0 12 1;
#X connect 15 0 21 0;
#X connect 16 0 21 0;
#X connect 17 0 20 0;
#X connect 17 1 21 1;
#X connect 18 0 11 0;
#X connect 18 1 14 0;
#X connect 18 2 19 0;
#X connect 18 3 10 0;
#X connect 19 0 20 1;
#X connect 20 0 16 0;
#X connect 20 1 15 0;
#X connect 24 0 22 0;
#X restore 792 189 pd windows;
#X obj 53 290 clone convopart 14 256 0 0;
#X obj 70 339 clone convopart 6 2048 14 0;
#X obj 83 391 clone convopart 8 8192 20 0;
#N canvas 40 363 227 287 volume 0;
#X obj 46 24 inlet~;
#X obj 46 234 outlet~;
#X obj 46 159 *~;
#X obj 61 93 dbtorms;
#X msg 61 114 \$1 40;
#X obj 61 135 line~;
#X obj 61 72 r master-volume;
#X connect 0 0 2 0;
#X connect 2 0 1 0;
#X connect 3 0 4 0;
#X connect 4 0 5 0;
#X connect 5 0 2 1;
#X connect 6 0 3 0;
#X restore 25 542 pd volume;
#N canvas 670 386 450 300 balance 0;
#X obj 86 22 inlet~ dry;
#X obj 174 22 inlet~ wet;
#X obj 86 222 *~;
#X obj 86 265 outlet~;
#X obj 174 222 *~;
#X obj 261 22 inlet xfade;
#X obj 261 45 sig~;
#X obj 261 68 lop~ 1;
#X obj 102 122 sig~ 1;
#X obj 102 157 -~;
#X obj 102 180 sqrt~;
#X obj 190 180 sqrt~;
#X connect 0 0 2 0;
#X connect 1 0 4 0;
#X connect 2 0 3 0;
#X connect 4 0 3 0;
#X connect 5 0 6 0;
#X connect 6 0 7 0;
#X connect 7 0 11 0;
#X connect 7 0 9 1;
#X connect 8 0 9 0;
#X connect 9 0 10 0;
#X connect 10 0 2 1;
#X connect 11 0 4 1;
#X restore 25 517 pd balance;
#X obj 82 494 r master-balance;
#N canvas 319 490 450 300 filter 0;
#X obj 37 25 inlet~;
#X obj 38 171 outlet~;
#X obj 59 68 exp;
#X obj 38 119 lop~;
#X obj 38 142 hip~ 30;
#X obj 59 46 r low-pass-filter;
#X obj 91 90 exp;
#X obj 91 68 r high-pass-filter;
#X connect 0 0 3 0;
#X connect 2 0 3 1;
#X connect 3 0 4 0;
#X connect 4 0 1 0;
#X connect 5 0 2 0;
#X connect 6 0 4 1;
#X connect 7 0 6 0;
#X restore 53 472 pd filter;
#X obj 828 253 == 0;
#X floatatom 828 274 5 0 0 0 - - -;
#X obj 795 306 spigot;
#X floatatom 944 274 5 0 0 0 - - -;
#X obj 911 306 spigot;
#X floatatom 1059 274 5 0 0 0 - - -;
#X obj 1026 306 spigot;
#X floatatom 1185 274 5 0 0 0 - - -;
#X obj 1152 306 spigot;
#X obj 1152 365 ctlin 79;
#X floatatom 1185 414 5 0 0 0 - - -;
#X obj 1152 446 spigot;
#X obj 53 424 *~ 0.2;
#X obj 828 603 == 0;
#X floatatom 828 624 5 0 0 0 - - -;
#X obj 795 656 spigot;
#X floatatom 944 624 5 0 0 0 - - -;
#X obj 911 656 spigot;
#X floatatom 1059 624 5 0 0 0 - - -;
#X obj 1026 656 spigot;
#X floatatom 1185 624 5 0 0 0 - - -;
#X obj 1152 656 spigot;
#X obj 1152 715 ctlin 79;
#X floatatom 1185 764 5 0 0 0 - - -;
#X obj 1152 796 spigot;
#X msg 795 334 symbol ir1_L.wav;
#X msg 911 334 symbol ir2_L.wav;
#X msg 1026 334 symbol ir3_L.wav;
#X msg 1152 334 symbol ir4_L.wav;
#X msg 1152 474 symbol ir5_L.wav;
#N canvas 229 104 994 673 impulse_L 0;
#X obj 712 179 table imp1 128;
#X obj 712 205 table imp2 128;
#X obj 693 631 soundfiler;
#X obj 118 61 inlet;
#X obj 712 231 table imp3 128;
#X obj 712 257 table imp4 128;
#X obj 712 283 table imp5 128;
#X obj 712 309 table imp6 128;
#X obj 712 335 table imp7 128;
#X obj 712 361 table imp8 128;
#X obj 712 387 table imp9 128;
#X obj 712 413 table imp10 128;
#X obj 712 439 table imp11 128;
#X obj 712 465 table imp12 128;
#X obj 712 491 table imp13 128;
#X obj 820 179 table imp15 1024;
#X obj 820 205 table imp16 1024;
#X obj 820 231 table imp17 1024;
#X msg 75 510 read \$1 imp0;
#X msg 90 487 read -skip 128 \$1 imp1;
#X msg 105 465 read -skip 256 \$1 imp2;
#X msg 119 440 read -skip 384 \$1 imp3;
#X msg 134 416 read -skip 512 \$1 imp4;
#X msg 148 391 read -skip 640 \$1 imp5;
#X msg 163 365 read -skip 768 \$1 imp6;
#X msg 176 340 read -skip 896 \$1 imp7;
#X msg 188 312 read -skip 1024 \$1 imp8;
#X msg 203 285 read -skip 1152 \$1 imp9;
#X msg 220 261 read -skip 1280 \$1 imp10;
#X msg 238 237 read -skip 1408 \$1 imp11;
#X msg 257 215 read -skip 1536 \$1 imp12;
#X msg 272 193 read -skip 1664 \$1 imp13;
#X msg 268 522 read -skip 1792 \$1 imp14;
#X msg 287 500 read -skip 2816 \$1 imp15;
#X msg 302 478 read -skip 3840 \$1 imp16;
#X obj 712 153 table imp0 128;
#X obj 820 153 table imp14 1024;
#X obj 820 257 table imp18 1024;
#X obj 820 283 table imp19 1024;
#X obj 118 86 t s s s s s s s s s s s s s s s s s s s s s s s s s s
s s;
#X msg 316 452 read -skip 4864 \$1 imp17;
#X msg 335 430 read -skip 5888 \$1 imp18;
#X msg 350 408 read -skip 6912 \$1 imp19;
#X msg 371 385 read -skip 7936 \$1 imp20;
#X obj 820 309 table imp20 4096;
#X obj 820 335 table imp21 4096;
#X obj 820 361 table imp22 4096;
#X obj 820 387 table imp23 4096;
#X obj 820 413 table imp24 4096;
#X obj 820 439 table imp25 4096;
#X obj 820 465 table imp26 4096;
#X obj 820 491 table imp27 4096;
#X msg 390 363 read -skip 12032 \$1 imp21;
#X msg 406 341 read -skip 16128 \$1 imp22;
#X msg 424 314 read -skip 20224 \$1 imp23;
#X msg 444 292 read -skip 24320 \$1 imp24;
#X msg 458 272 read -skip 28416 \$1 imp25;
#X msg 473 246 read -skip 32512 \$1 imp26;
#X msg 492 224 read -skip 36608 \$1 imp27;
#X connect 3 0 39 0;
#X connect 18 0 2 0;
#X connect 19 0 2 0;
#X connect 20 0 2 0;
#X connect 21 0 2 0;
#X connect 22 0 2 0;
#X connect 23 0 2 0;
#X connect 24 0 2 0;
#X connect 25 0 2 0;
#X connect 26 0 2 0;
#X connect 27 0 2 0;
#X connect 28 0 2 0;
#X connect 29 0 2 0;
#X connect 30 0 2 0;
#X connect 31 0 2 0;
#X connect 32 0 2 0;
#X connect 33 0 2 0;
#X connect 34 0 2 0;
#X connect 39 0 18 0;
#X connect 39 1 19 0;
#X connect 39 2 20 0;
#X connect 39 3 21 0;
#X connect 39 4 22 0;
#X connect 39 5 23 0;
#X connect 39 6 24 0;
#X connect 39 7 25 0;
#X connect 39 8 26 0;
#X connect 39 9 27 0;
#X connect 39 10 28 0;
#X connect 39 11 29 0;
#X connect 39 12 30 0;
#X connect 39 13 31 0;
#X connect 39 14 32 0;
#X connect 39 15 33 0;
#X connect 39 16 34 0;
#X connect 39 17 40 0;
#X connect 39 18 41 0;
#X connect 39 19 42 0;
#X connect 39 20 43 0;
#X connect 39 21 52 0;
#X connect 39 22 53 0;
#X connect 39 23 54 0;
#X connect 39 24 55 0;
#X connect 39 25 56 0;
#X connect 39 26 57 0;
#X connect 39 27 58 0;
#X connect 40 0 2 0;
#X connect 41 0 2 0;
#X connect 42 0 2 0;
#X connect 43 0 2 0;
#X connect 52 0 2 0;
#X connect 53 0 2 0;
#X connect 54 0 2 0;
#X connect 55 0 2 0;
#X connect 56 0 2 0;
#X connect 57 0 2 0;
#X connect 58 0 2 0;
#X restore 795 512 pd impulse_L;
#X msg 795 684 symbol ir1_R.wav;
#X msg 911 684 symbol ir2_R.wav;
#X msg 1026 684 symbol ir3_R.wav;
#X msg 1152 684 symbol ir4_R.wav;
#X msg 1152 824 symbol ir5_R.wav;
#N canvas 229 104 994 673 impulse_R 0;
#X obj 72 597 soundfiler;
#X obj 118 61 inlet;
#X obj 118 86 t s s s s s s s s s s s s s s s s s s s s s s s s s s
s s;
#X obj 712 153 table imp28 128;
#X obj 712 179 table imp29 128;
#X obj 712 205 table imp30 128;
#X obj 712 231 table imp31 128;
#X obj 712 257 table imp32 128;
#X obj 712 283 table imp33 128;
#X obj 712 309 table imp34 128;
#X obj 712 335 table imp35 128;
#X obj 712 361 table imp36 128;
#X obj 712 387 table imp37 128;
#X obj 712 413 table imp38 128;
#X obj 712 439 table imp39 128;
#X obj 712 465 table imp40 128;
#X obj 712 491 table imp41 128;
#X obj 820 153 table imp42 1024;
#X obj 820 179 table imp43 1024;
#X obj 820 205 table imp44 1024;
#X obj 820 231 table imp45 1024;
#X obj 820 257 table imp46 1024;
#X obj 820 283 table imp47 1024;
#X obj 820 309 table imp48 4096;
#X obj 820 335 table imp49 4096;
#X obj 820 361 table imp50 4096;
#X obj 820 387 table imp51 4096;
#X obj 820 413 table imp52 4096;
#X obj 820 439 table imp53 4096;
#X obj 820 465 table imp54 4096;
#X obj 820 491 table imp55 4096;
#X msg 75 510 read \$1 imp28;
#X msg 90 487 read -skip 128 \$1 imp29;
#X msg 105 465 read -skip 256 \$1 imp30;
#X msg 119 440 read -skip 384 \$1 imp31;
#X msg 134 416 read -skip 512 \$1 imp32;
#X msg 148 391 read -skip 640 \$1 imp33;
#X msg 163 365 read -skip 768 \$1 imp34;
#X msg 176 340 read -skip 896 \$1 imp35;
#X msg 188 312 read -skip 1024 \$1 imp36;
#X msg 203 285 read -skip 1152 \$1 imp37;
#X msg 220 261 read -skip 1280 \$1 imp38;
#X msg 238 237 read -skip 1408 \$1 imp39;
#X msg 257 215 read -skip 1536 \$1 imp40;
#X msg 272 193 read -skip 1664 \$1 imp41;
#X msg 268 522 read -skip 1792 \$1 imp42;
#X msg 287 500 read -skip 2816 \$1 imp43;
#X msg 302 478 read -skip 3840 \$1 imp44;
#X msg 316 452 read -skip 4864 \$1 imp45;
#X msg 335 430 read -skip 5888 \$1 imp46;
#X msg 350 408 read -skip 6912 \$1 imp47;
#X msg 371 385 read -skip 7936 \$1 imp48;
#X msg 390 364 read -skip 12032 \$1 imp49;
#X msg 406 341 read -skip 16128 \$1 imp50;
#X msg 424 314 read -skip 20224 \$1 imp51;
#X msg 444 292 read -skip 24320 \$1 imp52;
#X msg 458 272 read -skip 28416 \$1 imp53;
#X msg 473 246 read -skip 32512 \$1 imp54;
#X msg 492 224 read -skip 36608 \$1 imp55;
#X connect 1 0 2 0;
#X connect 2 0 31 0;
#X connect 2 1 32 0;
#X connect 2 2 33 0;
#X connect 2 3 34 0;
#X connect 2 4 35 0;
#X connect 2 5 36 0;
#X connect 2 6 37 0;
#X connect 2 7 38 0;
#X connect 2 8 39 0;
#X connect 2 9 40 0;
#X connect 2 10 41 0;
#X connect 2 11 42 0;
#X connect 2 12 43 0;
#X connect 2 13 44 0;
#X connect 2 14 45 0;
#X connect 2 15 46 0;
#X connect 2 16 47 0;
#X connect 2 17 48 0;
#X connect 2 18 49 0;
#X connect 2 19 50 0;
#X connect 2 20 51 0;
#X connect 2 21 52 0;
#X connect 2 22 53 0;
#X connect 2 23 54 0;
#X connect 2 24 55 0;
#X connect 2 25 56 0;
#X connect 2 26 57 0;
#X connect 2 27 58 0;
#X connect 31 0 0 0;
#X connect 32 0 0 0;
#X connect 33 0 0 0;
#X connect 34 0 0 0;
#X connect 35 0 0 0;
#X connect 36 0 0 0;
#X connect 37 0 0 0;
#X connect 38 0 0 0;
#X connect 39 0 0 0;
#X connect 40 0 0 0;
#X connect 41 0 0 0;
#X connect 42 0 0 0;
#X connect 43 0 0 0;
#X connect 44 0 0 0;
#X connect 45 0 0 0;
#X connect 46 0 0 0;
#X connect 47 0 0 0;
#X connect 48 0 0 0;
#X connect 49 0 0 0;
#X connect 50 0 0 0;
#X connect 51 0 0 0;
#X connect 52 0 0 0;
#X connect 53 0 0 0;
#X connect 54 0 0 0;
#X connect 55 0 0 0;
#X connect 56 0 0 0;
#X connect 57 0 0 0;
#X connect 58 0 0 0;
#X restore 795 862 pd impulse_R;
#N canvas 40 363 227 287 volume 0;
#X obj 46 24 inlet~;
#X obj 46 234 outlet~;
#X obj 46 159 *~;
#X obj 61 93 dbtorms;
#X msg 61 114 \$1 40;
#X obj 61 135 line~;
#X obj 61 72 r master-volume;
#X connect 0 0 2 0;
#X connect 2 0 1 0;
#X connect 3 0 4 0;
#X connect 4 0 5 0;
#X connect 5 0 2 1;
#X connect 6 0 3 0;
#X restore 285 542 pd volume;
#N canvas 670 386 450 300 balance 0;
#X obj 86 22 inlet~ dry;
#X obj 174 22 inlet~ wet;
#X obj 86 222 *~;
#X obj 86 265 outlet~;
#X obj 174 222 *~;
#X obj 261 22 inlet xfade;
#X obj 261 45 sig~;
#X obj 261 68 lop~ 1;
#X obj 102 122 sig~ 1;
#X obj 102 157 -~;
#X obj 102 180 sqrt~;
#X obj 190 180 sqrt~;
#X connect 0 0 2 0;
#X connect 1 0 4 0;
#X connect 2 0 3 0;
#X connect 4 0 3 0;
#X connect 5 0 6 0;
#X connect 6 0 7 0;
#X connect 7 0 11 0;
#X connect 7 0 9 1;
#X connect 8 0 9 0;
#X connect 9 0 10 0;
#X connect 10 0 2 1;
#X connect 11 0 4 1;
#X restore 285 517 pd balance;
#X obj 342 494 r master-balance;
#N canvas 319 490 450 300 filter 0;
#X obj 37 25 inlet~;
#X obj 38 171 outlet~;
#X obj 59 68 exp;
#X obj 38 119 lop~;
#X obj 38 142 hip~ 30;
#X obj 59 46 r low-pass-filter;
#X obj 91 90 exp;
#X obj 91 68 r high-pass-filter;
#X connect 0 0 3 0;
#X connect 2 0 3 1;
#X connect 3 0 4 0;
#X connect 4 0 1 0;
#X connect 5 0 2 0;
#X connect 6 0 4 1;
#X connect 7 0 6 0;
#X restore 313 472 pd filter;
#X obj 313 424 *~ 0.2;
#X obj 313 291 clone convopart 14 256 28 0;
#X obj 330 339 clone convopart 6 2048 42 0;
#X obj 343 391 clone convopart 8 8192 48 0;
#X obj 795 225 r ir_wave;
#X obj 911 225 r ir_wave;
#X obj 1026 225 r ir_wave;
#X obj 1152 225 r ir_wave;
#X obj 795 575 r ir_wave;
#X obj 911 574 r ir_wave;
#X obj 1026 575 r ir_wave;
#X obj 1152 575 r ir_wave;
#X obj 529 65 s master-balance;
#X obj 529 44 r balance-\$1;
#X obj 639 44 r volume-\$1;
#X obj 639 65 s master-volume;
#X obj 779 64 s low-pass-filter;
#X obj 779 44 r lpf-\$1;
#X obj 889 64 s high-pass-filter;
#X obj 889 44 r hpf-\$1;
#X text 528 24 Dry/Wet Midi CC In;
#X text 205 33 JQRSound_IR_Berlin;
#X text 204 47 tom erbe - tre@ucsd.edu;
#X obj 1221 140 s pd;
#X msg 1221 101 audio-dialog 0 0 0 0 2 0 0 0 0 0 0 0 2 0 0 0 44100
50 0 2048;
#X obj 1221 76 r loadbang;
#X obj 376 44 r select_ir-\$1;
#X obj 944 253 == 1;
#X obj 1059 253 == 2;
#X obj 1185 253 == 3;
#X obj 1185 393 == 4;
#X obj 944 603 == 1;
#X obj 1059 603 == 2;
#X obj 1185 603 == 3;
#X obj 1185 743 == 4;
#X connect 0 0 1 0;
#X connect 2 0 21 1;
#X connect 2 0 23 1;
#X connect 2 0 22 1;
#X connect 2 0 25 0;
#X connect 3 0 70 1;
#X connect 3 0 71 1;
#X connect 3 0 72 1;
#X connect 3 0 66 0;
#X connect 9 0 10 0;
#X connect 11 0 4 0;
#X connect 12 0 5 0;
#X connect 13 0 14 0;
#X connect 13 0 16 0;
#X connect 14 0 15 0;
#X connect 21 0 40 0;
#X connect 22 0 40 0;
#X connect 23 0 40 0;
#X connect 24 0 11 0;
#X connect 25 0 24 0;
#X connect 26 0 25 2;
#X connect 27 0 25 1;
#X connect 28 0 29 0;
#X connect 29 0 30 1;
#X connect 30 0 53 0;
#X connect 31 0 32 1;
#X connect 32 0 54 0;
#X connect 33 0 34 1;
#X connect 34 0 55 0;
#X connect 35 0 36 1;
#X connect 36 0 56 0;
#X connect 37 0 39 0;
#X connect 37 0 99 0;
#X connect 38 0 39 1;
#X connect 39 0 57 0;
#X connect 40 0 27 0;
#X connect 41 0 42 0;
#X connect 42 0 43 1;
#X connect 43 0 59 0;
#X connect 44 0 45 1;
#X connect 45 0 60 0;
#X connect 46 0 47 1;
#X connect 47 0 61 0;
#X connect 48 0 49 1;
#X connect 49 0 62 0;
#X connect 50 0 52 0;
#X connect 50 0 103 0;
#X connect 51 0 52 1;
#X connect 52 0 63 0;
#X connect 53 0 58 0;
#X connect 54 0 58 0;
#X connect 55 0 58 0;
#X connect 56 0 58 0;
#X connect 57 0 58 0;
#X connect 59 0 64 0;
#X connect 60 0 64 0;
#X connect 61 0 64 0;
#X connect 62 0 64 0;
#X connect 63 0 64 0;
#X connect 65 0 12 0;
#X connect 66 0 65 0;
#X connect 67 0 66 2;
#X connect 68 0 66 1;
#X connect 69 0 68 0;
#X connect 70 0 69 0;
#X connect 71 0 69 0;
#X connect 72 0 69 0;
#X connect 73 0 28 0;
#X connect 73 0 30 0;
#X connect 74 0 32 0;
#X connect 74 0 96 0;
#X connect 75 0 34 0;
#X connect 75 0 97 0;
#X connect 76 0 36 0;
#X connect 76 0 98 0;
#X connect 77 0 41 0;
#X connect 77 0 43 0;
#X connect 78 0 45 0;
#X connect 78 0 100 0;
#X connect 79 0 47 0;
#X connect 79 0 101 0;
#X connect 80 0 49 0;
#X connect 80 0 102 0;
#X connect 82 0 81 0;
#X connect 83 0 84 0;
#X connect 86 0 85 0;
#X connect 88 0 87 0;
#X connect 95 0 19 0;
#X connect 96 0 31 0;
#X connect 97 0 33 0;
#X connect 98 0 35 0;
#X connect 99 0 38 0;
#X connect 100 0 44 0;
#X connect 101 0 46 0;
#X connect 102 0 48 0;
#X connect 103 0 51 0;
