#N canvas 683 150 705 576 10;
#X obj 185 314 dac~;
#X obj 185 6 poly 4 1;
#X obj 185 29 pack f f f;
#X obj 185 53 route 1 2 3 4;
#X obj 185 -16 notein;
#N canvas 88 22 1442 1002 osc_1-8_A 0;
#X obj 29 160 osc~;
#X floatatom 156 156 5 0 0 0 - - -;
#X obj 112 206 line~;
#X msg 112 185 \$1 200;
#X obj 112 155 / 200;
#N canvas 442 469 450 300 seed_minimo 0;
#X obj 28 97 *;
#X obj 58 48 inlet minimo;
#X obj 28 118 outlet seed_result;
#X obj 28 26 inlet cc_seed;
#X obj 43 75 >=;
#X connect 0 0 2 0;
#X connect 1 0 4 1;
#X connect 3 0 0 0;
#X connect 3 0 4 0;
#X connect 4 0 0 1;
#X restore 179 99 pd seed_minimo;
#X floatatom 260 76 5 0 127 0 - - -;
#X floatatom 44 118 5 0 24 0 - - -;
#X obj 29 140 *;
#X obj 64 63 r loadbang;
#X obj 260 33 r loadbang;
#X obj 349 160 osc~;
#X floatatom 476 156 5 0 0 0 - - -;
#X obj 432 206 line~;
#X msg 432 185 \$1 200;
#X obj 432 155 / 200;
#N canvas 442 469 450 300 seed_minimo 0;
#X obj 28 97 *;
#X obj 58 48 inlet minimo;
#X obj 28 118 outlet seed_result;
#X obj 28 26 inlet cc_seed;
#X obj 43 75 >=;
#X connect 0 0 2 0;
#X connect 1 0 4 1;
#X connect 3 0 0 0;
#X connect 3 0 4 0;
#X connect 4 0 0 1;
#X restore 499 99 pd seed_minimo;
#X floatatom 580 76 5 0 127 0 - - -;
#X floatatom 364 118 5 0 24 0 - - -;
#X obj 349 140 *;
#X obj 384 63 r loadbang;
#X obj 580 33 r loadbang;
#X obj 663 160 osc~;
#X floatatom 790 156 5 0 0 0 - - -;
#X obj 746 206 line~;
#X msg 746 185 \$1 200;
#X obj 746 155 / 200;
#N canvas 442 469 450 300 seed_minimo 0;
#X obj 28 97 *;
#X obj 58 48 inlet minimo;
#X obj 28 118 outlet seed_result;
#X obj 28 26 inlet cc_seed;
#X obj 43 75 >=;
#X connect 0 0 2 0;
#X connect 1 0 4 1;
#X connect 3 0 0 0;
#X connect 3 0 4 0;
#X connect 4 0 0 1;
#X restore 813 99 pd seed_minimo;
#X floatatom 894 76 5 0 127 0 - - -;
#X floatatom 678 118 5 0 24 0 - - -;
#X obj 663 140 *;
#X obj 698 63 r loadbang;
#X obj 894 33 r loadbang;
#X obj 973 160 osc~;
#X floatatom 1100 156 5 0 0 0 - - -;
#X obj 1056 206 line~;
#X msg 1056 185 \$1 200;
#X obj 1056 155 / 200;
#N canvas 442 469 450 300 seed_minimo 0;
#X obj 28 97 *;
#X obj 58 48 inlet minimo;
#X obj 28 118 outlet seed_result;
#X obj 28 26 inlet cc_seed;
#X obj 43 75 >=;
#X connect 0 0 2 0;
#X connect 1 0 4 1;
#X connect 3 0 0 0;
#X connect 3 0 4 0;
#X connect 4 0 0 1;
#X restore 1123 99 pd seed_minimo;
#X floatatom 1204 76 5 0 127 0 - - -;
#X floatatom 988 118 5 0 24 0 - - -;
#X obj 973 140 *;
#X obj 1008 63 r loadbang;
#X obj 1204 33 r loadbang;
#X msg 44 94 1;
#X obj 29 540 osc~;
#X floatatom 156 536 5 0 0 0 - - -;
#X obj 112 586 line~;
#N canvas 442 469 450 300 seed_minimo 0;
#X obj 28 97 *;
#X obj 58 48 inlet minimo;
#X obj 28 118 outlet seed_result;
#X obj 28 26 inlet cc_seed;
#X obj 43 75 >=;
#X connect 0 0 2 0;
#X connect 1 0 4 1;
#X connect 3 0 0 0;
#X connect 3 0 4 0;
#X connect 4 0 0 1;
#X restore 179 479 pd seed_minimo;
#X floatatom 260 456 5 0 127 0 - - -;
#X floatatom 44 498 5 0 24 0 - - -;
#X obj 29 520 *;
#X obj 64 443 r loadbang;
#X obj 260 413 r loadbang;
#X obj 349 540 osc~;
#X floatatom 476 536 5 0 0 0 - - -;
#X obj 432 586 line~;
#N canvas 841 693 450 300 seed_minimo 0;
#X obj 28 97 *;
#X obj 58 48 inlet minimo;
#X obj 28 118 outlet seed_result;
#X obj 28 26 inlet cc_seed;
#X obj 43 75 >=;
#X connect 0 0 2 0;
#X connect 1 0 4 1;
#X connect 3 0 0 0;
#X connect 3 0 4 0;
#X connect 4 0 0 1;
#X restore 493 479 pd seed_minimo;
#X floatatom 574 456 5 0 127 0 - - -;
#X floatatom 364 498 5 0 24 0 - - -;
#X obj 349 520 *;
#X obj 384 443 r loadbang;
#X obj 574 413 r loadbang;
#X obj 659 540 osc~;
#X floatatom 786 536 5 0 0 0 - - -;
#X obj 742 586 line~;
#N canvas 442 469 450 300 seed_minimo 0;
#X obj 28 97 *;
#X obj 58 48 inlet minimo;
#X obj 28 118 outlet seed_result;
#X obj 28 26 inlet cc_seed;
#X obj 43 75 >=;
#X connect 0 0 2 0;
#X connect 1 0 4 1;
#X connect 3 0 0 0;
#X connect 3 0 4 0;
#X connect 4 0 0 1;
#X restore 809 479 pd seed_minimo;
#X floatatom 890 456 5 0 127 0 - - -;
#X floatatom 674 498 5 0 24 0 - - -;
#X obj 659 520 *;
#X obj 694 443 r loadbang;
#X obj 890 413 r loadbang;
#X obj 973 540 osc~;
#X floatatom 1100 536 5 0 0 0 - - -;
#X obj 1056 586 line~;
#N canvas 442 469 450 300 seed_minimo 0;
#X obj 28 97 *;
#X obj 58 48 inlet minimo;
#X obj 28 118 outlet seed_result;
#X obj 28 26 inlet cc_seed;
#X obj 43 75 >=;
#X connect 0 0 2 0;
#X connect 1 0 4 1;
#X connect 3 0 0 0;
#X connect 3 0 4 0;
#X connect 4 0 0 1;
#X restore 1117 479 pd seed_minimo;
#X floatatom 1198 456 5 0 127 0 - - -;
#X floatatom 988 498 5 0 24 0 - - -;
#X obj 973 520 *;
#X obj 1008 443 r loadbang;
#X obj 1198 413 r loadbang;
#X msg 260 54 0;
#X msg 580 54 15;
#X msg 894 54 30;
#X msg 1204 54 45;
#X msg 260 434 60;
#X msg 574 434 75;
#X msg 890 434 90;
#X msg 1198 434 105;
#X obj 29 220 *~;
#X obj 349 220 *~;
#X obj 663 220 *~;
#X obj 973 220 *~;
#X obj 973 600 *~;
#X obj 659 600 *~;
#X obj 349 600 *~;
#X obj 29 600 *~;
#X obj 112 125 random 100;
#X obj 432 125 random 100;
#X obj 746 125 random 100;
#X obj 1056 125 random 100;
#X obj 112 505 random 100;
#X obj 742 505 random 100;
#X msg 1056 565 \$1 800;
#X obj 432 505 random 75;
#X obj 1056 505 random 75;
#X obj 112 535 / 200;
#X msg 112 565 \$1 400;
#X obj 432 536 / 200;
#X msg 432 565 \$1 600;
#X obj 742 535 / 200;
#X msg 742 565 \$1 400;
#X obj 1056 535 / 200;
#X obj 28 -40 mtof;
#X obj 102 -60 / 127;
#X obj 28 -62 +;
#X obj 106 -131 / 5.291;
#X obj 106 -110 - 12;
#X obj 182 -152 r loadbang;
#X msg 182 -131 0;
#X obj 106 -89 i;
#X text 9 -153 transpose +/-12;
#X obj 28 -101 unpack f f;
#X obj 15 -131 inlet midi_in;
#X obj 29 309 *~;
#X obj 28 -19 s note_A;
#X obj 102 -39 s velocity_A;
#X obj 29 44 r note_A;
#X obj 349 44 r note_A;
#X obj 663 44 r note_A;
#X obj 973 44 r note_A;
#X obj 29 424 r note_A;
#X obj 349 424 r note_A;
#X obj 659 424 r note_A;
#X obj 973 424 r note_A;
#X obj 29 331 outlet~ out_L;
#X obj 29 692 *~;
#X obj 29 714 outlet~ out_R;
#N canvas 626 22 602 1002 adsr_envelope_A 0;
#X obj 184 260 timer;
#X obj 253 250 +;
#X obj 253 221 f;
#X obj 184 195 t b b;
#X obj 184 333 >= 0;
#X obj 184 308 t f f;
#X obj 184 446 f;
#X msg 184 479 0 \$1;
#X obj 265 422 f;
#X obj 265 443 pack f f f;
#X obj 184 532 vline~;
#X obj 184 352 sel 0 1;
#X msg 265 472 \$1 \$2 \, 0 \$3 \$2;
#X obj 184 285 expr $f2-$f1;
#X obj 293 323 min;
#X obj 293 344 min;
#X text 11 280 [attack \, decay \, sustain];
#X text 180 114 [release];
#X obj 42 445 pack f f f f f;
#X msg 42 470 \$1 \$2 \, \$3 \$4 \$5;
#X obj 82 379 *;
#X obj 42 353 t f f;
#X obj 358 392 *;
#X obj 184 552 outlet~;
#X obj 184 174 sel 1 0;
#X obj 184 153 > 0;
#X obj 15 324 sel 0;
#X obj 62 423 r attack;
#X obj 97 353 r sustain;
#X obj 102 401 r decay;
#X obj 123 423 r attack;
#X obj 268 202 r attack;
#X obj 278 221 r decay;
#X obj 308 302 r decay;
#X obj 321 324 r release;
#X obj 381 366 r sustain;
#X obj 199 419 r release;
#X obj 322 421 r release;
#X obj 184 132 r velocity_A;
#X obj 15 300 r velocity_A;
#X obj 358 345 r velocity_A;
#X connect 0 0 13 0;
#X connect 1 0 13 1;
#X connect 2 0 1 0;
#X connect 3 0 0 0;
#X connect 3 1 2 0;
#X connect 4 0 11 0;
#X connect 5 0 4 0;
#X connect 5 1 14 0;
#X connect 6 0 7 0;
#X connect 7 0 10 0;
#X connect 8 0 9 0;
#X connect 9 0 12 0;
#X connect 10 0 23 0;
#X connect 11 0 6 0;
#X connect 11 1 8 0;
#X connect 12 0 10 0;
#X connect 13 0 5 0;
#X connect 14 0 15 0;
#X connect 15 0 9 1;
#X connect 18 0 19 0;
#X connect 19 0 10 0;
#X connect 20 0 18 2;
#X connect 21 0 18 0;
#X connect 21 1 20 0;
#X connect 22 0 8 1;
#X connect 24 0 3 0;
#X connect 24 1 0 1;
#X connect 25 0 24 0;
#X connect 26 1 21 0;
#X connect 27 0 18 1;
#X connect 28 0 20 1;
#X connect 29 0 18 3;
#X connect 30 0 18 4;
#X connect 31 0 2 1;
#X connect 32 0 1 1;
#X connect 33 0 14 1;
#X connect 34 0 15 1;
#X connect 35 0 22 1;
#X connect 36 0 6 1;
#X connect 37 0 9 2;
#X connect 38 0 25 0;
#X connect 39 0 26 0;
#X connect 40 0 22 0;
#X restore 74 678 pd adsr_envelope_A;
#N canvas 626 22 602 1002 adsr_envelope_A 0;
#X obj 184 260 timer;
#X obj 253 250 +;
#X obj 253 221 f;
#X obj 184 195 t b b;
#X obj 184 333 >= 0;
#X obj 184 308 t f f;
#X obj 184 446 f;
#X msg 184 479 0 \$1;
#X obj 265 422 f;
#X obj 265 443 pack f f f;
#X obj 184 532 vline~;
#X obj 184 352 sel 0 1;
#X msg 265 472 \$1 \$2 \, 0 \$3 \$2;
#X obj 184 285 expr $f2-$f1;
#X obj 293 323 min;
#X obj 293 344 min;
#X text 11 280 [attack \, decay \, sustain];
#X text 180 114 [release];
#X obj 42 445 pack f f f f f;
#X msg 42 470 \$1 \$2 \, \$3 \$4 \$5;
#X obj 82 379 *;
#X obj 42 353 t f f;
#X obj 358 392 *;
#X obj 184 552 outlet~;
#X obj 184 174 sel 1 0;
#X obj 184 153 > 0;
#X obj 15 324 sel 0;
#X obj 62 423 r attack;
#X obj 97 353 r sustain;
#X obj 102 401 r decay;
#X obj 123 423 r attack;
#X obj 268 202 r attack;
#X obj 278 221 r decay;
#X obj 308 302 r decay;
#X obj 321 324 r release;
#X obj 381 366 r sustain;
#X obj 199 419 r release;
#X obj 322 421 r release;
#X obj 184 132 r velocity_A;
#X obj 15 300 r velocity_A;
#X obj 358 345 r velocity_A;
#X connect 0 0 13 0;
#X connect 1 0 13 1;
#X connect 2 0 1 0;
#X connect 3 0 0 0;
#X connect 3 1 2 0;
#X connect 4 0 11 0;
#X connect 5 0 4 0;
#X connect 5 1 14 0;
#X connect 6 0 7 0;
#X connect 7 0 10 0;
#X connect 8 0 9 0;
#X connect 9 0 12 0;
#X connect 10 0 23 0;
#X connect 11 0 6 0;
#X connect 11 1 8 0;
#X connect 12 0 10 0;
#X connect 13 0 5 0;
#X connect 14 0 15 0;
#X connect 15 0 9 1;
#X connect 18 0 19 0;
#X connect 19 0 10 0;
#X connect 20 0 18 2;
#X connect 21 0 18 0;
#X connect 21 1 20 0;
#X connect 22 0 8 1;
#X connect 24 0 3 0;
#X connect 24 1 0 1;
#X connect 25 0 24 0;
#X connect 26 1 21 0;
#X connect 27 0 18 1;
#X connect 28 0 20 1;
#X connect 29 0 18 3;
#X connect 30 0 18 4;
#X connect 31 0 2 1;
#X connect 32 0 1 1;
#X connect 33 0 14 1;
#X connect 34 0 15 1;
#X connect 35 0 22 1;
#X connect 36 0 6 1;
#X connect 37 0 9 2;
#X connect 38 0 25 0;
#X connect 39 0 26 0;
#X connect 40 0 22 0;
#X restore 73 295 pd adsr_envelope_A;
#X msg 364 94 1.0068;
#X msg 678 94 0.9454;
#X msg 988 94 1.0409;
#X msg 44 474 0.975;
#X msg 674 474 0.9886;
#X msg 364 474 1.0614;
#X msg 988 474 1.0841;
#X obj 29 244 +~;
#X obj 29 265 +~;
#X obj 29 286 +~;
#X obj 29 621 +~;
#X obj 29 642 +~;
#X obj 29 663 +~;
#X obj 112 94 r bng_lfo;
#X obj 179 76 r seed_lfo;
#X obj 432 94 r bng_lfo;
#X obj 499 76 r seed_lfo;
#X obj 746 94 r bng_lfo;
#X obj 813 76 r seed_lfo;
#X obj 1123 76 r seed_lfo;
#X obj 1056 94 r bng_lfo;
#X obj 112 474 r bng_lfo;
#X obj 179 456 r seed_lfo;
#X obj 432 474 r bng_lfo;
#X obj 493 456 r seed_lfo;
#X obj 742 474 r bng_lfo;
#X obj 809 456 r seed_lfo;
#X obj 1056 474 r bng_lfo;
#X obj 1117 456 r seed_lfo;
#X obj 106 -152 r transpose;
#X connect 0 0 89 0;
#X connect 2 0 89 1;
#X connect 3 0 2 0;
#X connect 4 0 3 0;
#X connect 5 0 97 1;
#X connect 6 0 5 1;
#X connect 7 0 8 1;
#X connect 8 0 0 0;
#X connect 9 0 44 0;
#X connect 9 0 97 0;
#X connect 10 0 81 0;
#X connect 11 0 90 0;
#X connect 13 0 90 1;
#X connect 14 0 13 0;
#X connect 15 0 14 0;
#X connect 16 0 98 1;
#X connect 17 0 16 1;
#X connect 18 0 19 1;
#X connect 19 0 11 0;
#X connect 20 0 140 0;
#X connect 20 0 98 0;
#X connect 21 0 82 0;
#X connect 22 0 91 0;
#X connect 24 0 91 1;
#X connect 25 0 24 0;
#X connect 26 0 25 0;
#X connect 27 0 99 1;
#X connect 28 0 27 1;
#X connect 29 0 30 1;
#X connect 30 0 22 0;
#X connect 31 0 141 0;
#X connect 31 0 99 0;
#X connect 32 0 83 0;
#X connect 33 0 92 0;
#X connect 35 0 92 1;
#X connect 36 0 35 0;
#X connect 37 0 36 0;
#X connect 38 0 100 1;
#X connect 39 0 38 1;
#X connect 40 0 41 1;
#X connect 41 0 33 0;
#X connect 42 0 142 0;
#X connect 42 0 100 0;
#X connect 43 0 84 0;
#X connect 44 0 7 0;
#X connect 45 0 96 0;
#X connect 47 0 96 1;
#X connect 48 0 101 1;
#X connect 49 0 48 1;
#X connect 50 0 51 1;
#X connect 51 0 45 0;
#X connect 52 0 101 0;
#X connect 52 0 143 0;
#X connect 53 0 85 0;
#X connect 54 0 95 0;
#X connect 56 0 95 1;
#X connect 57 0 104 1;
#X connect 58 0 57 1;
#X connect 59 0 60 1;
#X connect 60 0 54 0;
#X connect 61 0 145 0;
#X connect 61 0 104 0;
#X connect 62 0 86 0;
#X connect 63 0 94 0;
#X connect 65 0 94 1;
#X connect 66 0 102 1;
#X connect 67 0 66 1;
#X connect 68 0 69 1;
#X connect 69 0 63 0;
#X connect 70 0 102 0;
#X connect 70 0 144 0;
#X connect 71 0 87 0;
#X connect 72 0 93 0;
#X connect 74 0 93 1;
#X connect 75 0 105 1;
#X connect 76 0 75 1;
#X connect 77 0 78 1;
#X connect 78 0 72 0;
#X connect 79 0 146 0;
#X connect 79 0 105 0;
#X connect 80 0 88 0;
#X connect 81 0 6 0;
#X connect 82 0 17 0;
#X connect 83 0 28 0;
#X connect 84 0 39 0;
#X connect 85 0 49 0;
#X connect 86 0 58 0;
#X connect 87 0 67 0;
#X connect 88 0 76 0;
#X connect 89 0 147 0;
#X connect 90 0 147 1;
#X connect 91 0 148 1;
#X connect 92 0 149 1;
#X connect 93 0 152 1;
#X connect 94 0 151 1;
#X connect 95 0 150 1;
#X connect 96 0 150 0;
#X connect 97 0 1 0;
#X connect 97 0 4 0;
#X connect 98 0 12 0;
#X connect 98 0 15 0;
#X connect 99 0 23 0;
#X connect 99 0 26 0;
#X connect 100 0 34 0;
#X connect 100 0 37 0;
#X connect 101 0 46 0;
#X connect 101 0 106 0;
#X connect 102 0 64 0;
#X connect 102 0 110 0;
#X connect 103 0 74 0;
#X connect 104 0 55 0;
#X connect 104 0 108 0;
#X connect 105 0 73 0;
#X connect 105 0 112 0;
#X connect 106 0 107 0;
#X connect 107 0 47 0;
#X connect 108 0 109 0;
#X connect 109 0 56 0;
#X connect 110 0 111 0;
#X connect 111 0 65 0;
#X connect 112 0 103 0;
#X connect 113 0 125 0;
#X connect 114 0 126 0;
#X connect 115 0 113 0;
#X connect 116 0 117 0;
#X connect 117 0 120 0;
#X connect 118 0 119 0;
#X connect 119 0 120 0;
#X connect 120 0 115 1;
#X connect 122 0 115 0;
#X connect 122 1 114 0;
#X connect 123 0 122 0;
#X connect 124 0 135 0;
#X connect 127 0 8 0;
#X connect 128 0 19 0;
#X connect 129 0 30 0;
#X connect 130 0 41 0;
#X connect 131 0 51 0;
#X connect 132 0 60 0;
#X connect 133 0 69 0;
#X connect 134 0 78 0;
#X connect 136 0 137 0;
#X connect 138 0 136 1;
#X connect 139 0 124 1;
#X connect 140 0 18 0;
#X connect 141 0 29 0;
#X connect 142 0 40 0;
#X connect 143 0 50 0;
#X connect 144 0 68 0;
#X connect 145 0 59 0;
#X connect 146 0 77 0;
#X connect 147 0 148 0;
#X connect 148 0 149 0;
#X connect 149 0 124 0;
#X connect 150 0 151 0;
#X connect 151 0 152 0;
#X connect 152 0 136 0;
#X connect 153 0 97 0;
#X connect 154 0 5 0;
#X connect 155 0 98 0;
#X connect 156 0 16 0;
#X connect 157 0 99 0;
#X connect 158 0 27 0;
#X connect 159 0 38 0;
#X connect 160 0 100 0;
#X connect 161 0 101 0;
#X connect 162 0 48 0;
#X connect 163 0 104 0;
#X connect 164 0 57 0;
#X connect 165 0 102 0;
#X connect 166 0 66 0;
#X connect 167 0 105 0;
#X connect 168 0 75 0;
#X connect 169 0 116 0;
#X restore 185 141 pd osc_1-8_A;
#N canvas 112 22 1442 1002 osc_1-8_B 0;
#X obj 29 160 osc~;
#X floatatom 156 156 5 0 0 0 - - -;
#X obj 112 206 line~;
#X msg 112 185 \$1 200;
#X obj 112 155 / 200;
#N canvas 442 469 450 300 seed_minimo 0;
#X obj 28 97 *;
#X obj 58 48 inlet minimo;
#X obj 28 118 outlet seed_result;
#X obj 28 26 inlet cc_seed;
#X obj 43 75 >=;
#X connect 0 0 2 0;
#X connect 1 0 4 1;
#X connect 3 0 0 0;
#X connect 3 0 4 0;
#X connect 4 0 0 1;
#X restore 179 99 pd seed_minimo;
#X floatatom 260 76 5 0 127 0 - - -;
#X floatatom 44 118 5 0 24 0 - - -;
#X obj 29 140 *;
#X obj 64 63 r loadbang;
#X obj 260 33 r loadbang;
#X obj 349 160 osc~;
#X floatatom 476 156 5 0 0 0 - - -;
#X obj 432 206 line~;
#X msg 432 185 \$1 200;
#X obj 432 155 / 200;
#N canvas 442 469 450 300 seed_minimo 0;
#X obj 28 97 *;
#X obj 58 48 inlet minimo;
#X obj 28 118 outlet seed_result;
#X obj 28 26 inlet cc_seed;
#X obj 43 75 >=;
#X connect 0 0 2 0;
#X connect 1 0 4 1;
#X connect 3 0 0 0;
#X connect 3 0 4 0;
#X connect 4 0 0 1;
#X restore 499 99 pd seed_minimo;
#X floatatom 580 76 5 0 127 0 - - -;
#X floatatom 364 118 5 0 24 0 - - -;
#X obj 349 140 *;
#X obj 384 63 r loadbang;
#X obj 580 33 r loadbang;
#X obj 663 160 osc~;
#X floatatom 790 156 5 0 0 0 - - -;
#X obj 746 206 line~;
#X msg 746 185 \$1 200;
#X obj 746 155 / 200;
#N canvas 442 469 450 300 seed_minimo 0;
#X obj 28 97 *;
#X obj 58 48 inlet minimo;
#X obj 28 118 outlet seed_result;
#X obj 28 26 inlet cc_seed;
#X obj 43 75 >=;
#X connect 0 0 2 0;
#X connect 1 0 4 1;
#X connect 3 0 0 0;
#X connect 3 0 4 0;
#X connect 4 0 0 1;
#X restore 813 99 pd seed_minimo;
#X floatatom 894 76 5 0 127 0 - - -;
#X floatatom 678 118 5 0 24 0 - - -;
#X obj 663 140 *;
#X obj 698 63 r loadbang;
#X obj 894 33 r loadbang;
#X obj 973 160 osc~;
#X floatatom 1100 156 5 0 0 0 - - -;
#X obj 1056 206 line~;
#X msg 1056 185 \$1 200;
#X obj 1056 155 / 200;
#N canvas 442 469 450 300 seed_minimo 0;
#X obj 28 97 *;
#X obj 58 48 inlet minimo;
#X obj 28 118 outlet seed_result;
#X obj 28 26 inlet cc_seed;
#X obj 43 75 >=;
#X connect 0 0 2 0;
#X connect 1 0 4 1;
#X connect 3 0 0 0;
#X connect 3 0 4 0;
#X connect 4 0 0 1;
#X restore 1123 99 pd seed_minimo;
#X floatatom 1204 76 5 0 127 0 - - -;
#X floatatom 988 118 5 0 24 0 - - -;
#X obj 973 140 *;
#X obj 1008 63 r loadbang;
#X obj 1204 33 r loadbang;
#X msg 44 94 1;
#X obj 29 540 osc~;
#X floatatom 156 536 5 0 0 0 - - -;
#X obj 112 586 line~;
#N canvas 442 469 450 300 seed_minimo 0;
#X obj 28 97 *;
#X obj 58 48 inlet minimo;
#X obj 28 118 outlet seed_result;
#X obj 28 26 inlet cc_seed;
#X obj 43 75 >=;
#X connect 0 0 2 0;
#X connect 1 0 4 1;
#X connect 3 0 0 0;
#X connect 3 0 4 0;
#X connect 4 0 0 1;
#X restore 179 479 pd seed_minimo;
#X floatatom 260 456 5 0 127 0 - - -;
#X floatatom 44 498 5 0 24 0 - - -;
#X obj 29 520 *;
#X obj 64 443 r loadbang;
#X obj 260 413 r loadbang;
#X obj 349 540 osc~;
#X floatatom 476 536 5 0 0 0 - - -;
#X obj 432 586 line~;
#N canvas 841 693 450 300 seed_minimo 0;
#X obj 28 97 *;
#X obj 58 48 inlet minimo;
#X obj 28 118 outlet seed_result;
#X obj 28 26 inlet cc_seed;
#X obj 43 75 >=;
#X connect 0 0 2 0;
#X connect 1 0 4 1;
#X connect 3 0 0 0;
#X connect 3 0 4 0;
#X connect 4 0 0 1;
#X restore 493 479 pd seed_minimo;
#X floatatom 574 456 5 0 127 0 - - -;
#X floatatom 364 498 5 0 24 0 - - -;
#X obj 349 520 *;
#X obj 384 443 r loadbang;
#X obj 574 413 r loadbang;
#X obj 659 540 osc~;
#X floatatom 786 536 5 0 0 0 - - -;
#X obj 742 586 line~;
#N canvas 442 469 450 300 seed_minimo 0;
#X obj 28 97 *;
#X obj 58 48 inlet minimo;
#X obj 28 118 outlet seed_result;
#X obj 28 26 inlet cc_seed;
#X obj 43 75 >=;
#X connect 0 0 2 0;
#X connect 1 0 4 1;
#X connect 3 0 0 0;
#X connect 3 0 4 0;
#X connect 4 0 0 1;
#X restore 809 479 pd seed_minimo;
#X floatatom 890 456 5 0 127 0 - - -;
#X floatatom 674 498 5 0 24 0 - - -;
#X obj 659 520 *;
#X obj 694 443 r loadbang;
#X obj 890 413 r loadbang;
#X obj 973 540 osc~;
#X floatatom 1100 536 5 0 0 0 - - -;
#X obj 1056 586 line~;
#N canvas 442 469 450 300 seed_minimo 0;
#X obj 28 97 *;
#X obj 58 48 inlet minimo;
#X obj 28 118 outlet seed_result;
#X obj 28 26 inlet cc_seed;
#X obj 43 75 >=;
#X connect 0 0 2 0;
#X connect 1 0 4 1;
#X connect 3 0 0 0;
#X connect 3 0 4 0;
#X connect 4 0 0 1;
#X restore 1117 479 pd seed_minimo;
#X floatatom 1198 456 5 0 127 0 - - -;
#X floatatom 988 498 5 0 24 0 - - -;
#X obj 973 520 *;
#X obj 1008 443 r loadbang;
#X obj 1198 413 r loadbang;
#X msg 260 54 0;
#X msg 580 54 15;
#X msg 894 54 30;
#X msg 1204 54 45;
#X msg 260 434 60;
#X msg 574 434 75;
#X msg 890 434 90;
#X msg 1198 434 105;
#X obj 29 220 *~;
#X obj 349 220 *~;
#X obj 663 220 *~;
#X obj 973 220 *~;
#X obj 973 600 *~;
#X obj 659 600 *~;
#X obj 349 600 *~;
#X obj 29 600 *~;
#X obj 112 125 random 100;
#X obj 432 125 random 100;
#X obj 746 125 random 100;
#X obj 1056 125 random 100;
#X obj 112 505 random 100;
#X obj 742 505 random 100;
#X msg 1056 565 \$1 800;
#X obj 432 505 random 75;
#X obj 1056 505 random 75;
#X obj 112 535 / 200;
#X msg 112 565 \$1 400;
#X obj 432 536 / 200;
#X msg 432 565 \$1 600;
#X obj 742 535 / 200;
#X msg 742 565 \$1 400;
#X obj 1056 535 / 200;
#X obj 28 -40 mtof;
#X obj 102 -60 / 127;
#X obj 28 -62 +;
#X obj 106 -131 / 5.291;
#X obj 106 -110 - 12;
#X obj 182 -152 r loadbang;
#X msg 182 -131 0;
#X obj 106 -89 i;
#X text 9 -153 transpose +/-12;
#X obj 28 -101 unpack f f;
#X obj 15 -131 inlet midi_in;
#X obj 29 309 *~;
#X obj 29 331 outlet~ out_L;
#X obj 29 692 *~;
#X obj 29 714 outlet~ out_R;
#X msg 364 94 1.0068;
#X msg 678 94 0.9454;
#X msg 988 94 1.0409;
#X msg 44 474 0.975;
#X msg 674 474 0.9886;
#X msg 364 474 1.0614;
#X msg 988 474 1.0841;
#X obj 29 244 +~;
#X obj 29 265 +~;
#X obj 29 286 +~;
#X obj 102 -39 s velocity_B;
#N canvas 626 22 602 1002 adsr_envelope_B 0;
#X obj 184 260 timer;
#X obj 253 250 +;
#X obj 253 221 f;
#X obj 184 195 t b b;
#X obj 184 333 >= 0;
#X obj 184 308 t f f;
#X obj 184 446 f;
#X msg 184 479 0 \$1;
#X obj 265 422 f;
#X obj 265 443 pack f f f;
#X obj 184 532 vline~;
#X obj 184 352 sel 0 1;
#X msg 265 472 \$1 \$2 \, 0 \$3 \$2;
#X obj 184 285 expr $f2-$f1;
#X obj 293 323 min;
#X obj 293 344 min;
#X text 11 280 [attack \, decay \, sustain];
#X text 180 114 [release];
#X obj 42 445 pack f f f f f;
#X msg 42 470 \$1 \$2 \, \$3 \$4 \$5;
#X obj 82 379 *;
#X obj 42 353 t f f;
#X obj 358 392 *;
#X obj 184 552 outlet~;
#X obj 184 174 sel 1 0;
#X obj 184 153 > 0;
#X obj 15 324 sel 0;
#X obj 62 423 r attack;
#X obj 97 353 r sustain;
#X obj 102 401 r decay;
#X obj 123 423 r attack;
#X obj 268 202 r attack;
#X obj 278 221 r decay;
#X obj 308 302 r decay;
#X obj 321 324 r release;
#X obj 381 366 r sustain;
#X obj 199 419 r release;
#X obj 322 421 r release;
#X obj 184 132 r velocity_B;
#X obj 358 345 r velocity_B;
#X obj 15 300 r velocity_B;
#X connect 0 0 13 0;
#X connect 1 0 13 1;
#X connect 2 0 1 0;
#X connect 3 0 0 0;
#X connect 3 1 2 0;
#X connect 4 0 11 0;
#X connect 5 0 4 0;
#X connect 5 1 14 0;
#X connect 6 0 7 0;
#X connect 7 0 10 0;
#X connect 8 0 9 0;
#X connect 9 0 12 0;
#X connect 10 0 23 0;
#X connect 11 0 6 0;
#X connect 11 1 8 0;
#X connect 12 0 10 0;
#X connect 13 0 5 0;
#X connect 14 0 15 0;
#X connect 15 0 9 1;
#X connect 18 0 19 0;
#X connect 19 0 10 0;
#X connect 20 0 18 2;
#X connect 21 0 18 0;
#X connect 21 1 20 0;
#X connect 22 0 8 1;
#X connect 24 0 3 0;
#X connect 24 1 0 1;
#X connect 25 0 24 0;
#X connect 26 1 21 0;
#X connect 27 0 18 1;
#X connect 28 0 20 1;
#X connect 29 0 18 3;
#X connect 30 0 18 4;
#X connect 31 0 2 1;
#X connect 32 0 1 1;
#X connect 33 0 14 1;
#X connect 34 0 15 1;
#X connect 35 0 22 1;
#X connect 36 0 6 1;
#X connect 37 0 9 2;
#X connect 38 0 25 0;
#X connect 39 0 22 0;
#X connect 40 0 26 0;
#X restore 73 295 pd adsr_envelope_B;
#N canvas 626 22 602 1002 adsr_envelope_B 0;
#X obj 184 260 timer;
#X obj 253 250 +;
#X obj 253 221 f;
#X obj 184 195 t b b;
#X obj 184 333 >= 0;
#X obj 184 308 t f f;
#X obj 184 446 f;
#X msg 184 479 0 \$1;
#X obj 265 422 f;
#X obj 265 443 pack f f f;
#X obj 184 532 vline~;
#X obj 184 352 sel 0 1;
#X msg 265 472 \$1 \$2 \, 0 \$3 \$2;
#X obj 184 285 expr $f2-$f1;
#X obj 293 323 min;
#X obj 293 344 min;
#X text 11 280 [attack \, decay \, sustain];
#X text 180 114 [release];
#X obj 42 445 pack f f f f f;
#X msg 42 470 \$1 \$2 \, \$3 \$4 \$5;
#X obj 82 379 *;
#X obj 42 353 t f f;
#X obj 358 392 *;
#X obj 184 552 outlet~;
#X obj 184 174 sel 1 0;
#X obj 184 153 > 0;
#X obj 15 324 sel 0;
#X obj 62 423 r attack;
#X obj 97 353 r sustain;
#X obj 102 401 r decay;
#X obj 123 423 r attack;
#X obj 268 202 r attack;
#X obj 278 221 r decay;
#X obj 308 302 r decay;
#X obj 321 324 r release;
#X obj 381 366 r sustain;
#X obj 199 419 r release;
#X obj 322 421 r release;
#X obj 184 132 r velocity_A;
#X obj 15 300 r velocity_A;
#X obj 358 345 r velocity_A;
#X connect 0 0 13 0;
#X connect 1 0 13 1;
#X connect 2 0 1 0;
#X connect 3 0 0 0;
#X connect 3 1 2 0;
#X connect 4 0 11 0;
#X connect 5 0 4 0;
#X connect 5 1 14 0;
#X connect 6 0 7 0;
#X connect 7 0 10 0;
#X connect 8 0 9 0;
#X connect 9 0 12 0;
#X connect 10 0 23 0;
#X connect 11 0 6 0;
#X connect 11 1 8 0;
#X connect 12 0 10 0;
#X connect 13 0 5 0;
#X connect 14 0 15 0;
#X connect 15 0 9 1;
#X connect 18 0 19 0;
#X connect 19 0 10 0;
#X connect 20 0 18 2;
#X connect 21 0 18 0;
#X connect 21 1 20 0;
#X connect 22 0 8 1;
#X connect 24 0 3 0;
#X connect 24 1 0 1;
#X connect 25 0 24 0;
#X connect 26 1 21 0;
#X connect 27 0 18 1;
#X connect 28 0 20 1;
#X connect 29 0 18 3;
#X connect 30 0 18 4;
#X connect 31 0 2 1;
#X connect 32 0 1 1;
#X connect 33 0 14 1;
#X connect 34 0 15 1;
#X connect 35 0 22 1;
#X connect 36 0 6 1;
#X connect 37 0 9 2;
#X connect 38 0 25 0;
#X connect 39 0 26 0;
#X connect 40 0 22 0;
#X restore 74 678 pd adsr_envelope_B;
#X obj 28 -19 s note_B;
#X obj 29 44 r note_B;
#X obj 349 44 r note_B;
#X obj 663 44 r note_B;
#X obj 973 44 r note_B;
#X obj 29 424 r note_B;
#X obj 349 424 r note_B;
#X obj 659 424 r note_B;
#X obj 973 424 r note_B;
#X obj 29 621 +~;
#X obj 29 642 +~;
#X obj 29 663 +~;
#X obj 112 94 r bng_lfo;
#X obj 179 76 r seed_lfo;
#X obj 432 94 r bng_lfo;
#X obj 499 76 r seed_lfo;
#X obj 746 94 r bng_lfo;
#X obj 813 76 r seed_lfo;
#X obj 1056 94 r bng_lfo;
#X obj 1123 76 r seed_lfo;
#X obj 112 474 r bng_lfo;
#X obj 179 456 r seed_lfo;
#X obj 432 474 r bng_lfo;
#X obj 493 456 r seed_lfo;
#X obj 742 474 r bng_lfo;
#X obj 809 456 r seed_lfo;
#X obj 1056 474 r bng_lfo;
#X obj 1117 456 r seed_lfo;
#X obj 106 -152 r transpose;
#X connect 0 0 89 0;
#X connect 2 0 89 1;
#X connect 3 0 2 0;
#X connect 4 0 3 0;
#X connect 5 0 97 1;
#X connect 6 0 5 1;
#X connect 7 0 8 1;
#X connect 8 0 0 0;
#X connect 9 0 44 0;
#X connect 9 0 97 0;
#X connect 10 0 81 0;
#X connect 11 0 90 0;
#X connect 13 0 90 1;
#X connect 14 0 13 0;
#X connect 15 0 14 0;
#X connect 16 0 98 1;
#X connect 17 0 16 1;
#X connect 18 0 19 1;
#X connect 19 0 11 0;
#X connect 20 0 128 0;
#X connect 20 0 98 0;
#X connect 21 0 82 0;
#X connect 22 0 91 0;
#X connect 24 0 91 1;
#X connect 25 0 24 0;
#X connect 26 0 25 0;
#X connect 27 0 99 1;
#X connect 28 0 27 1;
#X connect 29 0 30 1;
#X connect 30 0 22 0;
#X connect 31 0 129 0;
#X connect 31 0 99 0;
#X connect 32 0 83 0;
#X connect 33 0 92 0;
#X connect 35 0 92 1;
#X connect 36 0 35 0;
#X connect 37 0 36 0;
#X connect 38 0 100 1;
#X connect 39 0 38 1;
#X connect 40 0 41 1;
#X connect 41 0 33 0;
#X connect 42 0 130 0;
#X connect 42 0 100 0;
#X connect 43 0 84 0;
#X connect 44 0 7 0;
#X connect 45 0 96 0;
#X connect 47 0 96 1;
#X connect 48 0 101 1;
#X connect 49 0 48 1;
#X connect 50 0 51 1;
#X connect 51 0 45 0;
#X connect 52 0 101 0;
#X connect 52 0 131 0;
#X connect 53 0 85 0;
#X connect 54 0 95 0;
#X connect 56 0 95 1;
#X connect 57 0 104 1;
#X connect 58 0 57 1;
#X connect 59 0 60 1;
#X connect 60 0 54 0;
#X connect 61 0 133 0;
#X connect 61 0 104 0;
#X connect 62 0 86 0;
#X connect 63 0 94 0;
#X connect 65 0 94 1;
#X connect 66 0 102 1;
#X connect 67 0 66 1;
#X connect 68 0 69 1;
#X connect 69 0 63 0;
#X connect 70 0 102 0;
#X connect 70 0 132 0;
#X connect 71 0 87 0;
#X connect 72 0 93 0;
#X connect 74 0 93 1;
#X connect 75 0 105 1;
#X connect 76 0 75 1;
#X connect 77 0 78 1;
#X connect 78 0 72 0;
#X connect 79 0 134 0;
#X connect 79 0 105 0;
#X connect 80 0 88 0;
#X connect 81 0 6 0;
#X connect 82 0 17 0;
#X connect 83 0 28 0;
#X connect 84 0 39 0;
#X connect 85 0 49 0;
#X connect 86 0 58 0;
#X connect 87 0 67 0;
#X connect 88 0 76 0;
#X connect 89 0 135 0;
#X connect 90 0 135 1;
#X connect 91 0 136 1;
#X connect 92 0 137 1;
#X connect 93 0 152 1;
#X connect 94 0 151 1;
#X connect 95 0 150 1;
#X connect 96 0 150 0;
#X connect 97 0 1 0;
#X connect 97 0 4 0;
#X connect 98 0 12 0;
#X connect 98 0 15 0;
#X connect 99 0 23 0;
#X connect 99 0 26 0;
#X connect 100 0 34 0;
#X connect 100 0 37 0;
#X connect 101 0 46 0;
#X connect 101 0 106 0;
#X connect 102 0 64 0;
#X connect 102 0 110 0;
#X connect 103 0 74 0;
#X connect 104 0 55 0;
#X connect 104 0 108 0;
#X connect 105 0 73 0;
#X connect 105 0 112 0;
#X connect 106 0 107 0;
#X connect 107 0 47 0;
#X connect 108 0 109 0;
#X connect 109 0 56 0;
#X connect 110 0 111 0;
#X connect 111 0 65 0;
#X connect 112 0 103 0;
#X connect 113 0 141 0;
#X connect 114 0 138 0;
#X connect 115 0 113 0;
#X connect 116 0 117 0;
#X connect 117 0 120 0;
#X connect 118 0 119 0;
#X connect 119 0 120 0;
#X connect 120 0 115 1;
#X connect 122 0 115 0;
#X connect 122 1 114 0;
#X connect 123 0 122 0;
#X connect 124 0 125 0;
#X connect 126 0 127 0;
#X connect 128 0 18 0;
#X connect 129 0 29 0;
#X connect 130 0 40 0;
#X connect 131 0 50 0;
#X connect 132 0 68 0;
#X connect 133 0 59 0;
#X connect 134 0 77 0;
#X connect 135 0 136 0;
#X connect 136 0 137 0;
#X connect 137 0 124 0;
#X connect 139 0 124 1;
#X connect 140 0 126 1;
#X connect 142 0 8 0;
#X connect 143 0 19 0;
#X connect 144 0 30 0;
#X connect 145 0 41 0;
#X connect 146 0 51 0;
#X connect 147 0 60 0;
#X connect 148 0 69 0;
#X connect 149 0 78 0;
#X connect 150 0 151 0;
#X connect 151 0 152 0;
#X connect 152 0 126 0;
#X connect 153 0 97 0;
#X connect 154 0 5 0;
#X connect 155 0 98 0;
#X connect 156 0 16 0;
#X connect 157 0 99 0;
#X connect 158 0 27 0;
#X connect 159 0 100 0;
#X connect 160 0 38 0;
#X connect 161 0 101 0;
#X connect 162 0 48 0;
#X connect 163 0 104 0;
#X connect 164 0 57 0;
#X connect 165 0 102 0;
#X connect 166 0 66 0;
#X connect 167 0 105 0;
#X connect 168 0 75 0;
#X connect 169 0 116 0;
#X restore 285 141 pd osc_1-8_B;
#N canvas 112 22 1442 1002 osc_1-8_C 0;
#X obj 29 160 osc~;
#X floatatom 156 156 5 0 0 0 - - -;
#X obj 112 206 line~;
#X msg 112 185 \$1 200;
#X obj 112 155 / 200;
#N canvas 442 469 450 300 seed_minimo 0;
#X obj 28 97 *;
#X obj 58 48 inlet minimo;
#X obj 28 118 outlet seed_result;
#X obj 28 26 inlet cc_seed;
#X obj 43 75 >=;
#X connect 0 0 2 0;
#X connect 1 0 4 1;
#X connect 3 0 0 0;
#X connect 3 0 4 0;
#X connect 4 0 0 1;
#X restore 179 99 pd seed_minimo;
#X floatatom 260 76 5 0 127 0 - - -;
#X floatatom 44 118 5 0 24 0 - - -;
#X obj 29 140 *;
#X obj 64 63 r loadbang;
#X obj 260 33 r loadbang;
#X obj 349 160 osc~;
#X floatatom 476 156 5 0 0 0 - - -;
#X obj 432 206 line~;
#X msg 432 185 \$1 200;
#X obj 432 155 / 200;
#N canvas 442 469 450 300 seed_minimo 0;
#X obj 28 97 *;
#X obj 58 48 inlet minimo;
#X obj 28 118 outlet seed_result;
#X obj 28 26 inlet cc_seed;
#X obj 43 75 >=;
#X connect 0 0 2 0;
#X connect 1 0 4 1;
#X connect 3 0 0 0;
#X connect 3 0 4 0;
#X connect 4 0 0 1;
#X restore 499 99 pd seed_minimo;
#X floatatom 580 76 5 0 127 0 - - -;
#X floatatom 364 118 5 0 24 0 - - -;
#X obj 349 140 *;
#X obj 384 63 r loadbang;
#X obj 580 33 r loadbang;
#X obj 663 160 osc~;
#X floatatom 790 156 5 0 0 0 - - -;
#X obj 746 206 line~;
#X msg 746 185 \$1 200;
#X obj 746 155 / 200;
#N canvas 442 469 450 300 seed_minimo 0;
#X obj 28 97 *;
#X obj 58 48 inlet minimo;
#X obj 28 118 outlet seed_result;
#X obj 28 26 inlet cc_seed;
#X obj 43 75 >=;
#X connect 0 0 2 0;
#X connect 1 0 4 1;
#X connect 3 0 0 0;
#X connect 3 0 4 0;
#X connect 4 0 0 1;
#X restore 813 99 pd seed_minimo;
#X floatatom 894 76 5 0 127 0 - - -;
#X floatatom 678 118 5 0 24 0 - - -;
#X obj 663 140 *;
#X obj 698 63 r loadbang;
#X obj 894 33 r loadbang;
#X obj 973 160 osc~;
#X floatatom 1100 156 5 0 0 0 - - -;
#X obj 1056 206 line~;
#X msg 1056 185 \$1 200;
#X obj 1056 155 / 200;
#N canvas 442 469 450 300 seed_minimo 0;
#X obj 28 97 *;
#X obj 58 48 inlet minimo;
#X obj 28 118 outlet seed_result;
#X obj 28 26 inlet cc_seed;
#X obj 43 75 >=;
#X connect 0 0 2 0;
#X connect 1 0 4 1;
#X connect 3 0 0 0;
#X connect 3 0 4 0;
#X connect 4 0 0 1;
#X restore 1123 99 pd seed_minimo;
#X floatatom 1204 76 5 0 127 0 - - -;
#X floatatom 988 118 5 0 24 0 - - -;
#X obj 973 140 *;
#X obj 1008 63 r loadbang;
#X obj 1204 33 r loadbang;
#X msg 44 94 1;
#X obj 29 540 osc~;
#X floatatom 156 536 5 0 0 0 - - -;
#X obj 112 586 line~;
#N canvas 442 469 450 300 seed_minimo 0;
#X obj 28 97 *;
#X obj 58 48 inlet minimo;
#X obj 28 118 outlet seed_result;
#X obj 28 26 inlet cc_seed;
#X obj 43 75 >=;
#X connect 0 0 2 0;
#X connect 1 0 4 1;
#X connect 3 0 0 0;
#X connect 3 0 4 0;
#X connect 4 0 0 1;
#X restore 179 479 pd seed_minimo;
#X floatatom 260 456 5 0 127 0 - - -;
#X floatatom 44 498 5 0 24 0 - - -;
#X obj 29 520 *;
#X obj 64 443 r loadbang;
#X obj 260 413 r loadbang;
#X obj 349 540 osc~;
#X floatatom 476 536 5 0 0 0 - - -;
#X obj 432 586 line~;
#N canvas 841 693 450 300 seed_minimo 0;
#X obj 28 97 *;
#X obj 58 48 inlet minimo;
#X obj 28 118 outlet seed_result;
#X obj 28 26 inlet cc_seed;
#X obj 43 75 >=;
#X connect 0 0 2 0;
#X connect 1 0 4 1;
#X connect 3 0 0 0;
#X connect 3 0 4 0;
#X connect 4 0 0 1;
#X restore 493 479 pd seed_minimo;
#X floatatom 574 456 5 0 127 0 - - -;
#X floatatom 364 498 5 0 24 0 - - -;
#X obj 349 520 *;
#X obj 384 443 r loadbang;
#X obj 574 413 r loadbang;
#X obj 659 540 osc~;
#X floatatom 786 536 5 0 0 0 - - -;
#X obj 742 586 line~;
#N canvas 442 469 450 300 seed_minimo 0;
#X obj 28 97 *;
#X obj 58 48 inlet minimo;
#X obj 28 118 outlet seed_result;
#X obj 28 26 inlet cc_seed;
#X obj 43 75 >=;
#X connect 0 0 2 0;
#X connect 1 0 4 1;
#X connect 3 0 0 0;
#X connect 3 0 4 0;
#X connect 4 0 0 1;
#X restore 809 479 pd seed_minimo;
#X floatatom 890 456 5 0 127 0 - - -;
#X floatatom 674 498 5 0 24 0 - - -;
#X obj 659 520 *;
#X obj 694 443 r loadbang;
#X obj 890 413 r loadbang;
#X obj 973 540 osc~;
#X floatatom 1100 536 5 0 0 0 - - -;
#X obj 1056 586 line~;
#N canvas 442 469 450 300 seed_minimo 0;
#X obj 28 97 *;
#X obj 58 48 inlet minimo;
#X obj 28 118 outlet seed_result;
#X obj 28 26 inlet cc_seed;
#X obj 43 75 >=;
#X connect 0 0 2 0;
#X connect 1 0 4 1;
#X connect 3 0 0 0;
#X connect 3 0 4 0;
#X connect 4 0 0 1;
#X restore 1117 479 pd seed_minimo;
#X floatatom 1198 456 5 0 127 0 - - -;
#X floatatom 988 498 5 0 24 0 - - -;
#X obj 973 520 *;
#X obj 1008 443 r loadbang;
#X obj 1198 413 r loadbang;
#X msg 260 54 0;
#X msg 580 54 15;
#X msg 894 54 30;
#X msg 1204 54 45;
#X msg 260 434 60;
#X msg 574 434 75;
#X msg 890 434 90;
#X msg 1198 434 105;
#X obj 29 220 *~;
#X obj 349 220 *~;
#X obj 663 220 *~;
#X obj 973 220 *~;
#X obj 973 600 *~;
#X obj 659 600 *~;
#X obj 349 600 *~;
#X obj 29 600 *~;
#X obj 112 125 random 100;
#X obj 432 125 random 100;
#X obj 746 125 random 100;
#X obj 1056 125 random 100;
#X obj 112 505 random 100;
#X obj 742 505 random 100;
#X msg 1056 565 \$1 800;
#X obj 432 505 random 75;
#X obj 1056 505 random 75;
#X obj 112 535 / 200;
#X msg 112 565 \$1 400;
#X obj 432 536 / 200;
#X msg 432 565 \$1 600;
#X obj 742 535 / 200;
#X msg 742 565 \$1 400;
#X obj 1056 535 / 200;
#X obj 28 -40 mtof;
#X obj 102 -60 / 127;
#X obj 28 -62 +;
#X obj 106 -131 / 5.291;
#X obj 106 -110 - 12;
#X obj 182 -152 r loadbang;
#X msg 182 -131 0;
#X obj 106 -89 i;
#X text 9 -153 transpose +/-12;
#X obj 28 -101 unpack f f;
#X obj 15 -131 inlet midi_in;
#X obj 29 309 *~;
#X obj 29 331 outlet~ out_L;
#X obj 29 692 *~;
#X obj 29 714 outlet~ out_R;
#X msg 364 94 1.0068;
#X msg 678 94 0.9454;
#X msg 988 94 1.0409;
#X msg 44 474 0.975;
#X msg 674 474 0.9886;
#X msg 364 474 1.0614;
#X msg 988 474 1.0841;
#X obj 29 244 +~;
#X obj 29 265 +~;
#X obj 29 286 +~;
#X obj 28 -19 s note_C;
#X obj 102 -39 s velocity_C;
#X obj 29 44 r note_C;
#X obj 349 44 r note_C;
#X obj 663 44 r note_C;
#X obj 973 44 r note_C;
#X obj 29 424 r note_C;
#X obj 349 424 r note_C;
#X obj 659 424 r note_C;
#X obj 973 424 r note_C;
#N canvas 626 22 602 1002 adsr_envelope_C 0;
#X obj 184 260 timer;
#X obj 253 250 +;
#X obj 253 221 f;
#X obj 184 195 t b b;
#X obj 184 333 >= 0;
#X obj 184 308 t f f;
#X obj 184 446 f;
#X msg 184 479 0 \$1;
#X obj 265 422 f;
#X obj 265 443 pack f f f;
#X obj 184 532 vline~;
#X obj 184 352 sel 0 1;
#X msg 265 472 \$1 \$2 \, 0 \$3 \$2;
#X obj 184 285 expr $f2-$f1;
#X obj 293 323 min;
#X obj 293 344 min;
#X text 11 280 [attack \, decay \, sustain];
#X text 180 114 [release];
#X obj 42 445 pack f f f f f;
#X msg 42 470 \$1 \$2 \, \$3 \$4 \$5;
#X obj 82 379 *;
#X obj 42 353 t f f;
#X obj 358 392 *;
#X obj 184 552 outlet~;
#X obj 184 174 sel 1 0;
#X obj 184 153 > 0;
#X obj 15 324 sel 0;
#X obj 62 423 r attack;
#X obj 97 353 r sustain;
#X obj 102 401 r decay;
#X obj 123 423 r attack;
#X obj 268 202 r attack;
#X obj 278 221 r decay;
#X obj 308 302 r decay;
#X obj 321 324 r release;
#X obj 381 366 r sustain;
#X obj 199 419 r release;
#X obj 322 421 r release;
#X obj 184 132 r velocity_C;
#X obj 15 300 r velocity_C;
#X obj 358 345 r velocity_C;
#X connect 0 0 13 0;
#X connect 1 0 13 1;
#X connect 2 0 1 0;
#X connect 3 0 0 0;
#X connect 3 1 2 0;
#X connect 4 0 11 0;
#X connect 5 0 4 0;
#X connect 5 1 14 0;
#X connect 6 0 7 0;
#X connect 7 0 10 0;
#X connect 8 0 9 0;
#X connect 9 0 12 0;
#X connect 10 0 23 0;
#X connect 11 0 6 0;
#X connect 11 1 8 0;
#X connect 12 0 10 0;
#X connect 13 0 5 0;
#X connect 14 0 15 0;
#X connect 15 0 9 1;
#X connect 18 0 19 0;
#X connect 19 0 10 0;
#X connect 20 0 18 2;
#X connect 21 0 18 0;
#X connect 21 1 20 0;
#X connect 22 0 8 1;
#X connect 24 0 3 0;
#X connect 24 1 0 1;
#X connect 25 0 24 0;
#X connect 26 1 21 0;
#X connect 27 0 18 1;
#X connect 28 0 20 1;
#X connect 29 0 18 3;
#X connect 30 0 18 4;
#X connect 31 0 2 1;
#X connect 32 0 1 1;
#X connect 33 0 14 1;
#X connect 34 0 15 1;
#X connect 35 0 22 1;
#X connect 36 0 6 1;
#X connect 37 0 9 2;
#X connect 38 0 25 0;
#X connect 39 0 26 0;
#X connect 40 0 22 0;
#X restore 73 295 pd adsr_envelope_C;
#N canvas 626 22 602 1002 adsr_envelope_C 0;
#X obj 184 260 timer;
#X obj 253 250 +;
#X obj 253 221 f;
#X obj 184 195 t b b;
#X obj 184 333 >= 0;
#X obj 184 308 t f f;
#X obj 184 446 f;
#X msg 184 479 0 \$1;
#X obj 265 422 f;
#X obj 265 443 pack f f f;
#X obj 184 532 vline~;
#X obj 184 352 sel 0 1;
#X msg 265 472 \$1 \$2 \, 0 \$3 \$2;
#X obj 184 285 expr $f2-$f1;
#X obj 293 323 min;
#X obj 293 344 min;
#X text 11 280 [attack \, decay \, sustain];
#X text 180 114 [release];
#X obj 42 445 pack f f f f f;
#X msg 42 470 \$1 \$2 \, \$3 \$4 \$5;
#X obj 82 379 *;
#X obj 42 353 t f f;
#X obj 358 392 *;
#X obj 184 552 outlet~;
#X obj 184 174 sel 1 0;
#X obj 184 153 > 0;
#X obj 15 324 sel 0;
#X obj 62 423 r attack;
#X obj 97 353 r sustain;
#X obj 102 401 r decay;
#X obj 123 423 r attack;
#X obj 268 202 r attack;
#X obj 278 221 r decay;
#X obj 308 302 r decay;
#X obj 321 324 r release;
#X obj 381 366 r sustain;
#X obj 199 419 r release;
#X obj 322 421 r release;
#X obj 184 132 r velocity_A;
#X obj 15 300 r velocity_A;
#X obj 358 345 r velocity_A;
#X connect 0 0 13 0;
#X connect 1 0 13 1;
#X connect 2 0 1 0;
#X connect 3 0 0 0;
#X connect 3 1 2 0;
#X connect 4 0 11 0;
#X connect 5 0 4 0;
#X connect 5 1 14 0;
#X connect 6 0 7 0;
#X connect 7 0 10 0;
#X connect 8 0 9 0;
#X connect 9 0 12 0;
#X connect 10 0 23 0;
#X connect 11 0 6 0;
#X connect 11 1 8 0;
#X connect 12 0 10 0;
#X connect 13 0 5 0;
#X connect 14 0 15 0;
#X connect 15 0 9 1;
#X connect 18 0 19 0;
#X connect 19 0 10 0;
#X connect 20 0 18 2;
#X connect 21 0 18 0;
#X connect 21 1 20 0;
#X connect 22 0 8 1;
#X connect 24 0 3 0;
#X connect 24 1 0 1;
#X connect 25 0 24 0;
#X connect 26 1 21 0;
#X connect 27 0 18 1;
#X connect 28 0 20 1;
#X connect 29 0 18 3;
#X connect 30 0 18 4;
#X connect 31 0 2 1;
#X connect 32 0 1 1;
#X connect 33 0 14 1;
#X connect 34 0 15 1;
#X connect 35 0 22 1;
#X connect 36 0 6 1;
#X connect 37 0 9 2;
#X connect 38 0 25 0;
#X connect 39 0 26 0;
#X connect 40 0 22 0;
#X restore 74 678 pd adsr_envelope_C;
#X obj 29 621 +~;
#X obj 29 642 +~;
#X obj 29 663 +~;
#X obj 112 94 r bng_lfo;
#X obj 179 76 r seed_lfo;
#X obj 432 94 r bng_lfo;
#X obj 499 76 r seed_lfo;
#X obj 746 94 r bng_lfo;
#X obj 813 76 r seed_lfo;
#X obj 1056 94 r bng_lfo;
#X obj 1123 76 r seed_lfo;
#X obj 112 474 r bng_lfo;
#X obj 179 456 r seed_lfo;
#X obj 432 474 r bng_lfo;
#X obj 493 456 r seed_lfo;
#X obj 742 474 r bng_lfo;
#X obj 809 456 r seed_lfo;
#X obj 1056 474 r bng_lfo;
#X obj 1117 456 r seed_lfo;
#X obj 106 -152 r transpose;
#X connect 0 0 89 0;
#X connect 2 0 89 1;
#X connect 3 0 2 0;
#X connect 4 0 3 0;
#X connect 5 0 97 1;
#X connect 6 0 5 1;
#X connect 7 0 8 1;
#X connect 8 0 0 0;
#X connect 9 0 44 0;
#X connect 9 0 97 0;
#X connect 10 0 81 0;
#X connect 11 0 90 0;
#X connect 13 0 90 1;
#X connect 14 0 13 0;
#X connect 15 0 14 0;
#X connect 16 0 98 1;
#X connect 17 0 16 1;
#X connect 18 0 19 1;
#X connect 19 0 11 0;
#X connect 20 0 128 0;
#X connect 20 0 98 0;
#X connect 21 0 82 0;
#X connect 22 0 91 0;
#X connect 24 0 91 1;
#X connect 25 0 24 0;
#X connect 26 0 25 0;
#X connect 27 0 99 1;
#X connect 28 0 27 1;
#X connect 29 0 30 1;
#X connect 30 0 22 0;
#X connect 31 0 129 0;
#X connect 31 0 99 0;
#X connect 32 0 83 0;
#X connect 33 0 92 0;
#X connect 35 0 92 1;
#X connect 36 0 35 0;
#X connect 37 0 36 0;
#X connect 38 0 100 1;
#X connect 39 0 38 1;
#X connect 40 0 41 1;
#X connect 41 0 33 0;
#X connect 42 0 130 0;
#X connect 42 0 100 0;
#X connect 43 0 84 0;
#X connect 44 0 7 0;
#X connect 45 0 96 0;
#X connect 47 0 96 1;
#X connect 48 0 101 1;
#X connect 49 0 48 1;
#X connect 50 0 51 1;
#X connect 51 0 45 0;
#X connect 52 0 101 0;
#X connect 52 0 131 0;
#X connect 53 0 85 0;
#X connect 54 0 95 0;
#X connect 56 0 95 1;
#X connect 57 0 104 1;
#X connect 58 0 57 1;
#X connect 59 0 60 1;
#X connect 60 0 54 0;
#X connect 61 0 133 0;
#X connect 61 0 104 0;
#X connect 62 0 86 0;
#X connect 63 0 94 0;
#X connect 65 0 94 1;
#X connect 66 0 102 1;
#X connect 67 0 66 1;
#X connect 68 0 69 1;
#X connect 69 0 63 0;
#X connect 70 0 102 0;
#X connect 70 0 132 0;
#X connect 71 0 87 0;
#X connect 72 0 93 0;
#X connect 74 0 93 1;
#X connect 75 0 105 1;
#X connect 76 0 75 1;
#X connect 77 0 78 1;
#X connect 78 0 72 0;
#X connect 79 0 134 0;
#X connect 79 0 105 0;
#X connect 80 0 88 0;
#X connect 81 0 6 0;
#X connect 82 0 17 0;
#X connect 83 0 28 0;
#X connect 84 0 39 0;
#X connect 85 0 49 0;
#X connect 86 0 58 0;
#X connect 87 0 67 0;
#X connect 88 0 76 0;
#X connect 89 0 135 0;
#X connect 90 0 135 1;
#X connect 91 0 136 1;
#X connect 92 0 137 1;
#X connect 93 0 152 1;
#X connect 94 0 151 1;
#X connect 95 0 150 1;
#X connect 96 0 150 0;
#X connect 97 0 1 0;
#X connect 97 0 4 0;
#X connect 98 0 12 0;
#X connect 98 0 15 0;
#X connect 99 0 23 0;
#X connect 99 0 26 0;
#X connect 100 0 34 0;
#X connect 100 0 37 0;
#X connect 101 0 46 0;
#X connect 101 0 106 0;
#X connect 102 0 64 0;
#X connect 102 0 110 0;
#X connect 103 0 74 0;
#X connect 104 0 55 0;
#X connect 104 0 108 0;
#X connect 105 0 73 0;
#X connect 105 0 112 0;
#X connect 106 0 107 0;
#X connect 107 0 47 0;
#X connect 108 0 109 0;
#X connect 109 0 56 0;
#X connect 110 0 111 0;
#X connect 111 0 65 0;
#X connect 112 0 103 0;
#X connect 113 0 138 0;
#X connect 114 0 139 0;
#X connect 115 0 113 0;
#X connect 116 0 117 0;
#X connect 117 0 120 0;
#X connect 118 0 119 0;
#X connect 119 0 120 0;
#X connect 120 0 115 1;
#X connect 122 0 115 0;
#X connect 122 1 114 0;
#X connect 123 0 122 0;
#X connect 124 0 125 0;
#X connect 126 0 127 0;
#X connect 128 0 18 0;
#X connect 129 0 29 0;
#X connect 130 0 40 0;
#X connect 131 0 50 0;
#X connect 132 0 68 0;
#X connect 133 0 59 0;
#X connect 134 0 77 0;
#X connect 135 0 136 0;
#X connect 136 0 137 0;
#X connect 137 0 124 0;
#X connect 140 0 8 0;
#X connect 141 0 19 0;
#X connect 142 0 30 0;
#X connect 143 0 41 0;
#X connect 144 0 51 0;
#X connect 145 0 60 0;
#X connect 146 0 69 0;
#X connect 147 0 78 0;
#X connect 148 0 124 1;
#X connect 149 0 126 1;
#X connect 150 0 151 0;
#X connect 151 0 152 0;
#X connect 152 0 126 0;
#X connect 153 0 97 0;
#X connect 154 0 5 0;
#X connect 155 0 98 0;
#X connect 156 0 16 0;
#X connect 157 0 99 0;
#X connect 158 0 27 0;
#X connect 159 0 100 0;
#X connect 160 0 38 0;
#X connect 161 0 101 0;
#X connect 162 0 48 0;
#X connect 163 0 104 0;
#X connect 164 0 57 0;
#X connect 165 0 102 0;
#X connect 166 0 66 0;
#X connect 167 0 105 0;
#X connect 168 0 75 0;
#X connect 169 0 116 0;
#X restore 385 141 pd osc_1-8_C;
#N canvas 112 22 1442 1002 osc_1-8_D 0;
#X obj 29 160 osc~;
#X floatatom 156 156 5 0 0 0 - - -;
#X obj 112 206 line~;
#X msg 112 185 \$1 200;
#X obj 112 155 / 200;
#N canvas 442 469 450 300 seed_minimo 0;
#X obj 28 97 *;
#X obj 58 48 inlet minimo;
#X obj 28 118 outlet seed_result;
#X obj 28 26 inlet cc_seed;
#X obj 43 75 >=;
#X connect 0 0 2 0;
#X connect 1 0 4 1;
#X connect 3 0 0 0;
#X connect 3 0 4 0;
#X connect 4 0 0 1;
#X restore 179 99 pd seed_minimo;
#X floatatom 260 76 5 0 127 0 - - -;
#X floatatom 44 118 5 0 24 0 - - -;
#X obj 29 140 *;
#X obj 64 63 r loadbang;
#X obj 260 33 r loadbang;
#X obj 349 160 osc~;
#X floatatom 476 156 5 0 0 0 - - -;
#X obj 432 206 line~;
#X msg 432 185 \$1 200;
#X obj 432 155 / 200;
#N canvas 442 469 450 300 seed_minimo 0;
#X obj 28 97 *;
#X obj 58 48 inlet minimo;
#X obj 28 118 outlet seed_result;
#X obj 28 26 inlet cc_seed;
#X obj 43 75 >=;
#X connect 0 0 2 0;
#X connect 1 0 4 1;
#X connect 3 0 0 0;
#X connect 3 0 4 0;
#X connect 4 0 0 1;
#X restore 499 99 pd seed_minimo;
#X floatatom 580 76 5 0 127 0 - - -;
#X floatatom 364 118 5 0 24 0 - - -;
#X obj 349 140 *;
#X obj 384 63 r loadbang;
#X obj 580 33 r loadbang;
#X obj 663 160 osc~;
#X floatatom 790 156 5 0 0 0 - - -;
#X obj 746 206 line~;
#X msg 746 185 \$1 200;
#X obj 746 155 / 200;
#N canvas 442 469 450 300 seed_minimo 0;
#X obj 28 97 *;
#X obj 58 48 inlet minimo;
#X obj 28 118 outlet seed_result;
#X obj 28 26 inlet cc_seed;
#X obj 43 75 >=;
#X connect 0 0 2 0;
#X connect 1 0 4 1;
#X connect 3 0 0 0;
#X connect 3 0 4 0;
#X connect 4 0 0 1;
#X restore 813 99 pd seed_minimo;
#X floatatom 894 76 5 0 127 0 - - -;
#X floatatom 678 118 5 0 24 0 - - -;
#X obj 663 140 *;
#X obj 698 63 r loadbang;
#X obj 894 33 r loadbang;
#X obj 973 160 osc~;
#X floatatom 1100 156 5 0 0 0 - - -;
#X obj 1056 206 line~;
#X msg 1056 185 \$1 200;
#X obj 1056 155 / 200;
#N canvas 442 469 450 300 seed_minimo 0;
#X obj 28 97 *;
#X obj 58 48 inlet minimo;
#X obj 28 118 outlet seed_result;
#X obj 28 26 inlet cc_seed;
#X obj 43 75 >=;
#X connect 0 0 2 0;
#X connect 1 0 4 1;
#X connect 3 0 0 0;
#X connect 3 0 4 0;
#X connect 4 0 0 1;
#X restore 1123 99 pd seed_minimo;
#X floatatom 1204 76 5 0 127 0 - - -;
#X floatatom 988 118 5 0 24 0 - - -;
#X obj 973 140 *;
#X obj 1008 63 r loadbang;
#X obj 1204 33 r loadbang;
#X msg 44 94 1;
#X obj 29 540 osc~;
#X floatatom 156 536 5 0 0 0 - - -;
#X obj 112 586 line~;
#N canvas 442 469 450 300 seed_minimo 0;
#X obj 28 97 *;
#X obj 58 48 inlet minimo;
#X obj 28 118 outlet seed_result;
#X obj 28 26 inlet cc_seed;
#X obj 43 75 >=;
#X connect 0 0 2 0;
#X connect 1 0 4 1;
#X connect 3 0 0 0;
#X connect 3 0 4 0;
#X connect 4 0 0 1;
#X restore 179 479 pd seed_minimo;
#X floatatom 260 456 5 0 127 0 - - -;
#X floatatom 44 498 5 0 24 0 - - -;
#X obj 29 520 *;
#X obj 64 443 r loadbang;
#X obj 260 413 r loadbang;
#X obj 349 540 osc~;
#X floatatom 476 536 5 0 0 0 - - -;
#X obj 432 586 line~;
#N canvas 841 693 450 300 seed_minimo 0;
#X obj 28 97 *;
#X obj 58 48 inlet minimo;
#X obj 28 118 outlet seed_result;
#X obj 28 26 inlet cc_seed;
#X obj 43 75 >=;
#X connect 0 0 2 0;
#X connect 1 0 4 1;
#X connect 3 0 0 0;
#X connect 3 0 4 0;
#X connect 4 0 0 1;
#X restore 493 479 pd seed_minimo;
#X floatatom 574 456 5 0 127 0 - - -;
#X floatatom 364 498 5 0 24 0 - - -;
#X obj 349 520 *;
#X obj 384 443 r loadbang;
#X obj 574 413 r loadbang;
#X obj 659 540 osc~;
#X floatatom 786 536 5 0 0 0 - - -;
#X obj 742 586 line~;
#N canvas 442 469 450 300 seed_minimo 0;
#X obj 28 97 *;
#X obj 58 48 inlet minimo;
#X obj 28 118 outlet seed_result;
#X obj 28 26 inlet cc_seed;
#X obj 43 75 >=;
#X connect 0 0 2 0;
#X connect 1 0 4 1;
#X connect 3 0 0 0;
#X connect 3 0 4 0;
#X connect 4 0 0 1;
#X restore 809 479 pd seed_minimo;
#X floatatom 890 456 5 0 127 0 - - -;
#X floatatom 674 498 5 0 24 0 - - -;
#X obj 659 520 *;
#X obj 694 443 r loadbang;
#X obj 890 413 r loadbang;
#X obj 973 540 osc~;
#X floatatom 1100 536 5 0 0 0 - - -;
#X obj 1056 586 line~;
#N canvas 442 469 450 300 seed_minimo 0;
#X obj 28 97 *;
#X obj 58 48 inlet minimo;
#X obj 28 118 outlet seed_result;
#X obj 28 26 inlet cc_seed;
#X obj 43 75 >=;
#X connect 0 0 2 0;
#X connect 1 0 4 1;
#X connect 3 0 0 0;
#X connect 3 0 4 0;
#X connect 4 0 0 1;
#X restore 1117 479 pd seed_minimo;
#X floatatom 1198 456 5 0 127 0 - - -;
#X floatatom 988 498 5 0 24 0 - - -;
#X obj 973 520 *;
#X obj 1008 443 r loadbang;
#X obj 1198 413 r loadbang;
#X msg 260 54 0;
#X msg 580 54 15;
#X msg 894 54 30;
#X msg 1204 54 45;
#X msg 260 434 60;
#X msg 574 434 75;
#X msg 890 434 90;
#X msg 1198 434 105;
#X obj 29 220 *~;
#X obj 349 220 *~;
#X obj 663 220 *~;
#X obj 973 220 *~;
#X obj 973 600 *~;
#X obj 659 600 *~;
#X obj 349 600 *~;
#X obj 29 600 *~;
#X obj 112 125 random 100;
#X obj 432 125 random 100;
#X obj 746 125 random 100;
#X obj 1056 125 random 100;
#X obj 112 505 random 100;
#X obj 742 505 random 100;
#X msg 1056 565 \$1 800;
#X obj 432 505 random 75;
#X obj 1056 505 random 75;
#X obj 112 535 / 200;
#X msg 112 565 \$1 400;
#X obj 432 536 / 200;
#X msg 432 565 \$1 600;
#X obj 742 535 / 200;
#X msg 742 565 \$1 400;
#X obj 1056 535 / 200;
#X obj 28 -40 mtof;
#X obj 102 -60 / 127;
#X obj 28 -62 +;
#X obj 106 -131 / 5.291;
#X obj 106 -110 - 12;
#X obj 182 -152 r loadbang;
#X msg 182 -131 0;
#X obj 106 -89 i;
#X text 9 -153 transpose +/-12;
#X obj 28 -101 unpack f f;
#X obj 15 -131 inlet midi_in;
#X obj 29 309 *~;
#X obj 29 331 outlet~ out_L;
#X obj 29 692 *~;
#X obj 29 714 outlet~ out_R;
#X msg 364 94 1.0068;
#X msg 678 94 0.9454;
#X msg 988 94 1.0409;
#X msg 44 474 0.975;
#X msg 674 474 0.9886;
#X msg 364 474 1.0614;
#X msg 988 474 1.0841;
#X obj 29 244 +~;
#X obj 29 265 +~;
#X obj 29 286 +~;
#X obj 28 -19 s note_D;
#X obj 102 -39 s velocity_D;
#X obj 29 44 r note_D;
#X obj 349 44 r note_D;
#X obj 663 44 r note_D;
#X obj 973 44 r note_D;
#X obj 29 424 r note_D;
#X obj 349 424 r note_D;
#X obj 659 424 r note_D;
#X obj 973 424 r note_D;
#N canvas 626 22 602 1002 adsr_envelope_D 0;
#X obj 184 260 timer;
#X obj 253 250 +;
#X obj 253 221 f;
#X obj 184 195 t b b;
#X obj 184 333 >= 0;
#X obj 184 308 t f f;
#X obj 184 446 f;
#X msg 184 479 0 \$1;
#X obj 265 422 f;
#X obj 265 443 pack f f f;
#X obj 184 532 vline~;
#X obj 184 352 sel 0 1;
#X msg 265 472 \$1 \$2 \, 0 \$3 \$2;
#X obj 184 285 expr $f2-$f1;
#X obj 293 323 min;
#X obj 293 344 min;
#X text 11 280 [attack \, decay \, sustain];
#X text 180 114 [release];
#X obj 42 445 pack f f f f f;
#X msg 42 470 \$1 \$2 \, \$3 \$4 \$5;
#X obj 82 379 *;
#X obj 42 353 t f f;
#X obj 358 392 *;
#X obj 184 552 outlet~;
#X obj 184 174 sel 1 0;
#X obj 184 153 > 0;
#X obj 15 324 sel 0;
#X obj 62 423 r attack;
#X obj 97 353 r sustain;
#X obj 102 401 r decay;
#X obj 123 423 r attack;
#X obj 268 202 r attack;
#X obj 278 221 r decay;
#X obj 308 302 r decay;
#X obj 321 324 r release;
#X obj 381 366 r sustain;
#X obj 199 419 r release;
#X obj 322 421 r release;
#X obj 184 132 r velocity_D;
#X obj 15 300 r velocity_D;
#X obj 358 345 r velocity_D;
#X connect 0 0 13 0;
#X connect 1 0 13 1;
#X connect 2 0 1 0;
#X connect 3 0 0 0;
#X connect 3 1 2 0;
#X connect 4 0 11 0;
#X connect 5 0 4 0;
#X connect 5 1 14 0;
#X connect 6 0 7 0;
#X connect 7 0 10 0;
#X connect 8 0 9 0;
#X connect 9 0 12 0;
#X connect 10 0 23 0;
#X connect 11 0 6 0;
#X connect 11 1 8 0;
#X connect 12 0 10 0;
#X connect 13 0 5 0;
#X connect 14 0 15 0;
#X connect 15 0 9 1;
#X connect 18 0 19 0;
#X connect 19 0 10 0;
#X connect 20 0 18 2;
#X connect 21 0 18 0;
#X connect 21 1 20 0;
#X connect 22 0 8 1;
#X connect 24 0 3 0;
#X connect 24 1 0 1;
#X connect 25 0 24 0;
#X connect 26 1 21 0;
#X connect 27 0 18 1;
#X connect 28 0 20 1;
#X connect 29 0 18 3;
#X connect 30 0 18 4;
#X connect 31 0 2 1;
#X connect 32 0 1 1;
#X connect 33 0 14 1;
#X connect 34 0 15 1;
#X connect 35 0 22 1;
#X connect 36 0 6 1;
#X connect 37 0 9 2;
#X connect 38 0 25 0;
#X connect 39 0 26 0;
#X connect 40 0 22 0;
#X restore 73 295 pd adsr_envelope_D;
#N canvas 626 22 602 1002 adsr_envelope_D 0;
#X obj 184 260 timer;
#X obj 253 250 +;
#X obj 253 221 f;
#X obj 184 195 t b b;
#X obj 184 333 >= 0;
#X obj 184 308 t f f;
#X obj 184 446 f;
#X msg 184 479 0 \$1;
#X obj 265 422 f;
#X obj 265 443 pack f f f;
#X obj 184 532 vline~;
#X obj 184 352 sel 0 1;
#X msg 265 472 \$1 \$2 \, 0 \$3 \$2;
#X obj 184 285 expr $f2-$f1;
#X obj 293 323 min;
#X obj 293 344 min;
#X text 11 280 [attack \, decay \, sustain];
#X text 180 114 [release];
#X obj 42 445 pack f f f f f;
#X msg 42 470 \$1 \$2 \, \$3 \$4 \$5;
#X obj 82 379 *;
#X obj 42 353 t f f;
#X obj 358 392 *;
#X obj 184 552 outlet~;
#X obj 184 174 sel 1 0;
#X obj 184 153 > 0;
#X obj 15 324 sel 0;
#X obj 62 423 r attack;
#X obj 97 353 r sustain;
#X obj 102 401 r decay;
#X obj 123 423 r attack;
#X obj 268 202 r attack;
#X obj 278 221 r decay;
#X obj 308 302 r decay;
#X obj 321 324 r release;
#X obj 381 366 r sustain;
#X obj 199 419 r release;
#X obj 322 421 r release;
#X obj 184 132 r velocity_A;
#X obj 15 300 r velocity_A;
#X obj 358 345 r velocity_A;
#X connect 0 0 13 0;
#X connect 1 0 13 1;
#X connect 2 0 1 0;
#X connect 3 0 0 0;
#X connect 3 1 2 0;
#X connect 4 0 11 0;
#X connect 5 0 4 0;
#X connect 5 1 14 0;
#X connect 6 0 7 0;
#X connect 7 0 10 0;
#X connect 8 0 9 0;
#X connect 9 0 12 0;
#X connect 10 0 23 0;
#X connect 11 0 6 0;
#X connect 11 1 8 0;
#X connect 12 0 10 0;
#X connect 13 0 5 0;
#X connect 14 0 15 0;
#X connect 15 0 9 1;
#X connect 18 0 19 0;
#X connect 19 0 10 0;
#X connect 20 0 18 2;
#X connect 21 0 18 0;
#X connect 21 1 20 0;
#X connect 22 0 8 1;
#X connect 24 0 3 0;
#X connect 24 1 0 1;
#X connect 25 0 24 0;
#X connect 26 1 21 0;
#X connect 27 0 18 1;
#X connect 28 0 20 1;
#X connect 29 0 18 3;
#X connect 30 0 18 4;
#X connect 31 0 2 1;
#X connect 32 0 1 1;
#X connect 33 0 14 1;
#X connect 34 0 15 1;
#X connect 35 0 22 1;
#X connect 36 0 6 1;
#X connect 37 0 9 2;
#X connect 38 0 25 0;
#X connect 39 0 26 0;
#X connect 40 0 22 0;
#X restore 75 678 pd adsr_envelope_D;
#X obj 29 621 +~;
#X obj 29 642 +~;
#X obj 29 663 +~;
#X obj 112 94 r bng_lfo;
#X obj 179 76 r seed_lfo;
#X obj 432 94 r bng_lfo;
#X obj 499 76 r seed_lfo;
#X obj 746 94 r bng_lfo;
#X obj 813 76 r seed_lfo;
#X obj 1056 94 r bng_lfo;
#X obj 1123 76 r seed_lfo;
#X obj 112 474 r bng_lfo;
#X obj 179 456 r seed_lfo;
#X obj 432 474 r bng_lfo;
#X obj 493 456 r seed_lfo;
#X obj 742 474 r bng_lfo;
#X obj 809 456 r seed_lfo;
#X obj 1056 474 r bng_lfo;
#X obj 1117 456 r seed_lfo;
#X obj 106 -152 r transpose;
#X connect 0 0 89 0;
#X connect 2 0 89 1;
#X connect 3 0 2 0;
#X connect 4 0 3 0;
#X connect 5 0 97 1;
#X connect 6 0 5 1;
#X connect 7 0 8 1;
#X connect 8 0 0 0;
#X connect 9 0 44 0;
#X connect 9 0 97 0;
#X connect 10 0 81 0;
#X connect 11 0 90 0;
#X connect 13 0 90 1;
#X connect 14 0 13 0;
#X connect 15 0 14 0;
#X connect 16 0 98 1;
#X connect 17 0 16 1;
#X connect 18 0 19 1;
#X connect 19 0 11 0;
#X connect 20 0 128 0;
#X connect 20 0 98 0;
#X connect 21 0 82 0;
#X connect 22 0 91 0;
#X connect 24 0 91 1;
#X connect 25 0 24 0;
#X connect 26 0 25 0;
#X connect 27 0 99 1;
#X connect 28 0 27 1;
#X connect 29 0 30 1;
#X connect 30 0 22 0;
#X connect 31 0 129 0;
#X connect 31 0 99 0;
#X connect 32 0 83 0;
#X connect 33 0 92 0;
#X connect 35 0 92 1;
#X connect 36 0 35 0;
#X connect 37 0 36 0;
#X connect 38 0 100 1;
#X connect 39 0 38 1;
#X connect 40 0 41 1;
#X connect 41 0 33 0;
#X connect 42 0 130 0;
#X connect 42 0 100 0;
#X connect 43 0 84 0;
#X connect 44 0 7 0;
#X connect 45 0 96 0;
#X connect 47 0 96 1;
#X connect 48 0 101 1;
#X connect 49 0 48 1;
#X connect 50 0 51 1;
#X connect 51 0 45 0;
#X connect 52 0 101 0;
#X connect 52 0 131 0;
#X connect 53 0 85 0;
#X connect 54 0 95 0;
#X connect 56 0 95 1;
#X connect 57 0 104 1;
#X connect 58 0 57 1;
#X connect 59 0 60 1;
#X connect 60 0 54 0;
#X connect 61 0 133 0;
#X connect 61 0 104 0;
#X connect 62 0 86 0;
#X connect 63 0 94 0;
#X connect 65 0 94 1;
#X connect 66 0 102 1;
#X connect 67 0 66 1;
#X connect 68 0 69 1;
#X connect 69 0 63 0;
#X connect 70 0 102 0;
#X connect 70 0 132 0;
#X connect 71 0 87 0;
#X connect 72 0 93 0;
#X connect 74 0 93 1;
#X connect 75 0 105 1;
#X connect 76 0 75 1;
#X connect 77 0 78 1;
#X connect 78 0 72 0;
#X connect 79 0 134 0;
#X connect 79 0 105 0;
#X connect 80 0 88 0;
#X connect 81 0 6 0;
#X connect 82 0 17 0;
#X connect 83 0 28 0;
#X connect 84 0 39 0;
#X connect 85 0 49 0;
#X connect 86 0 58 0;
#X connect 87 0 67 0;
#X connect 88 0 76 0;
#X connect 89 0 135 0;
#X connect 90 0 135 1;
#X connect 91 0 136 1;
#X connect 92 0 137 1;
#X connect 93 0 152 1;
#X connect 94 0 151 1;
#X connect 95 0 150 1;
#X connect 96 0 150 0;
#X connect 97 0 1 0;
#X connect 97 0 4 0;
#X connect 98 0 12 0;
#X connect 98 0 15 0;
#X connect 99 0 23 0;
#X connect 99 0 26 0;
#X connect 100 0 34 0;
#X connect 100 0 37 0;
#X connect 101 0 46 0;
#X connect 101 0 106 0;
#X connect 102 0 64 0;
#X connect 102 0 110 0;
#X connect 103 0 74 0;
#X connect 104 0 55 0;
#X connect 104 0 108 0;
#X connect 105 0 73 0;
#X connect 105 0 112 0;
#X connect 106 0 107 0;
#X connect 107 0 47 0;
#X connect 108 0 109 0;
#X connect 109 0 56 0;
#X connect 110 0 111 0;
#X connect 111 0 65 0;
#X connect 112 0 103 0;
#X connect 113 0 138 0;
#X connect 114 0 139 0;
#X connect 115 0 113 0;
#X connect 116 0 117 0;
#X connect 117 0 120 0;
#X connect 118 0 119 0;
#X connect 119 0 120 0;
#X connect 120 0 115 1;
#X connect 122 0 115 0;
#X connect 122 1 114 0;
#X connect 123 0 122 0;
#X connect 124 0 125 0;
#X connect 126 0 127 0;
#X connect 128 0 18 0;
#X connect 129 0 29 0;
#X connect 130 0 40 0;
#X connect 131 0 50 0;
#X connect 132 0 68 0;
#X connect 133 0 59 0;
#X connect 134 0 77 0;
#X connect 135 0 136 0;
#X connect 136 0 137 0;
#X connect 137 0 124 0;
#X connect 140 0 8 0;
#X connect 141 0 19 0;
#X connect 142 0 30 0;
#X connect 143 0 41 0;
#X connect 144 0 51 0;
#X connect 145 0 60 0;
#X connect 146 0 69 0;
#X connect 147 0 78 0;
#X connect 148 0 124 1;
#X connect 149 0 126 1;
#X connect 150 0 151 0;
#X connect 151 0 152 0;
#X connect 152 0 126 0;
#X connect 153 0 97 0;
#X connect 154 0 5 0;
#X connect 155 0 98 0;
#X connect 156 0 16 0;
#X connect 157 0 99 0;
#X connect 158 0 27 0;
#X connect 159 0 100 0;
#X connect 160 0 38 0;
#X connect 161 0 101 0;
#X connect 162 0 48 0;
#X connect 163 0 104 0;
#X connect 164 0 57 0;
#X connect 165 0 102 0;
#X connect 166 0 66 0;
#X connect 167 0 105 0;
#X connect 168 0 75 0;
#X connect 169 0 116 0;
#X restore 485 141 pd osc_1-8_D;
#N canvas 1182 306 450 300 lfo_color 0;
#X obj 25 109 bng 15 250 50 0 empty empty empty 0 -6 0 8 -262144 -1
-1;
#X floatatom 94 109 5 0 0 0 - - -;
#X obj 201 139 i;
#X obj 94 129 +;
#X floatatom 94 150 5 0 0 0 - - -;
#N canvas 700 216 463 411 lfo_color 0;
#X obj 23 21 inlet bang;
#X obj 58 67 + 1;
#X obj 23 67 f 0;
#X obj 23 44 t b;
#X obj 23 115 / 100;
#X obj 23 91 mod 100;
#X obj 23 138 * 6.283;
#X obj 23 161 cos;
#X obj 23 203 outlet lfo;
#X obj 79 138 inlet range;
#X obj 23 182 *;
#X obj 79 159 / 127;
#X connect 0 0 3 0;
#X connect 1 0 2 1;
#X connect 2 0 1 0;
#X connect 2 0 5 0;
#X connect 3 0 2 0;
#X connect 4 0 6 0;
#X connect 5 0 4 0;
#X connect 6 0 7 0;
#X connect 7 0 10 0;
#X connect 9 0 11 0;
#X connect 10 0 8 0;
#X connect 11 0 10 1;
#X restore 201 97 pd lfo_color;
#X obj 201 74 metro;
#X floatatom 201 160 5 0 0 0 - - -;
#X obj 201 118 * 20;
#X obj 228 51 * 10;
#X obj 201 51 > 0;
#X obj 94 169 s seed_lfo;
#X obj 25 139 s bng_lfo;
#X obj 95 54 r lfo_color;
#X obj 228 16 r lfo_rate;
#X obj 270 52 r lfo_amount;
#X connect 0 0 3 0;
#X connect 0 0 12 0;
#X connect 1 0 3 0;
#X connect 2 0 7 0;
#X connect 2 0 3 1;
#X connect 3 0 4 0;
#X connect 4 0 11 0;
#X connect 5 0 8 0;
#X connect 6 0 5 0;
#X connect 6 0 0 0;
#X connect 8 0 2 0;
#X connect 9 0 6 1;
#X connect 10 0 6 0;
#X connect 10 0 3 1;
#X connect 13 0 0 0;
#X connect 13 0 1 0;
#X connect 14 0 9 0;
#X connect 14 0 10 0;
#X connect 15 0 5 1;
#X restore 280 53 pd lfo_color;
#N canvas 737 290 889 686 lpf 0;
#X obj 261 81 exp;
#X obj 261 102 i;
#X obj 38 34 inlet~ filter_in;
#X obj 38 372 outlet~ filter_out;
#X obj 392 88 metro;
#X obj 368 102 bng 15 250 50 0 empty empty empty 0 -6 0 8 -262144 -1
-1;
#X obj 261 265 +;
#X obj 261 323 s lfo_filter;
#X obj 95 68 r lfo_filter;
#X obj 261 304 line;
#X msg 261 285 \$1 100;
#X obj 392 65 > 0;
#X obj 419 65 / 2;
#X text 258 20 filter cutoff;
#X text 417 21 lfo rate/amount;
#X obj 95 118 r lfo_filter;
#X obj 95 168 r lfo_filter;
#X obj 95 218 r lfo_filter;
#X obj 95 268 r lfo_filter;
#X obj 95 318 r lfo_filter;
#X obj 261 59 / 14;
#X obj 261 121 + 500;
#X msg 270 167 5000;
#X obj 270 145 r loadbang;
#N canvas 588 256 1049 648 lfo_lpf 0;
#X obj 23 21 inlet bang;
#X obj 58 67 + 1;
#X obj 23 67 f 0;
#X obj 23 44 t b;
#X obj 23 151 / 100;
#X obj 23 91 mod 100;
#X obj 23 172 * 6.283;
#X obj 23 195 cos;
#X obj 23 414 outlet lfo;
#X obj 38 344 inlet range;
#X obj 23 387 *;
#X obj 38 365 / 127;
#X obj 23 217 + 0.5;
#X obj 130 151 * -1;
#X obj 23 261 i;
#X obj 23 240 * 1000;
#X text 48 388 range -500 - 1500;
#X obj 130 172 * 20;
#X obj 130 193 + 1500;
#X obj 263 200 i;
#X obj 263 179 / 7;
#X obj 263 269 !=;
#X text 288 181 vale solo per MN \, poi /65?;
#X text 259 139 lfo wave select;
#X text 27 135 sine;
#X text 128 134 saw;
#X obj 130 214 *;
#X msg 278 246 1;
#X obj 278 225 r loadbang;
#X obj 23 283 *;
#X obj 23 315 +;
#X obj 263 157 r f_lfo_wave;
#X connect 0 0 3 0;
#X connect 1 0 2 1;
#X connect 2 0 1 0;
#X connect 2 0 5 0;
#X connect 3 0 2 0;
#X connect 4 0 6 0;
#X connect 5 0 4 0;
#X connect 5 0 13 0;
#X connect 6 0 7 0;
#X connect 7 0 12 0;
#X connect 9 0 11 0;
#X connect 10 0 8 0;
#X connect 11 0 10 1;
#X connect 12 0 15 0;
#X connect 13 0 17 0;
#X connect 14 0 29 0;
#X connect 15 0 14 0;
#X connect 17 0 18 0;
#X connect 18 0 26 0;
#X connect 19 0 21 0;
#X connect 19 0 26 1;
#X connect 20 0 19 0;
#X connect 21 0 29 1;
#X connect 26 0 30 1;
#X connect 27 0 21 1;
#X connect 28 0 27 0;
#X connect 29 0 30 0;
#X connect 30 0 10 0;
#X connect 31 0 20 0;
#X restore 392 111 pd lfo_lpf;
#X obj 38 90 lop~ 100 5;
#X obj 38 140 lop~ 100 5;
#X obj 38 190 lop~ 100 5;
#X obj 38 240 lop~ 100 5;
#X obj 38 290 lop~ 100 5;
#X obj 38 340 lop~ 100 5;
#X obj 261 39 r f_cutoff;
#X obj 419 40 r f_lfo_rate;
#X obj 449 88 r f_lfo_amt;
#X connect 0 0 1 0;
#X connect 1 0 21 0;
#X connect 2 0 25 0;
#X connect 4 0 24 0;
#X connect 4 0 5 0;
#X connect 5 0 6 0;
#X connect 6 0 10 0;
#X connect 8 0 25 1;
#X connect 9 0 7 0;
#X connect 10 0 9 0;
#X connect 11 0 4 0;
#X connect 11 0 6 1;
#X connect 12 0 4 1;
#X connect 15 0 26 1;
#X connect 16 0 27 1;
#X connect 17 0 28 1;
#X connect 18 0 29 1;
#X connect 19 0 30 1;
#X connect 20 0 0 0;
#X connect 21 0 6 0;
#X connect 22 0 6 0;
#X connect 23 0 22 0;
#X connect 24 0 6 1;
#X connect 25 0 26 0;
#X connect 26 0 27 0;
#X connect 27 0 28 0;
#X connect 28 0 29 0;
#X connect 29 0 30 0;
#X connect 30 0 3 0;
#X connect 31 0 20 0;
#X connect 32 0 11 0;
#X connect 32 0 12 0;
#X connect 33 0 24 1;
#X restore 185 255 pd lpf;
#X obj 185 229 *~ 0.2;
#X obj 185 280 *~ 0.3;
#X obj 13 -82 tgl 25 0 audio_onoff empty Audio_On/Off 30 13 0 15 -262144
-1 -1 1 1;
#N canvas 398 86 756 529 Init 0;
#X msg 76 103 \; pd dsp 1;
#X msg 11 103 \; pd dsp 0;
#X obj 11 31 r audio_onoff;
#X obj 76 64 sel 1;
#X obj 11 64 sel 0;
#X obj 180 31 loadbang;
#X obj 180 54 s loadbang;
#X obj 227 126 print -n;
#X msg 227 90 *** 8 Oscillator Additive Max (2020) - Written by Alessandro
Ielo - jqrsound.com;
#X connect 2 0 3 0;
#X connect 2 0 4 0;
#X connect 3 0 0 0;
#X connect 4 0 1 0;
#X connect 5 0 6 0;
#X connect 5 0 8 0;
#X connect 8 0 7 0;
#X coords 0 0 1 1 85 60 0;
#X restore 13 -43 pd Init;
#N canvas 382 315 1157 709 Midi 0;
#X obj 13 155 mtof;
#X obj 156 155 mtof;
#X obj 433 155 mtof;
#X obj 13 178 s attack;
#X obj 156 178 s decay;
#X obj 293 177 s sustain;
#X obj 433 177 s release;
#X obj 293 155 / 127;
#X obj 75 134 r loadbang;
#X msg 75 155 20;
#X obj 215 134 r loadbang;
#X obj 355 134 r loadbang;
#X msg 355 155 0.6;
#X obj 495 134 r loadbang;
#X msg 495 155 400;
#X msg 215 155 400;
#X obj 13 59 s lfo_color;
#X obj 93 59 s lfo_rate;
#X obj 169 59 s lfo_amount;
#X obj 343 60 s transpose;
#X text 341 20 Note Transpose Midi CC In;
#X text 12 18 OSC Color Midi CC In;
#X text 11 110 ADSR Envelope Midi CC In + initial values;
#X text 12 228 Filter Midi CC In;
#X obj 13 269 s f_cutoff;
#X obj 93 269 s f_lfo_wave;
#X obj 183 269 s f_lfo_rate;
#X obj 273 269 s f_lfo_amt;
#X obj 13 38 ctlin 1;
#X obj 93 38 ctlin 2;
#X obj 169 38 ctlin 3;
#X obj 343 39 ctlin 4;
#X obj 13 134 ctlin 5;
#X obj 156 134 ctlin 6;
#X obj 293 134 ctlin 7;
#X obj 433 134 ctlin 8;
#X obj 13 248 ctlin 9;
#X obj 93 248 ctlin 10;
#X obj 183 249 ctlin 11;
#X obj 273 249 ctlin 12;
#X connect 0 0 3 0;
#X connect 1 0 4 0;
#X connect 2 0 6 0;
#X connect 7 0 5 0;
#X connect 8 0 9 0;
#X connect 9 0 3 0;
#X connect 10 0 15 0;
#X connect 11 0 12 0;
#X connect 12 0 5 0;
#X connect 13 0 14 0;
#X connect 14 0 6 0;
#X connect 15 0 4 0;
#X connect 28 0 16 0;
#X connect 29 0 17 0;
#X connect 30 0 18 0;
#X connect 31 0 19 0;
#X connect 32 0 0 0;
#X connect 33 0 1 0;
#X connect 34 0 7 0;
#X connect 35 0 2 0;
#X connect 36 0 24 0;
#X connect 37 0 25 0;
#X connect 38 0 26 0;
#X connect 39 0 27 0;
#X restore 13 1 pd Midi settings;
#N canvas 132 373 923 601 READ_ME 0;
#X text 14 72 The LFO Color setting decides the pseudo-random seed
(the higher the number \, the wider the range) and together with LFO
Rate and Amount controls the speed and amount of harmonic changes.
, f 86;
#X text 390 584 Beta Tester: .Chelidon Frame // Alessio Premoli .Dimitri
"Error 500" De Franciscis, f 86;
#X text 15 122 ADSR controls the envelope of the played notes only
\, while Filter controls the cutoff of the LPF. LFO Filter Wave selects
between Sine and Saw \, while Rate and Amount control the speed and
amount of the filter sweep.;
#X text 16 12 8 Oscillatos Additive Plus - Alessandro Ielo - jqrsound.com
, f 86;
#X text 15 35 Osc_Plus is a sound source based on additive synthesis:
it contains 8 sine waves tuned together to create beats and dissonances.
, f 86;
#X restore 13 -21 pd READ_ME;
#X connect 1 0 2 0;
#X connect 1 1 2 1;
#X connect 1 2 2 2;
#X connect 2 0 3 0;
#X connect 3 0 5 0;
#X connect 3 1 6 0;
#X connect 3 2 7 0;
#X connect 3 3 8 0;
#X connect 4 0 1 0;
#X connect 4 1 1 1;
#X connect 5 0 11 0;
#X connect 5 1 11 0;
#X connect 6 0 11 0;
#X connect 6 1 11 0;
#X connect 7 0 11 0;
#X connect 7 1 11 0;
#X connect 8 0 11 0;
#X connect 8 1 11 0;
#X connect 10 0 12 0;
#X connect 11 0 10 0;
#X connect 12 0 0 0;
#X connect 12 0 0 1;
