#N canvas 381 431 705 576 10;
#X obj 171 214 *~ 0.3;
#X obj 171 248 dac~;
#N canvas 678 267 889 686 lpf 0;
#X obj 261 81 exp;
#X obj 261 102 i;
#X obj 38 34 inlet~ filter_in;
#X obj 38 372 outlet~ filter_out;
#X obj 392 88 metro;
#X obj 368 102 bng 15 250 50 0 empty empty empty 0 -6 0 8 -262144 -1
-1;
#X obj 261 265 +;
#X obj 261 323 s lfo_filter;
#X obj 95 68 r lfo_filter;
#X obj 261 304 line;
#X msg 261 285 \$1 100;
#X obj 392 65 > 0;
#X obj 419 65 / 2;
#X text 258 20 filter cutoff;
#X text 417 21 lfo rate/amount;
#X obj 95 118 r lfo_filter;
#X obj 95 168 r lfo_filter;
#X obj 95 218 r lfo_filter;
#X obj 95 268 r lfo_filter;
#X obj 95 318 r lfo_filter;
#X obj 38 90 lop~ 100 2;
#X obj 38 140 lop~ 100 2;
#X obj 38 190 lop~ 100 2;
#X obj 38 240 lop~ 100 2;
#X obj 38 290 lop~ 100 2;
#X obj 38 340 lop~ 100 2;
#X obj 261 59 / 14;
#X obj 261 121 + 500;
#X msg 270 167 5000;
#X obj 270 145 r loadbang;
#N canvas 631 253 1049 648 lfo_lpf 0;
#X obj 23 21 inlet bang;
#X obj 58 67 + 1;
#X obj 23 67 f 0;
#X obj 23 44 t b;
#X obj 23 151 / 100;
#X obj 23 91 mod 100;
#X obj 23 172 * 6.283;
#X obj 23 195 cos;
#X obj 23 414 outlet lfo;
#X obj 38 344 inlet range;
#X obj 23 387 *;
#X obj 38 365 / 127;
#X obj 23 217 + 0.5;
#X obj 130 151 * -1;
#X obj 23 261 i;
#X obj 23 240 * 1000;
#X text 48 388 range -500 - 1500;
#X obj 130 172 * 20;
#X obj 130 193 + 1500;
#X obj 263 200 i;
#X obj 263 179 / 7;
#X obj 263 269 !=;
#X text 288 181 vale solo per MN \, poi /65?;
#X text 259 139 lfo wave select;
#X text 27 135 sine;
#X text 128 134 saw;
#X obj 130 214 *;
#X msg 278 246 1;
#X obj 278 225 r loadbang;
#X obj 23 283 *;
#X obj 23 315 +;
#X obj 263 158 r f_lfo_wave;
#X connect 0 0 3 0;
#X connect 1 0 2 1;
#X connect 2 0 1 0;
#X connect 2 0 5 0;
#X connect 3 0 2 0;
#X connect 4 0 6 0;
#X connect 5 0 4 0;
#X connect 5 0 13 0;
#X connect 6 0 7 0;
#X connect 7 0 12 0;
#X connect 9 0 11 0;
#X connect 10 0 8 0;
#X connect 11 0 10 1;
#X connect 12 0 15 0;
#X connect 13 0 17 0;
#X connect 14 0 29 0;
#X connect 15 0 14 0;
#X connect 17 0 18 0;
#X connect 18 0 26 0;
#X connect 19 0 21 0;
#X connect 19 0 26 1;
#X connect 20 0 19 0;
#X connect 21 0 29 1;
#X connect 26 0 30 1;
#X connect 27 0 21 1;
#X connect 28 0 27 0;
#X connect 29 0 30 0;
#X connect 30 0 10 0;
#X connect 31 0 20 0;
#X restore 392 111 pd lfo_lpf;
#X obj 261 39 r f_cutoff;
#X obj 419 40 r f_lfo_rate;
#X obj 449 88 r f_lfo_amt;
#X connect 0 0 1 0;
#X connect 1 0 27 0;
#X connect 2 0 20 0;
#X connect 4 0 30 0;
#X connect 4 0 5 0;
#X connect 5 0 6 0;
#X connect 6 0 10 0;
#X connect 8 0 20 1;
#X connect 9 0 7 0;
#X connect 10 0 9 0;
#X connect 11 0 4 0;
#X connect 11 0 6 1;
#X connect 12 0 4 1;
#X connect 15 0 21 1;
#X connect 16 0 22 1;
#X connect 17 0 23 1;
#X connect 18 0 24 1;
#X connect 19 0 25 1;
#X connect 20 0 21 0;
#X connect 21 0 22 0;
#X connect 22 0 23 0;
#X connect 23 0 24 0;
#X connect 24 0 25 0;
#X connect 25 0 3 0;
#X connect 26 0 0 0;
#X connect 27 0 6 0;
#X connect 28 0 6 0;
#X connect 29 0 28 0;
#X connect 30 0 6 1;
#X connect 31 0 26 0;
#X connect 32 0 11 0;
#X connect 32 0 12 0;
#X connect 33 0 30 1;
#X restore 171 189 pd lpf;
#X obj 171 7 pack f f f;
#X obj 171 -38 notein;
#N canvas 151 22 1442 1002 noise_A 0;
#X obj 72 -82 / 127;
#X obj 15 -106 unpack f f;
#X obj 15 -131 inlet midi_in;
#X obj 29 319 *~;
#X obj 72 -61 s velocity_A;
#X obj 29 341 outlet~ out_L;
#X obj 29 702 *~;
#X obj 29 724 outlet~ out_R;
#N canvas 626 22 602 1002 adsr_envelope_A 0;
#X obj 184 260 timer;
#X obj 253 250 +;
#X obj 253 221 f;
#X obj 184 195 t b b;
#X obj 184 333 >= 0;
#X obj 184 308 t f f;
#X obj 184 446 f;
#X msg 184 479 0 \$1;
#X obj 265 422 f;
#X obj 265 443 pack f f f;
#X obj 184 532 vline~;
#X obj 184 352 sel 0 1;
#X msg 265 472 \$1 \$2 \, 0 \$3 \$2;
#X obj 184 285 expr $f2-$f1;
#X obj 293 323 min;
#X obj 293 344 min;
#X text 11 280 [attack \, decay \, sustain];
#X text 180 114 [release];
#X obj 42 445 pack f f f f f;
#X msg 42 470 \$1 \$2 \, \$3 \$4 \$5;
#X obj 82 379 *;
#X obj 42 353 t f f;
#X obj 358 392 *;
#X obj 184 552 outlet~;
#X obj 184 174 sel 1 0;
#X obj 184 153 > 0;
#X obj 15 324 sel 0;
#X obj 62 423 r attack;
#X obj 97 353 r sustain;
#X obj 102 401 r decay;
#X obj 123 423 r attack;
#X obj 268 202 r attack;
#X obj 278 221 r decay;
#X obj 308 302 r decay;
#X obj 321 324 r release;
#X obj 381 366 r sustain;
#X obj 199 419 r release;
#X obj 322 421 r release;
#X obj 184 132 r velocity_A;
#X obj 15 300 r velocity_A;
#X obj 358 345 r velocity_A;
#X connect 0 0 13 0;
#X connect 1 0 13 1;
#X connect 2 0 1 0;
#X connect 3 0 0 0;
#X connect 3 1 2 0;
#X connect 4 0 11 0;
#X connect 5 0 4 0;
#X connect 5 1 14 0;
#X connect 6 0 7 0;
#X connect 7 0 10 0;
#X connect 8 0 9 0;
#X connect 9 0 12 0;
#X connect 10 0 23 0;
#X connect 11 0 6 0;
#X connect 11 1 8 0;
#X connect 12 0 10 0;
#X connect 13 0 5 0;
#X connect 14 0 15 0;
#X connect 15 0 9 1;
#X connect 18 0 19 0;
#X connect 19 0 10 0;
#X connect 20 0 18 2;
#X connect 21 0 18 0;
#X connect 21 1 20 0;
#X connect 22 0 8 1;
#X connect 24 0 3 0;
#X connect 24 1 0 1;
#X connect 25 0 24 0;
#X connect 26 1 21 0;
#X connect 27 0 18 1;
#X connect 28 0 20 1;
#X connect 29 0 18 3;
#X connect 30 0 18 4;
#X connect 31 0 2 1;
#X connect 32 0 1 1;
#X connect 33 0 14 1;
#X connect 34 0 15 1;
#X connect 35 0 22 1;
#X connect 36 0 6 1;
#X connect 37 0 9 2;
#X connect 38 0 25 0;
#X connect 39 0 26 0;
#X connect 40 0 22 0;
#X restore 44 651 pd adsr_envelope_A;
#N canvas 882 48 602 1002 adsr_envelope_A 0;
#X obj 184 260 timer;
#X obj 253 250 +;
#X obj 253 221 f;
#X obj 184 195 t b b;
#X obj 184 333 >= 0;
#X obj 184 308 t f f;
#X obj 184 446 f;
#X msg 184 479 0 \$1;
#X obj 265 422 f;
#X obj 265 443 pack f f f;
#X obj 184 532 vline~;
#X obj 184 352 sel 0 1;
#X msg 265 472 \$1 \$2 \, 0 \$3 \$2;
#X obj 184 285 expr $f2-$f1;
#X obj 293 323 min;
#X obj 293 344 min;
#X text 11 280 [attack \, decay \, sustain];
#X text 180 114 [release];
#X obj 42 445 pack f f f f f;
#X msg 42 470 \$1 \$2 \, \$3 \$4 \$5;
#X obj 82 379 *;
#X obj 42 353 t f f;
#X obj 358 392 *;
#X obj 184 552 outlet~;
#X obj 184 174 sel 1 0;
#X obj 184 153 > 0;
#X obj 15 324 sel 0;
#X obj 62 423 r attack;
#X obj 97 353 r sustain;
#X obj 102 401 r decay;
#X obj 123 423 r attack;
#X obj 268 202 r attack;
#X obj 278 221 r decay;
#X obj 308 302 r decay;
#X obj 321 324 r release;
#X obj 381 366 r sustain;
#X obj 199 419 r release;
#X obj 322 421 r release;
#X obj 184 132 r velocity_A;
#X obj 15 300 r velocity_A;
#X obj 358 345 r velocity_A;
#X connect 0 0 13 0;
#X connect 1 0 13 1;
#X connect 2 0 1 0;
#X connect 3 0 0 0;
#X connect 3 1 2 0;
#X connect 4 0 11 0;
#X connect 5 0 4 0;
#X connect 5 1 14 0;
#X connect 6 0 7 0;
#X connect 7 0 10 0;
#X connect 8 0 9 0;
#X connect 9 0 12 0;
#X connect 10 0 23 0;
#X connect 11 0 6 0;
#X connect 11 1 8 0;
#X connect 12 0 10 0;
#X connect 13 0 5 0;
#X connect 14 0 15 0;
#X connect 15 0 9 1;
#X connect 18 0 19 0;
#X connect 19 0 10 0;
#X connect 20 0 18 2;
#X connect 21 0 18 0;
#X connect 21 1 20 0;
#X connect 22 0 8 1;
#X connect 24 0 3 0;
#X connect 24 1 0 1;
#X connect 25 0 24 0;
#X connect 26 1 21 0;
#X connect 27 0 18 1;
#X connect 28 0 20 1;
#X connect 29 0 18 3;
#X connect 30 0 18 4;
#X connect 31 0 2 1;
#X connect 32 0 1 1;
#X connect 33 0 14 1;
#X connect 34 0 15 1;
#X connect 35 0 22 1;
#X connect 36 0 6 1;
#X connect 37 0 9 2;
#X connect 38 0 25 0;
#X connect 39 0 26 0;
#X connect 40 0 22 0;
#X restore 44 268 pd adsr_envelope_A;
#X floatatom 136 139 5 0 0 0 - - -;
#X obj 91 189 line~;
#X obj 91 146 / 200;
#N canvas 442 469 450 300 seed_minimo 0;
#X obj 28 97 *;
#X obj 58 48 inlet minimo;
#X obj 28 118 outlet seed_result;
#X obj 28 26 inlet cc_seed;
#X obj 43 75 >=;
#X connect 0 0 2 0;
#X connect 1 0 4 1;
#X connect 3 0 0 0;
#X connect 3 0 4 0;
#X connect 4 0 0 1;
#X restore 168 72 pd seed_minimo;
#X floatatom 249 49 5 0 127 0 - - -;
#X obj 249 6 r loadbang;
#X msg 249 27 0;
#X obj 29 93 noise~;
#X obj 29 227 *~;
#X obj 44 121 * 50;
#X floatatom 396 139 5 0 0 0 - - -;
#X obj 351 189 line~;
#X obj 351 146 / 200;
#N canvas 442 469 450 300 seed_minimo 0;
#X obj 28 97 *;
#X obj 58 48 inlet minimo;
#X obj 28 118 outlet seed_result;
#X obj 28 26 inlet cc_seed;
#X obj 43 75 >=;
#X connect 0 0 2 0;
#X connect 1 0 4 1;
#X connect 3 0 0 0;
#X connect 3 0 4 0;
#X connect 4 0 0 1;
#X restore 428 72 pd seed_minimo;
#X floatatom 509 49 5 0 127 0 - - -;
#X obj 509 6 r loadbang;
#X obj 289 93 noise~;
#X obj 289 227 *~;
#X obj 304 122 * 50;
#X floatatom 676 139 5 0 0 0 - - -;
#X obj 631 189 line~;
#X obj 631 146 / 200;
#N canvas 442 469 450 300 seed_minimo 0;
#X obj 28 97 *;
#X obj 58 48 inlet minimo;
#X obj 28 118 outlet seed_result;
#X obj 28 26 inlet cc_seed;
#X obj 43 75 >=;
#X connect 0 0 2 0;
#X connect 1 0 4 1;
#X connect 3 0 0 0;
#X connect 3 0 4 0;
#X connect 4 0 0 1;
#X restore 708 72 pd seed_minimo;
#X floatatom 789 49 5 0 127 0 - - -;
#X obj 789 6 r loadbang;
#X obj 569 93 noise~;
#X obj 569 227 *~;
#X obj 584 119 * 50;
#X floatatom 936 139 5 0 0 0 - - -;
#X obj 891 189 line~;
#X obj 891 146 / 200;
#N canvas 442 469 450 300 seed_minimo 0;
#X obj 28 97 *;
#X obj 58 48 inlet minimo;
#X obj 28 118 outlet seed_result;
#X obj 28 26 inlet cc_seed;
#X obj 43 75 >=;
#X connect 0 0 2 0;
#X connect 1 0 4 1;
#X connect 3 0 0 0;
#X connect 3 0 4 0;
#X connect 4 0 0 1;
#X restore 968 72 pd seed_minimo;
#X floatatom 1049 49 5 0 127 0 - - -;
#X obj 1049 6 r loadbang;
#X obj 829 93 noise~;
#X obj 829 227 *~;
#X obj 844 119 * 50;
#X floatatom 136 519 5 0 0 0 - - -;
#X obj 91 569 line~;
#X obj 91 526 / 200;
#N canvas 442 469 450 300 seed_minimo 0;
#X obj 28 97 *;
#X obj 58 48 inlet minimo;
#X obj 28 118 outlet seed_result;
#X obj 28 26 inlet cc_seed;
#X obj 43 75 >=;
#X connect 0 0 2 0;
#X connect 1 0 4 1;
#X connect 3 0 0 0;
#X connect 3 0 4 0;
#X connect 4 0 0 1;
#X restore 168 452 pd seed_minimo;
#X floatatom 249 429 5 0 127 0 - - -;
#X obj 249 386 r loadbang;
#X obj 29 473 noise~;
#X obj 29 607 *~;
#X obj 44 499 * 50;
#X floatatom 396 519 5 0 0 0 - - -;
#X obj 351 569 line~;
#X obj 351 526 / 200;
#N canvas 442 469 450 300 seed_minimo 0;
#X obj 28 97 *;
#X obj 58 48 inlet minimo;
#X obj 28 118 outlet seed_result;
#X obj 28 26 inlet cc_seed;
#X obj 43 75 >=;
#X connect 0 0 2 0;
#X connect 1 0 4 1;
#X connect 3 0 0 0;
#X connect 3 0 4 0;
#X connect 4 0 0 1;
#X restore 428 452 pd seed_minimo;
#X floatatom 509 429 5 0 127 0 - - -;
#X obj 509 386 r loadbang;
#X obj 289 473 noise~;
#X obj 289 607 *~;
#X obj 304 499 * 50;
#X floatatom 676 519 5 0 0 0 - - -;
#X obj 631 569 line~;
#X obj 631 526 / 200;
#N canvas 442 469 450 300 seed_minimo 0;
#X obj 28 97 *;
#X obj 58 48 inlet minimo;
#X obj 28 118 outlet seed_result;
#X obj 28 26 inlet cc_seed;
#X obj 43 75 >=;
#X connect 0 0 2 0;
#X connect 1 0 4 1;
#X connect 3 0 0 0;
#X connect 3 0 4 0;
#X connect 4 0 0 1;
#X restore 708 452 pd seed_minimo;
#X floatatom 789 429 5 0 127 0 - - -;
#X obj 789 386 r loadbang;
#X obj 569 473 noise~;
#X obj 569 607 *~;
#X obj 584 499 * 50;
#X floatatom 936 519 5 0 0 0 - - -;
#X obj 891 569 line~;
#X obj 891 526 / 200;
#N canvas 442 469 450 300 seed_minimo 0;
#X obj 28 97 *;
#X obj 58 48 inlet minimo;
#X obj 28 118 outlet seed_result;
#X obj 28 26 inlet cc_seed;
#X obj 43 75 >=;
#X connect 0 0 2 0;
#X connect 1 0 4 1;
#X connect 3 0 0 0;
#X connect 3 0 4 0;
#X connect 4 0 0 1;
#X restore 968 452 pd seed_minimo;
#X floatatom 1049 429 5 0 127 0 - - -;
#X obj 1049 386 r loadbang;
#X obj 829 473 noise~;
#X obj 829 607 *~;
#X obj 844 499 * 50;
#X msg 509 27 15;
#X msg 789 27 30;
#X msg 1049 27 45;
#X msg 249 407 60;
#X msg 509 407 75;
#X msg 789 407 90;
#X msg 1049 407 105;
#X obj 91 97 random 100;
#X obj 351 97 random 100;
#X obj 631 97 random 100;
#X obj 891 97 random 100;
#X obj 91 477 random 100;
#X obj 351 477 random 100;
#X obj 631 477 random 100;
#X obj 891 477 random 100;
#X msg 891 548 \$1 800;
#X obj 29 248 *~ 0.7;
#X obj 289 248 *~ 0.7;
#X obj 569 248 *~ 0.7;
#X obj 829 248 *~ 0.7;
#X obj 29 628 *~ 0.7;
#X obj 289 628 *~ 0.7;
#X obj 569 628 *~ 0.7;
#X obj 829 628 *~ 0.7;
#X obj 29 576 bp~ 0 5;
#X obj 289 576 bp~ 0 5;
#X obj 569 576 bp~ 0 5;
#X obj 829 576 bp~ 0 5;
#X msg 91 168 \$1 500;
#X msg 351 168 \$1 500;
#X msg 631 168 \$1 500;
#X msg 891 168 \$1 500;
#X msg 91 547 \$1 900;
#X msg 351 548 \$1 1100;
#X msg 631 548 \$1 900;
#X obj 44 167 line;
#X msg 44 146 \$1 800;
#X obj 304 167 line;
#X msg 304 146 \$1 800;
#X obj 584 167 line;
#X msg 584 146 \$1 800;
#X obj 844 167 line;
#X msg 844 146 \$1 800;
#X obj 289 196 bp~ 0 20;
#X obj 569 196 bp~ 0 20;
#X obj 829 196 bp~ 0 20;
#X obj 29 196 bp~ 0 50;
#X obj 44 547 line;
#X msg 44 526 \$1 800;
#X obj 304 547 line;
#X msg 304 526 \$1 800;
#X obj 584 547 line;
#X msg 584 526 \$1 800;
#X obj 844 547 line;
#X msg 844 526 \$1 800;
#X obj 91 67 r bng_lfo_A;
#X obj 168 49 r seed_lfo_A;
#X obj 351 68 r bng_lfo_A;
#X obj 428 49 r seed_lfo_A;
#X obj 631 67 r bng_lfo_A;
#X obj 708 49 r seed_lfo_A;
#X obj 891 67 r bng_lfo_A;
#X obj 968 49 r seed_lfo_A;
#X obj 91 446 r bng_lfo_A;
#X obj 168 429 r seed_lfo_A;
#X obj 351 447 r bng_lfo_A;
#X obj 428 429 r seed_lfo_A;
#X obj 631 447 r bng_lfo_A;
#X obj 708 429 r seed_lfo_A;
#X obj 891 447 r bng_lfo_A;
#X obj 968 429 r seed_lfo_A;
#X connect 0 0 4 0;
#X connect 1 1 0 0;
#X connect 2 0 1 0;
#X connect 3 0 5 0;
#X connect 6 0 7 0;
#X connect 8 0 6 1;
#X connect 9 0 3 1;
#X connect 11 0 18 1;
#X connect 12 0 111 0;
#X connect 13 0 90 1;
#X connect 14 0 13 1;
#X connect 15 0 16 0;
#X connect 15 0 90 0;
#X connect 16 0 14 0;
#X connect 17 0 129 0;
#X connect 18 0 99 0;
#X connect 19 0 119 0;
#X connect 21 0 27 1;
#X connect 22 0 112 0;
#X connect 23 0 91 1;
#X connect 24 0 23 1;
#X connect 25 0 83 0;
#X connect 25 0 91 0;
#X connect 26 0 126 0;
#X connect 27 0 100 0;
#X connect 28 0 121 0;
#X connect 30 0 36 1;
#X connect 31 0 113 0;
#X connect 32 0 92 1;
#X connect 33 0 32 1;
#X connect 34 0 84 0;
#X connect 34 0 92 0;
#X connect 35 0 127 0;
#X connect 36 0 101 0;
#X connect 37 0 123 0;
#X connect 39 0 45 1;
#X connect 40 0 114 0;
#X connect 41 0 93 1;
#X connect 42 0 41 1;
#X connect 43 0 85 0;
#X connect 43 0 93 0;
#X connect 44 0 128 0;
#X connect 45 0 102 0;
#X connect 46 0 125 0;
#X connect 48 0 54 1;
#X connect 49 0 115 0;
#X connect 50 0 94 1;
#X connect 51 0 50 1;
#X connect 52 0 86 0;
#X connect 52 0 94 0;
#X connect 53 0 107 0;
#X connect 54 0 103 0;
#X connect 55 0 131 0;
#X connect 57 0 63 1;
#X connect 58 0 116 0;
#X connect 59 0 95 1;
#X connect 60 0 59 1;
#X connect 61 0 87 0;
#X connect 61 0 95 0;
#X connect 62 0 108 0;
#X connect 63 0 104 0;
#X connect 64 0 133 0;
#X connect 66 0 72 1;
#X connect 67 0 117 0;
#X connect 68 0 96 1;
#X connect 69 0 68 1;
#X connect 70 0 88 0;
#X connect 70 0 96 0;
#X connect 71 0 109 0;
#X connect 72 0 105 0;
#X connect 73 0 135 0;
#X connect 75 0 81 1;
#X connect 76 0 98 0;
#X connect 77 0 97 1;
#X connect 78 0 77 1;
#X connect 79 0 89 0;
#X connect 79 0 97 0;
#X connect 80 0 110 0;
#X connect 81 0 106 0;
#X connect 82 0 137 0;
#X connect 83 0 24 0;
#X connect 84 0 33 0;
#X connect 85 0 42 0;
#X connect 86 0 51 0;
#X connect 87 0 60 0;
#X connect 88 0 69 0;
#X connect 89 0 78 0;
#X connect 90 0 10 0;
#X connect 90 0 12 0;
#X connect 90 0 19 0;
#X connect 91 0 20 0;
#X connect 91 0 22 0;
#X connect 91 0 28 0;
#X connect 92 0 29 0;
#X connect 92 0 31 0;
#X connect 92 0 37 0;
#X connect 93 0 38 0;
#X connect 93 0 40 0;
#X connect 93 0 46 0;
#X connect 94 0 47 0;
#X connect 94 0 49 0;
#X connect 94 0 55 0;
#X connect 95 0 56 0;
#X connect 95 0 58 0;
#X connect 95 0 64 0;
#X connect 96 0 65 0;
#X connect 96 0 67 0;
#X connect 96 0 73 0;
#X connect 97 0 74 0;
#X connect 97 0 76 0;
#X connect 97 0 82 0;
#X connect 98 0 75 0;
#X connect 99 0 3 0;
#X connect 100 0 3 0;
#X connect 101 0 3 0;
#X connect 102 0 3 0;
#X connect 103 0 6 0;
#X connect 104 0 6 0;
#X connect 105 0 6 0;
#X connect 106 0 6 0;
#X connect 107 0 54 0;
#X connect 108 0 63 0;
#X connect 109 0 72 0;
#X connect 110 0 81 0;
#X connect 111 0 11 0;
#X connect 112 0 21 0;
#X connect 113 0 30 0;
#X connect 114 0 39 0;
#X connect 115 0 48 0;
#X connect 116 0 57 0;
#X connect 117 0 66 0;
#X connect 118 0 129 1;
#X connect 119 0 118 0;
#X connect 120 0 126 1;
#X connect 121 0 120 0;
#X connect 122 0 127 1;
#X connect 123 0 122 0;
#X connect 124 0 128 1;
#X connect 125 0 124 0;
#X connect 126 0 27 0;
#X connect 127 0 36 0;
#X connect 128 0 45 0;
#X connect 129 0 18 0;
#X connect 130 0 107 1;
#X connect 131 0 130 0;
#X connect 132 0 108 1;
#X connect 133 0 132 0;
#X connect 134 0 109 1;
#X connect 135 0 134 0;
#X connect 136 0 110 1;
#X connect 137 0 136 0;
#X connect 138 0 90 0;
#X connect 139 0 13 0;
#X connect 140 0 91 0;
#X connect 141 0 23 0;
#X connect 142 0 92 0;
#X connect 143 0 32 0;
#X connect 144 0 93 0;
#X connect 145 0 41 0;
#X connect 146 0 94 0;
#X connect 147 0 50 0;
#X connect 148 0 95 0;
#X connect 149 0 59 0;
#X connect 150 0 96 0;
#X connect 151 0 68 0;
#X connect 152 0 97 0;
#X connect 153 0 77 0;
#X restore 171 70 pd noise_A;
#X obj 171 -16 poly 2 1;
#X obj 171 31 route 1 2;
#X obj 171 133 *~ 0.5;
#N canvas 184 22 1442 1002 noise_B 0;
#X obj 72 -82 / 127;
#X obj 15 -106 unpack f f;
#X obj 15 -131 inlet midi_in;
#X obj 29 319 *~;
#X obj 29 341 outlet~ out_L;
#X obj 29 702 *~;
#X obj 29 724 outlet~ out_R;
#X floatatom 136 139 5 0 0 0 - - -;
#X obj 91 189 line~;
#X obj 91 146 / 200;
#N canvas 442 469 450 300 seed_minimo 0;
#X obj 28 97 *;
#X obj 58 48 inlet minimo;
#X obj 28 118 outlet seed_result;
#X obj 28 26 inlet cc_seed;
#X obj 43 75 >=;
#X connect 0 0 2 0;
#X connect 1 0 4 1;
#X connect 3 0 0 0;
#X connect 3 0 4 0;
#X connect 4 0 0 1;
#X restore 168 72 pd seed_minimo;
#X floatatom 249 49 5 0 127 0 - - -;
#X obj 249 6 r loadbang;
#X msg 249 27 0;
#X obj 29 93 noise~;
#X obj 29 227 *~;
#X obj 44 121 * 50;
#X floatatom 396 139 5 0 0 0 - - -;
#X obj 351 189 line~;
#X obj 351 146 / 200;
#N canvas 442 469 450 300 seed_minimo 0;
#X obj 28 97 *;
#X obj 58 48 inlet minimo;
#X obj 28 118 outlet seed_result;
#X obj 28 26 inlet cc_seed;
#X obj 43 75 >=;
#X connect 0 0 2 0;
#X connect 1 0 4 1;
#X connect 3 0 0 0;
#X connect 3 0 4 0;
#X connect 4 0 0 1;
#X restore 428 72 pd seed_minimo;
#X floatatom 509 49 5 0 127 0 - - -;
#X obj 509 6 r loadbang;
#X obj 289 93 noise~;
#X obj 289 227 *~;
#X obj 304 122 * 50;
#X floatatom 676 139 5 0 0 0 - - -;
#X obj 631 189 line~;
#X obj 631 146 / 200;
#N canvas 442 469 450 300 seed_minimo 0;
#X obj 28 97 *;
#X obj 58 48 inlet minimo;
#X obj 28 118 outlet seed_result;
#X obj 28 26 inlet cc_seed;
#X obj 43 75 >=;
#X connect 0 0 2 0;
#X connect 1 0 4 1;
#X connect 3 0 0 0;
#X connect 3 0 4 0;
#X connect 4 0 0 1;
#X restore 708 72 pd seed_minimo;
#X floatatom 789 49 5 0 127 0 - - -;
#X obj 789 6 r loadbang;
#X obj 569 93 noise~;
#X obj 569 227 *~;
#X obj 584 119 * 50;
#X floatatom 936 139 5 0 0 0 - - -;
#X obj 891 189 line~;
#X obj 891 146 / 200;
#N canvas 442 469 450 300 seed_minimo 0;
#X obj 28 97 *;
#X obj 58 48 inlet minimo;
#X obj 28 118 outlet seed_result;
#X obj 28 26 inlet cc_seed;
#X obj 43 75 >=;
#X connect 0 0 2 0;
#X connect 1 0 4 1;
#X connect 3 0 0 0;
#X connect 3 0 4 0;
#X connect 4 0 0 1;
#X restore 968 72 pd seed_minimo;
#X floatatom 1049 49 5 0 127 0 - - -;
#X obj 1049 6 r loadbang;
#X obj 829 93 noise~;
#X obj 829 227 *~;
#X obj 844 119 * 50;
#X floatatom 136 519 5 0 0 0 - - -;
#X obj 91 569 line~;
#X obj 91 526 / 200;
#N canvas 442 469 450 300 seed_minimo 0;
#X obj 28 97 *;
#X obj 58 48 inlet minimo;
#X obj 28 118 outlet seed_result;
#X obj 28 26 inlet cc_seed;
#X obj 43 75 >=;
#X connect 0 0 2 0;
#X connect 1 0 4 1;
#X connect 3 0 0 0;
#X connect 3 0 4 0;
#X connect 4 0 0 1;
#X restore 168 452 pd seed_minimo;
#X floatatom 249 429 5 0 127 0 - - -;
#X obj 249 386 r loadbang;
#X obj 29 473 noise~;
#X obj 29 607 *~;
#X obj 44 499 * 50;
#X floatatom 396 519 5 0 0 0 - - -;
#X obj 351 569 line~;
#X obj 351 526 / 200;
#N canvas 442 469 450 300 seed_minimo 0;
#X obj 28 97 *;
#X obj 58 48 inlet minimo;
#X obj 28 118 outlet seed_result;
#X obj 28 26 inlet cc_seed;
#X obj 43 75 >=;
#X connect 0 0 2 0;
#X connect 1 0 4 1;
#X connect 3 0 0 0;
#X connect 3 0 4 0;
#X connect 4 0 0 1;
#X restore 428 452 pd seed_minimo;
#X floatatom 509 429 5 0 127 0 - - -;
#X obj 509 386 r loadbang;
#X obj 289 473 noise~;
#X obj 289 607 *~;
#X obj 304 499 * 50;
#X floatatom 676 519 5 0 0 0 - - -;
#X obj 631 569 line~;
#X obj 631 526 / 200;
#N canvas 442 469 450 300 seed_minimo 0;
#X obj 28 97 *;
#X obj 58 48 inlet minimo;
#X obj 28 118 outlet seed_result;
#X obj 28 26 inlet cc_seed;
#X obj 43 75 >=;
#X connect 0 0 2 0;
#X connect 1 0 4 1;
#X connect 3 0 0 0;
#X connect 3 0 4 0;
#X connect 4 0 0 1;
#X restore 708 452 pd seed_minimo;
#X floatatom 789 429 5 0 127 0 - - -;
#X obj 789 386 r loadbang;
#X obj 569 473 noise~;
#X obj 569 607 *~;
#X obj 584 499 * 50;
#X floatatom 936 519 5 0 0 0 - - -;
#X obj 891 569 line~;
#X obj 891 526 / 200;
#N canvas 442 469 450 300 seed_minimo 0;
#X obj 28 97 *;
#X obj 58 48 inlet minimo;
#X obj 28 118 outlet seed_result;
#X obj 28 26 inlet cc_seed;
#X obj 43 75 >=;
#X connect 0 0 2 0;
#X connect 1 0 4 1;
#X connect 3 0 0 0;
#X connect 3 0 4 0;
#X connect 4 0 0 1;
#X restore 968 452 pd seed_minimo;
#X floatatom 1049 429 5 0 127 0 - - -;
#X obj 1049 386 r loadbang;
#X obj 829 473 noise~;
#X obj 829 607 *~;
#X obj 844 499 * 50;
#X msg 509 27 15;
#X msg 789 27 30;
#X msg 1049 27 45;
#X msg 249 407 60;
#X msg 509 407 75;
#X msg 789 407 90;
#X msg 1049 407 105;
#X obj 91 97 random 100;
#X obj 351 97 random 100;
#X obj 631 97 random 100;
#X obj 891 97 random 100;
#X obj 91 477 random 100;
#X obj 351 477 random 100;
#X obj 631 477 random 100;
#X obj 891 477 random 100;
#X msg 891 548 \$1 800;
#X obj 29 248 *~ 0.7;
#X obj 289 248 *~ 0.7;
#X obj 569 248 *~ 0.7;
#X obj 829 248 *~ 0.7;
#X obj 29 628 *~ 0.7;
#X obj 289 628 *~ 0.7;
#X obj 569 628 *~ 0.7;
#X obj 829 628 *~ 0.7;
#X obj 29 576 bp~ 0 5;
#X obj 289 576 bp~ 0 5;
#X obj 569 576 bp~ 0 5;
#X obj 829 576 bp~ 0 5;
#X msg 91 168 \$1 500;
#X msg 351 168 \$1 500;
#X msg 631 168 \$1 500;
#X msg 891 168 \$1 500;
#X msg 91 547 \$1 900;
#X msg 351 548 \$1 1100;
#X msg 631 548 \$1 900;
#X obj 44 167 line;
#X msg 44 146 \$1 800;
#X obj 304 167 line;
#X msg 304 146 \$1 800;
#X obj 584 167 line;
#X msg 584 146 \$1 800;
#X obj 844 167 line;
#X msg 844 146 \$1 800;
#X obj 289 196 bp~ 0 20;
#X obj 569 196 bp~ 0 20;
#X obj 829 196 bp~ 0 20;
#X obj 29 196 bp~ 0 50;
#X obj 44 547 line;
#X msg 44 526 \$1 800;
#X obj 304 547 line;
#X msg 304 526 \$1 800;
#X obj 584 547 line;
#X msg 584 526 \$1 800;
#X obj 844 547 line;
#X msg 844 526 \$1 800;
#X obj 72 -61 s velocity_B;
#N canvas 626 22 602 1002 adsr_envelope_B 0;
#X obj 184 260 timer;
#X obj 253 250 +;
#X obj 253 221 f;
#X obj 184 195 t b b;
#X obj 184 333 >= 0;
#X obj 184 308 t f f;
#X obj 184 446 f;
#X msg 184 479 0 \$1;
#X obj 265 422 f;
#X obj 265 443 pack f f f;
#X obj 184 532 vline~;
#X obj 184 352 sel 0 1;
#X msg 265 472 \$1 \$2 \, 0 \$3 \$2;
#X obj 184 285 expr $f2-$f1;
#X obj 293 323 min;
#X obj 293 344 min;
#X text 11 280 [attack \, decay \, sustain];
#X text 180 114 [release];
#X obj 42 445 pack f f f f f;
#X msg 42 470 \$1 \$2 \, \$3 \$4 \$5;
#X obj 82 379 *;
#X obj 42 353 t f f;
#X obj 358 392 *;
#X obj 184 552 outlet~;
#X obj 184 174 sel 1 0;
#X obj 184 153 > 0;
#X obj 15 324 sel 0;
#X obj 62 423 r attack;
#X obj 97 353 r sustain;
#X obj 102 401 r decay;
#X obj 123 423 r attack;
#X obj 268 202 r attack;
#X obj 278 221 r decay;
#X obj 308 302 r decay;
#X obj 321 324 r release;
#X obj 381 366 r sustain;
#X obj 199 419 r release;
#X obj 322 421 r release;
#X obj 184 132 r velocity_B;
#X obj 15 300 r velocity_B;
#X obj 358 345 r velocity_B;
#X connect 0 0 13 0;
#X connect 1 0 13 1;
#X connect 2 0 1 0;
#X connect 3 0 0 0;
#X connect 3 1 2 0;
#X connect 4 0 11 0;
#X connect 5 0 4 0;
#X connect 5 1 14 0;
#X connect 6 0 7 0;
#X connect 7 0 10 0;
#X connect 8 0 9 0;
#X connect 9 0 12 0;
#X connect 10 0 23 0;
#X connect 11 0 6 0;
#X connect 11 1 8 0;
#X connect 12 0 10 0;
#X connect 13 0 5 0;
#X connect 14 0 15 0;
#X connect 15 0 9 1;
#X connect 18 0 19 0;
#X connect 19 0 10 0;
#X connect 20 0 18 2;
#X connect 21 0 18 0;
#X connect 21 1 20 0;
#X connect 22 0 8 1;
#X connect 24 0 3 0;
#X connect 24 1 0 1;
#X connect 25 0 24 0;
#X connect 26 1 21 0;
#X connect 27 0 18 1;
#X connect 28 0 20 1;
#X connect 29 0 18 3;
#X connect 30 0 18 4;
#X connect 31 0 2 1;
#X connect 32 0 1 1;
#X connect 33 0 14 1;
#X connect 34 0 15 1;
#X connect 35 0 22 1;
#X connect 36 0 6 1;
#X connect 37 0 9 2;
#X connect 38 0 25 0;
#X connect 39 0 26 0;
#X connect 40 0 22 0;
#X restore 44 268 pd adsr_envelope_B;
#N canvas 626 22 602 1002 adsr_envelope_B 0;
#X obj 184 260 timer;
#X obj 253 250 +;
#X obj 253 221 f;
#X obj 184 195 t b b;
#X obj 184 333 >= 0;
#X obj 184 308 t f f;
#X obj 184 446 f;
#X msg 184 479 0 \$1;
#X obj 265 422 f;
#X obj 265 443 pack f f f;
#X obj 184 532 vline~;
#X obj 184 352 sel 0 1;
#X msg 265 472 \$1 \$2 \, 0 \$3 \$2;
#X obj 184 285 expr $f2-$f1;
#X obj 293 323 min;
#X obj 293 344 min;
#X text 11 280 [attack \, decay \, sustain];
#X text 180 114 [release];
#X obj 42 445 pack f f f f f;
#X msg 42 470 \$1 \$2 \, \$3 \$4 \$5;
#X obj 82 379 *;
#X obj 42 353 t f f;
#X obj 358 392 *;
#X obj 184 552 outlet~;
#X obj 184 174 sel 1 0;
#X obj 184 153 > 0;
#X obj 15 324 sel 0;
#X obj 62 423 r attack;
#X obj 97 353 r sustain;
#X obj 102 401 r decay;
#X obj 123 423 r attack;
#X obj 268 202 r attack;
#X obj 278 221 r decay;
#X obj 308 302 r decay;
#X obj 321 324 r release;
#X obj 381 366 r sustain;
#X obj 199 419 r release;
#X obj 322 421 r release;
#X obj 184 132 r velocity_A;
#X obj 15 300 r velocity_A;
#X obj 358 345 r velocity_A;
#X connect 0 0 13 0;
#X connect 1 0 13 1;
#X connect 2 0 1 0;
#X connect 3 0 0 0;
#X connect 3 1 2 0;
#X connect 4 0 11 0;
#X connect 5 0 4 0;
#X connect 5 1 14 0;
#X connect 6 0 7 0;
#X connect 7 0 10 0;
#X connect 8 0 9 0;
#X connect 9 0 12 0;
#X connect 10 0 23 0;
#X connect 11 0 6 0;
#X connect 11 1 8 0;
#X connect 12 0 10 0;
#X connect 13 0 5 0;
#X connect 14 0 15 0;
#X connect 15 0 9 1;
#X connect 18 0 19 0;
#X connect 19 0 10 0;
#X connect 20 0 18 2;
#X connect 21 0 18 0;
#X connect 21 1 20 0;
#X connect 22 0 8 1;
#X connect 24 0 3 0;
#X connect 24 1 0 1;
#X connect 25 0 24 0;
#X connect 26 1 21 0;
#X connect 27 0 18 1;
#X connect 28 0 20 1;
#X connect 29 0 18 3;
#X connect 30 0 18 4;
#X connect 31 0 2 1;
#X connect 32 0 1 1;
#X connect 33 0 14 1;
#X connect 34 0 15 1;
#X connect 35 0 22 1;
#X connect 36 0 6 1;
#X connect 37 0 9 2;
#X connect 38 0 25 0;
#X connect 39 0 26 0;
#X connect 40 0 22 0;
#X restore 44 651 pd adsr_envelope_B;
#X obj 91 67 r bng_lfo_B;
#X obj 168 49 r seed_lfo_B;
#X obj 351 68 r bng_lfo_B;
#X obj 428 49 r seed_lfo_B;
#X obj 631 67 r bng_lfo_B;
#X obj 708 49 r seed_lfo_B;
#X obj 891 67 r bng_lfo_B;
#X obj 968 49 r seed_lfo_B;
#X obj 91 446 r bng_lfo_B;
#X obj 168 429 r seed_lfo_B;
#X obj 351 447 r bng_lfo_B;
#X obj 428 429 r seed_lfo_B;
#X obj 631 447 r bng_lfo_B;
#X obj 708 429 r seed_lfo_B;
#X obj 891 447 r bng_lfo_B;
#X obj 968 429 r seed_lfo_B;
#X connect 0 0 135 0;
#X connect 1 1 0 0;
#X connect 2 0 1 0;
#X connect 3 0 4 0;
#X connect 5 0 6 0;
#X connect 8 0 15 1;
#X connect 9 0 108 0;
#X connect 10 0 87 1;
#X connect 11 0 10 1;
#X connect 12 0 13 0;
#X connect 12 0 87 0;
#X connect 13 0 11 0;
#X connect 14 0 126 0;
#X connect 15 0 96 0;
#X connect 16 0 116 0;
#X connect 18 0 24 1;
#X connect 19 0 109 0;
#X connect 20 0 88 1;
#X connect 21 0 20 1;
#X connect 22 0 80 0;
#X connect 22 0 88 0;
#X connect 23 0 123 0;
#X connect 24 0 97 0;
#X connect 25 0 118 0;
#X connect 27 0 33 1;
#X connect 28 0 110 0;
#X connect 29 0 89 1;
#X connect 30 0 29 1;
#X connect 31 0 81 0;
#X connect 31 0 89 0;
#X connect 32 0 124 0;
#X connect 33 0 98 0;
#X connect 34 0 120 0;
#X connect 36 0 42 1;
#X connect 37 0 111 0;
#X connect 38 0 90 1;
#X connect 39 0 38 1;
#X connect 40 0 82 0;
#X connect 40 0 90 0;
#X connect 41 0 125 0;
#X connect 42 0 99 0;
#X connect 43 0 122 0;
#X connect 45 0 51 1;
#X connect 46 0 112 0;
#X connect 47 0 91 1;
#X connect 48 0 47 1;
#X connect 49 0 83 0;
#X connect 49 0 91 0;
#X connect 50 0 104 0;
#X connect 51 0 100 0;
#X connect 52 0 128 0;
#X connect 54 0 60 1;
#X connect 55 0 113 0;
#X connect 56 0 92 1;
#X connect 57 0 56 1;
#X connect 58 0 84 0;
#X connect 58 0 92 0;
#X connect 59 0 105 0;
#X connect 60 0 101 0;
#X connect 61 0 130 0;
#X connect 63 0 69 1;
#X connect 64 0 114 0;
#X connect 65 0 93 1;
#X connect 66 0 65 1;
#X connect 67 0 85 0;
#X connect 67 0 93 0;
#X connect 68 0 106 0;
#X connect 69 0 102 0;
#X connect 70 0 132 0;
#X connect 72 0 78 1;
#X connect 73 0 95 0;
#X connect 74 0 94 1;
#X connect 75 0 74 1;
#X connect 76 0 86 0;
#X connect 76 0 94 0;
#X connect 77 0 107 0;
#X connect 78 0 103 0;
#X connect 79 0 134 0;
#X connect 80 0 21 0;
#X connect 81 0 30 0;
#X connect 82 0 39 0;
#X connect 83 0 48 0;
#X connect 84 0 57 0;
#X connect 85 0 66 0;
#X connect 86 0 75 0;
#X connect 87 0 7 0;
#X connect 87 0 9 0;
#X connect 87 0 16 0;
#X connect 88 0 17 0;
#X connect 88 0 19 0;
#X connect 88 0 25 0;
#X connect 89 0 26 0;
#X connect 89 0 28 0;
#X connect 89 0 34 0;
#X connect 90 0 35 0;
#X connect 90 0 37 0;
#X connect 90 0 43 0;
#X connect 91 0 44 0;
#X connect 91 0 46 0;
#X connect 91 0 52 0;
#X connect 92 0 53 0;
#X connect 92 0 55 0;
#X connect 92 0 61 0;
#X connect 93 0 62 0;
#X connect 93 0 64 0;
#X connect 93 0 70 0;
#X connect 94 0 71 0;
#X connect 94 0 73 0;
#X connect 94 0 79 0;
#X connect 95 0 72 0;
#X connect 96 0 3 0;
#X connect 97 0 3 0;
#X connect 98 0 3 0;
#X connect 99 0 3 0;
#X connect 100 0 5 0;
#X connect 101 0 5 0;
#X connect 102 0 5 0;
#X connect 103 0 5 0;
#X connect 104 0 51 0;
#X connect 105 0 60 0;
#X connect 106 0 69 0;
#X connect 107 0 78 0;
#X connect 108 0 8 0;
#X connect 109 0 18 0;
#X connect 110 0 27 0;
#X connect 111 0 36 0;
#X connect 112 0 45 0;
#X connect 113 0 54 0;
#X connect 114 0 63 0;
#X connect 115 0 126 1;
#X connect 116 0 115 0;
#X connect 117 0 123 1;
#X connect 118 0 117 0;
#X connect 119 0 124 1;
#X connect 120 0 119 0;
#X connect 121 0 125 1;
#X connect 122 0 121 0;
#X connect 123 0 24 0;
#X connect 124 0 33 0;
#X connect 125 0 42 0;
#X connect 126 0 15 0;
#X connect 127 0 104 1;
#X connect 128 0 127 0;
#X connect 129 0 105 1;
#X connect 130 0 129 0;
#X connect 131 0 106 1;
#X connect 132 0 131 0;
#X connect 133 0 107 1;
#X connect 134 0 133 0;
#X connect 136 0 3 1;
#X connect 137 0 5 1;
#X connect 138 0 87 0;
#X connect 139 0 10 0;
#X connect 140 0 88 0;
#X connect 141 0 20 0;
#X connect 142 0 89 0;
#X connect 143 0 29 0;
#X connect 144 0 90 0;
#X connect 145 0 38 0;
#X connect 146 0 91 0;
#X connect 147 0 47 0;
#X connect 148 0 92 0;
#X connect 149 0 56 0;
#X connect 150 0 93 0;
#X connect 151 0 65 0;
#X connect 152 0 94 0;
#X connect 153 0 74 0;
#X restore 261 70 pd noise_B;
#N canvas 734 292 450 300 lfo_color_A 0;
#X obj 15 109 bng 15 250 50 0 empty empty empty 0 -6 0 8 -262144 -1
-1;
#X floatatom 94 109 5 0 0 0 - - -;
#X obj 201 139 i;
#X obj 94 129 +;
#X floatatom 94 150 5 0 0 0 - - -;
#N canvas 700 216 463 411 lfo_color 0;
#X obj 23 21 inlet bang;
#X obj 58 67 + 1;
#X obj 23 67 f 0;
#X obj 23 44 t b;
#X obj 23 115 / 100;
#X obj 23 91 mod 100;
#X obj 23 138 * 6.283;
#X obj 23 161 cos;
#X obj 23 203 outlet lfo;
#X obj 79 138 inlet range;
#X obj 23 182 *;
#X obj 79 159 / 127;
#X connect 0 0 3 0;
#X connect 1 0 2 1;
#X connect 2 0 1 0;
#X connect 2 0 5 0;
#X connect 3 0 2 0;
#X connect 4 0 6 0;
#X connect 5 0 4 0;
#X connect 6 0 7 0;
#X connect 7 0 10 0;
#X connect 9 0 11 0;
#X connect 10 0 8 0;
#X connect 11 0 10 1;
#X restore 201 97 pd lfo_color;
#X obj 201 74 metro;
#X floatatom 201 160 5 0 0 0 - - -;
#X obj 201 118 * 20;
#X obj 228 51 * 10;
#X obj 201 51 > 0;
#X obj 95 54 r lfo_color_A;
#X obj 228 16 r lfo_rate_A;
#X obj 270 52 r lfo_amount_A;
#X obj 15 139 s bng_lfo_A;
#X obj 94 169 s seed_lfo_A;
#X connect 0 0 3 0;
#X connect 0 0 14 0;
#X connect 1 0 3 0;
#X connect 2 0 7 0;
#X connect 2 0 3 1;
#X connect 3 0 4 0;
#X connect 4 0 15 0;
#X connect 5 0 8 0;
#X connect 6 0 5 0;
#X connect 6 0 0 0;
#X connect 8 0 2 0;
#X connect 9 0 6 1;
#X connect 10 0 6 0;
#X connect 10 0 3 1;
#X connect 11 0 0 0;
#X connect 11 0 1 0;
#X connect 12 0 9 0;
#X connect 12 0 10 0;
#X connect 13 0 5 1;
#X restore 239 31 pd lfo_color_A;
#N canvas 738 241 450 300 lfo_color_B 0;
#X obj 15 109 bng 15 250 50 0 empty empty empty 0 -6 0 8 -262144 -1
-1;
#X floatatom 94 109 5 0 0 0 - - -;
#X obj 201 139 i;
#X obj 94 129 +;
#X floatatom 94 150 5 0 0 0 - - -;
#N canvas 700 216 463 411 lfo_color 0;
#X obj 23 21 inlet bang;
#X obj 58 67 + 1;
#X obj 23 67 f 0;
#X obj 23 44 t b;
#X obj 23 115 / 100;
#X obj 23 91 mod 100;
#X obj 23 138 * 6.283;
#X obj 23 161 cos;
#X obj 23 203 outlet lfo;
#X obj 79 138 inlet range;
#X obj 23 182 *;
#X obj 79 159 / 127;
#X connect 0 0 3 0;
#X connect 1 0 2 1;
#X connect 2 0 1 0;
#X connect 2 0 5 0;
#X connect 3 0 2 0;
#X connect 4 0 6 0;
#X connect 5 0 4 0;
#X connect 6 0 7 0;
#X connect 7 0 10 0;
#X connect 9 0 11 0;
#X connect 10 0 8 0;
#X connect 11 0 10 1;
#X restore 201 97 pd lfo_color;
#X obj 201 74 metro;
#X floatatom 201 160 5 0 0 0 - - -;
#X obj 201 118 * 20;
#X obj 228 51 * 10;
#X obj 201 51 > 0;
#X obj 95 53 r lfo_color_B;
#X obj 228 16 r lfo_rate_B;
#X obj 270 52 r lfo_amount_B;
#X obj 15 139 s bng_lfo_B;
#X obj 94 169 s seed_lfo_B;
#X connect 0 0 3 0;
#X connect 0 0 14 0;
#X connect 1 0 3 0;
#X connect 2 0 7 0;
#X connect 2 0 3 1;
#X connect 3 0 4 0;
#X connect 4 0 15 0;
#X connect 5 0 8 0;
#X connect 6 0 5 0;
#X connect 6 0 0 0;
#X connect 8 0 2 0;
#X connect 9 0 6 1;
#X connect 10 0 6 0;
#X connect 10 0 3 1;
#X connect 11 0 0 0;
#X connect 11 0 1 0;
#X connect 12 0 9 0;
#X connect 12 0 10 0;
#X connect 13 0 5 1;
#X restore 339 31 pd lfo_color_B;
#N canvas 757 208 923 601 READ_ME 0;
#X text 14 72 The LFO Color setting decides the pseudo-random seed
(the higher the number \, the wider the range) and together with LFO
Rate and Amount controls the speed and amount of harmonic changes.
, f 86;
#X text 390 584 Beta Tester: .Chelidon Frame // Alessio Premoli .Dimitri
"Error 500" De Franciscis, f 86;
#X text 15 122 ADSR controls the envelope of the played notes only
\, while Filter controls the cutoff of the LPF. LFO Filter Wave selects
between Sine and Saw \, while Rate and Amount control the speed and
amount of the filter sweep., f 87;
#X text 16 12 Noise Filter - Alessandro Ielo - jqrsound.com, f 86
;
#X text 15 35 Noise Filter is a sound source based on white noise:
it contains 2 noise modules to create beats and rhythm., f 86;
#X restore 13 -15 pd READ_ME;
#X obj 13 -76 tgl 25 0 audio_onoff empty Audio_On/Off 30 13 0 15 -262144
-1 -1 0 1;
#N canvas 609 256 756 529 Init 0;
#X msg 76 103 \; pd dsp 1;
#X msg 11 103 \; pd dsp 0;
#X obj 11 31 r audio_onoff;
#X obj 76 64 sel 1;
#X obj 11 64 sel 0;
#X obj 180 31 loadbang;
#X obj 180 54 s loadbang;
#X obj 227 126 print -n;
#X msg 227 90 *** Noise Filter (2020) - Written by Alessandro Ielo
- jqrsound.com;
#X connect 2 0 3 0;
#X connect 2 0 4 0;
#X connect 3 0 0 0;
#X connect 4 0 1 0;
#X connect 5 0 6 0;
#X connect 5 0 8 0;
#X connect 8 0 7 0;
#X coords 0 0 1 1 85 60 0;
#X restore 13 -37 pd Init;
#N canvas 522 86 1158 709 Midi 0;
#X obj 13 235 mtof;
#X obj 156 235 mtof;
#X obj 433 235 mtof;
#X obj 13 258 s attack;
#X obj 156 258 s decay;
#X obj 293 257 s sustain;
#X obj 433 257 s release;
#X obj 293 235 / 127;
#X obj 75 214 r loadbang;
#X msg 75 235 20;
#X obj 215 214 r loadbang;
#X obj 355 214 r loadbang;
#X msg 355 235 0.6;
#X obj 495 214 r loadbang;
#X msg 495 235 400;
#X msg 215 235 400;
#X text 11 190 ADSR Envelope Midi CC In + initial values;
#X text 12 308 Filter Midi CC In;
#X obj 13 349 s f_cutoff;
#X obj 93 349 s f_lfo_wave;
#X obj 183 349 s f_lfo_rate;
#X obj 273 349 s f_lfo_amt;
#X obj 13 59 s lfo_color_A;
#X obj 103 59 s lfo_rate_A;
#X obj 189 59 s lfo_amount_A;
#X text 12 18 Noise_A Color Midi CC In;
#X text 12 98 Noise_B Color Midi CC In;
#X obj 13 139 s lfo_color_B;
#X obj 103 139 s lfo_rate_B;
#X obj 189 139 s lfo_amount_B;
#X obj 13 38 ctlin 1;
#X obj 103 38 ctlin 2;
#X obj 189 38 ctlin 3;
#X obj 13 118 ctlin 4;
#X obj 103 118 ctlin 5;
#X obj 189 118 ctlin 6;
#X obj 13 214 ctlin 7;
#X obj 156 214 ctlin 8;
#X obj 293 214 ctlin 9;
#X obj 433 214 ctlin 10;
#X obj 13 328 ctlin 11;
#X obj 93 328 ctlin 12;
#X obj 183 329 ctlin 13;
#X obj 273 329 ctlin 14;
#X connect 0 0 3 0;
#X connect 1 0 4 0;
#X connect 2 0 6 0;
#X connect 7 0 5 0;
#X connect 8 0 9 0;
#X connect 9 0 3 0;
#X connect 10 0 15 0;
#X connect 11 0 12 0;
#X connect 12 0 5 0;
#X connect 13 0 14 0;
#X connect 14 0 6 0;
#X connect 15 0 4 0;
#X connect 30 0 22 0;
#X connect 31 0 23 0;
#X connect 32 0 24 0;
#X connect 33 0 27 0;
#X connect 34 0 28 0;
#X connect 35 0 29 0;
#X connect 36 0 0 0;
#X connect 37 0 1 0;
#X connect 38 0 7 0;
#X connect 39 0 2 0;
#X connect 40 0 18 0;
#X connect 41 0 19 0;
#X connect 42 0 20 0;
#X connect 43 0 21 0;
#X restore 13 8 pd Midi settings;
#X connect 0 0 1 0;
#X connect 0 0 1 1;
#X connect 2 0 0 0;
#X connect 3 0 7 0;
#X connect 4 0 6 0;
#X connect 4 1 6 1;
#X connect 5 0 8 0;
#X connect 5 1 8 0;
#X connect 6 0 3 0;
#X connect 6 1 3 1;
#X connect 6 2 3 2;
#X connect 7 0 5 0;
#X connect 7 1 9 0;
#X connect 8 0 2 0;
#X connect 9 0 8 0;
#X connect 9 1 8 0;
