#N canvas 139 22 1343 992 10;
#X obj 235 144 osc~;
#X obj 329 145 osc~;
#X obj 236 297 +~;
#X obj 236 317 +~;
#X obj 235 811 *~ 0.25;
#X obj 236 277 *~;
#X obj 330 283 *~;
#X obj 235 851 dac~;
#X obj 250 426 osc~;
#X obj 250 458 *~;
#X obj 294 655 *~;
#X obj 235 649 +~;
#X obj 235 669 +~;
#X obj 235 715 +~;
#X obj 675 701 *~;
#X obj 669 493 adc~;
#X obj 640 542 *~ 0.25;
#X obj 690 542 *~ 0.25;
#X obj 675 565 +~;
#X obj 235 782 rev2~ 100 3000 20;
#X obj 294 623 osc~;
#X obj 459 677 *~;
#X obj 459 557 noise~;
#X obj 371 226 *~;
#X obj 371 303 *~;
#X obj 236 337 +~;
#X obj 475 150 osc~;
#X obj 569 151 osc~;
#X obj 476 303 +~;
#X obj 476 323 +~;
#X obj 476 283 *~;
#X obj 569 289 *~;
#X obj 611 232 *~;
#X obj 611 309 *~;
#X obj 294 579 +~;
#X obj 309 498 *~;
#X obj 294 600 +~;
#X obj 235 691 +~;
#X text 231 81 ring osc 1*2 & 3*4;
#X text 247 369 fm osc 5 -> 6;
#X text 641 475 external input;
#X obj 18 45 tgl 25 0 audio_onoff empty Audio_On/Off 30 13 0 15 -262144
-1 -1 1 1;
#N canvas 888 118 792 717 Midi_settings 1;
#X text 13 5 OSCILLATORS;
#X obj 15 29 ctlin 1;
#X obj 15 50 s freq_1;
#X obj 75 29 ctlin 2;
#X obj 75 50 s vol_1;
#X obj 135 29 ctlin 3;
#X obj 195 29 ctlin 4;
#X obj 135 50 s freq_2;
#X obj 195 50 s vol_2;
#X obj 255 29 ctlin 5;
#X obj 315 29 ctlin 6;
#X obj 15 91 ctlin 7;
#X obj 75 91 ctlin 8;
#X obj 255 50 s freq_3;
#X obj 315 50 s vol_3;
#X obj 15 112 s freq_4;
#X obj 75 112 s vol_4;
#X obj 135 91 ctlin 9;
#X obj 195 91 ctlin 10;
#X obj 255 91 ctlin 11;
#X obj 315 91 ctlin 12;
#X obj 135 112 s freq_5;
#X obj 195 112 s vol_5;
#X obj 255 112 s freq_6;
#X obj 315 112 s vol_6;
#X text 15 285 AUDIO INPUT;
#X obj 77 330 s vol_in;
#X obj 17 330 s bp_in;
#X text 15 365 REVERB;
#X obj 17 410 s rev_live;
#X obj 87 410 s rev_hp;
#X obj 15 151 ctlin 13;
#X obj 75 151 ctlin 14;
#X obj 15 172 s ring_12;
#X obj 75 172 s ring_34;
#X obj 135 172 s fm_56;
#X text 15 205 NOISE;
#X obj 17 250 s noise_vcf;
#X obj 135 151 ctlin 15;
#X obj 17 229 ctlin 16;
#X obj 97 229 ctlin 17;
#X obj 97 250 s noise_in;
#X obj 17 309 ctlin 18;
#X obj 77 309 ctlin 19;
#X obj 17 389 ctlin 20;
#X obj 87 389 ctlin 21;
#X connect 1 0 2 0;
#X connect 3 0 4 0;
#X connect 5 0 7 0;
#X connect 6 0 8 0;
#X connect 9 0 13 0;
#X connect 10 0 14 0;
#X connect 11 0 15 0;
#X connect 12 0 16 0;
#X connect 17 0 21 0;
#X connect 18 0 22 0;
#X connect 19 0 23 0;
#X connect 20 0 24 0;
#X connect 31 0 33 0;
#X connect 32 0 34 0;
#X connect 38 0 35 0;
#X connect 39 0 37 0;
#X connect 40 0 41 0;
#X connect 42 0 27 0;
#X connect 43 0 26 0;
#X connect 44 0 29 0;
#X connect 45 0 30 0;
#X restore 18 80 pd Midi_settings;
#N canvas 723 99 756 529 Init 0;
#X msg 76 103 \; pd dsp 1;
#X msg 11 103 \; pd dsp 0;
#X obj 11 31 r audio_onoff;
#X obj 76 64 sel 1;
#X obj 11 64 sel 0;
#X obj 180 31 loadbang;
#X obj 180 54 s loadbang;
#X obj 227 126 print -n;
#X msg 227 90 *** 6 Additive Ring Oscillators (2020) - Written by Alessandro
Ielo - jqrsound.com;
#X connect 2 0 3 0;
#X connect 2 0 4 0;
#X connect 3 0 0 0;
#X connect 4 0 1 0;
#X connect 5 0 6 0;
#X connect 5 0 8 0;
#X connect 8 0 7 0;
#X coords 0 0 1 1 85 60 0;
#X restore 18 102 pd Init;
#X text 17 14 6 Additive Ring Oscillators - jqrsound.com;
#X obj 235 101 r freq_1;
#X obj 329 102 r freq_2;
#X obj 329 123 mtof;
#X obj 235 122 mtof;
#X obj 371 124 r vol_2;
#X obj 277 124 r vol_1;
#X obj 569 130 mtof;
#X obj 475 128 mtof;
#X obj 475 107 r freq_3;
#X obj 569 109 r freq_4;
#X obj 517 130 r vol_3;
#X obj 611 131 r vol_4;
#X obj 294 558 mtof;
#X obj 250 405 mtof;
#X obj 250 384 r freq_5;
#X obj 292 407 r vol_5;
#X obj 294 537 r freq_6;
#X obj 332 600 r vol_6;
#X obj 334 762 mtof;
#X obj 334 741 r rev_hp;
#X obj 284 720 r rev_live;
#X obj 284 741 / 127;
#X obj 284 762 * 100;
#X obj 726 602 mtof;
#X obj 726 581 r bp_in;
#X obj 690 655 r vol_in;
#X obj 675 628 lop~ 1500;
#X obj 404 245 r ring_12;
#X obj 643 251 r ring_34;
#X obj 277 145 / 700;
#X obj 371 146 / 700;
#X obj 517 151 / 700;
#X obj 611 152 / 700;
#X obj 643 273 / 700;
#X obj 404 266 / 700;
#X obj 292 427 / 700;
#X obj 332 622 / 700;
#X obj 515 663 / 700;
#X obj 515 642 r noise_in;
#X obj 504 601 r noise_vcf;
#X obj 324 477 / 700;
#X obj 324 457 r fm_56;
#X obj 459 652 lop~ 600;
#X obj 504 622 mtof;
#X obj 690 679 / 127;
#X connect 0 0 5 0;
#X connect 0 0 23 0;
#X connect 1 0 6 0;
#X connect 1 0 23 1;
#X connect 2 0 3 0;
#X connect 3 0 25 0;
#X connect 4 0 7 0;
#X connect 4 0 7 1;
#X connect 5 0 2 0;
#X connect 6 0 2 1;
#X connect 8 0 9 0;
#X connect 8 0 35 0;
#X connect 9 0 11 1;
#X connect 10 0 12 1;
#X connect 11 0 12 0;
#X connect 12 0 37 0;
#X connect 13 0 19 0;
#X connect 14 0 13 1;
#X connect 15 0 16 0;
#X connect 15 1 17 0;
#X connect 16 0 18 0;
#X connect 17 0 18 1;
#X connect 18 0 71 0;
#X connect 19 0 4 0;
#X connect 20 0 10 0;
#X connect 21 0 37 1;
#X connect 22 0 87 0;
#X connect 23 0 24 0;
#X connect 24 0 3 1;
#X connect 25 0 11 0;
#X connect 26 0 30 0;
#X connect 26 0 32 0;
#X connect 27 0 31 0;
#X connect 27 0 32 1;
#X connect 28 0 29 0;
#X connect 29 0 25 1;
#X connect 30 0 28 0;
#X connect 31 0 28 1;
#X connect 32 0 33 0;
#X connect 33 0 29 1;
#X connect 34 0 36 0;
#X connect 35 0 34 1;
#X connect 36 0 20 0;
#X connect 37 0 13 0;
#X connect 45 0 48 0;
#X connect 46 0 47 0;
#X connect 47 0 1 0;
#X connect 48 0 0 0;
#X connect 49 0 75 0;
#X connect 50 0 74 0;
#X connect 51 0 27 0;
#X connect 52 0 26 0;
#X connect 53 0 52 0;
#X connect 54 0 51 0;
#X connect 55 0 76 0;
#X connect 56 0 77 0;
#X connect 57 0 34 0;
#X connect 58 0 8 0;
#X connect 59 0 58 0;
#X connect 60 0 80 0;
#X connect 61 0 57 0;
#X connect 62 0 81 0;
#X connect 63 0 19 4;
#X connect 64 0 63 0;
#X connect 65 0 66 0;
#X connect 66 0 67 0;
#X connect 67 0 19 2;
#X connect 68 0 71 1;
#X connect 69 0 68 0;
#X connect 70 0 89 0;
#X connect 71 0 14 0;
#X connect 72 0 79 0;
#X connect 73 0 78 0;
#X connect 74 0 5 1;
#X connect 75 0 6 1;
#X connect 76 0 30 1;
#X connect 77 0 31 1;
#X connect 78 0 33 1;
#X connect 79 0 24 1;
#X connect 80 0 9 1;
#X connect 81 0 10 1;
#X connect 82 0 21 1;
#X connect 83 0 82 0;
#X connect 84 0 88 0;
#X connect 85 0 35 1;
#X connect 86 0 85 0;
#X connect 87 0 21 0;
#X connect 88 0 87 1;
#X connect 89 0 14 1;
